<?xml version="1.0" standalone="no"?>
<!-- Generator: Adobe Fireworks 10, Export SVG Extension by Aaron Beall (http://fireworks.abeall.com) . Version: 0.6.1  -->
<!DOCTYPE svg PUBLIC "-//W3C//DTD SVG 1.1//EN" "http://www.w3.org/Graphics/SVG/1.1/DTD/svg11.dtd">
<svg id="Untitled-Page%201" viewBox="0 0 80 84" style="background-color:#ffffff00" version="1.1"
	xmlns="http://www.w3.org/2000/svg" xmlns:xlink="http://www.w3.org/1999/xlink" xml:space="preserve"
	x="0px" y="0px" width="80px" height="84px"
>
	<g id="Layer%201">
		<g>
			<g>
				<path d="M 38.7676 10.8262 C 38.7676 10.5264 38.8723 10.2515 39.0462 10.0345 L 34.5966 3.952 L 30.8177 6.6982 C 30.8184 6.6993 30.8193 6.7002 30.8202 6.7014 C 31.2253 7.2721 31.0912 8.0634 30.5205 8.4686 C 30.4119 8.5457 30.2953 8.603 30.1749 8.6417 L 33.3077 18.2854 C 33.4257 18.2491 33.5509 18.2294 33.6808 18.2294 C 33.85 18.2294 34.0114 18.2632 34.1591 18.3235 L 39.0553 11.6302 C 38.8756 11.4114 38.7676 11.1314 38.7676 10.8262 Z" fill="#84c340"/>
				<path d="M 49.5494 8.4686 C 48.9788 8.0634 48.8445 7.2721 49.2497 6.7014 C 49.2505 6.7002 49.2515 6.6993 49.2522 6.6982 L 45.4733 3.952 L 41.0237 10.0345 C 41.1976 10.2515 41.3022 10.5264 41.3022 10.8262 C 41.3022 11.1314 41.1942 11.4114 41.0145 11.6302 L 45.9108 18.3235 C 46.0585 18.2632 46.2198 18.2294 46.3892 18.2294 C 46.519 18.2294 46.6442 18.2491 46.7621 18.2854 L 49.895 8.6417 C 49.7746 8.603 49.658 8.5457 49.5494 8.4686 Z" fill="#84c340"/>
				<path d="M 39.5656 9.6495 C 39.7108 9.5915 39.869 9.5587 40.0349 9.5587 C 40.2009 9.5587 40.359 9.5915 40.5043 9.6495 L 44.9503 3.5719 L 40.0349 0 L 35.1198 3.5719 L 39.5656 9.6495 Z" fill="#84c340"/>
				<path d="M 40.4899 12.0081 C 40.3485 12.0627 40.1955 12.0937 40.0349 12.0937 C 39.8743 12.0937 39.7213 12.0627 39.58 12.0081 L 34.6753 18.7129 C 34.8456 18.9288 34.9481 19.2007 34.9481 19.4969 L 45.1218 19.4969 C 45.1218 19.2007 45.2242 18.9288 45.3946 18.7129 L 40.4899 12.0081 Z" fill="#84c340"/>
			</g>
			<g>
				<path d="M 57.3581 16.0538 C 57.5345 15.8115 57.7809 15.6507 58.0492 15.5778 L 58.0323 8.041 L 53.3612 8.036 C 53.361 8.0373 53.3613 8.0385 53.3612 8.0402 C 53.3528 8.7399 52.7787 9.3005 52.079 9.2921 C 51.9457 9.2906 51.8178 9.2683 51.6976 9.2287 L 48.5543 18.8688 C 48.671 18.9088 48.7838 18.9669 48.8889 19.0431 C 49.0258 19.1429 49.1362 19.2654 49.2201 19.4009 L 57.1174 16.873 C 57.101 16.5903 57.1784 16.3005 57.3581 16.0538 Z" fill="#84c340"/>
				<path d="M 67.4613 20.496 C 67.2386 19.8325 67.5958 19.1138 68.2592 18.8911 C 68.2606 18.8907 68.2619 18.8905 68.2631 18.8899 L 66.8245 14.4449 L 59.6477 16.7419 C 59.6606 17.02 59.5835 17.304 59.407 17.546 C 59.2273 17.7927 58.9752 17.9557 58.7013 18.0266 L 58.7199 26.3201 C 58.8749 26.3585 59.0251 26.426 59.1619 26.5258 C 59.267 26.6022 59.3565 26.6919 59.4304 26.7906 L 67.6388 20.8395 C 67.5643 20.7372 67.5038 20.6223 67.4613 20.496 Z" fill="#84c340"/>
				<path d="M 58.6957 15.5724 C 58.8473 15.6111 58.9944 15.6776 59.1285 15.7753 C 59.2626 15.873 59.3712 15.9925 59.4545 16.1251 L 66.6255 13.8298 L 64.7544 8.0482 L 58.6788 8.0419 L 58.6957 15.5724 Z" fill="#84c340"/>
				<path d="M 58.0546 18.0234 C 57.9083 17.9843 57.7664 17.919 57.6365 17.8245 C 57.5067 17.73 57.4013 17.6148 57.319 17.4875 L 49.4081 20.0198 C 49.4189 20.2945 49.3416 20.5745 49.1672 20.8138 L 57.3914 26.8043 C 57.5658 26.5647 57.8087 26.4052 58.0733 26.3311 L 58.0546 18.0234 Z" fill="#84c340"/>
			</g>
			<g>
				<path d="M 69.3094 31.2252 C 69.5946 31.1335 69.8885 31.1486 70.1482 31.2475 L 74.5703 25.1451 L 70.7972 22.3907 C 70.7964 22.3917 70.796 22.3928 70.7949 22.3943 C 70.3762 22.9548 69.5822 23.07 69.0215 22.6511 C 68.9148 22.5715 68.8245 22.4781 68.7506 22.3753 L 60.5358 28.3174 C 60.6066 28.4184 60.6638 28.5319 60.7038 28.6554 C 60.7557 28.8167 60.7729 28.9807 60.7609 29.1396 L 68.6326 31.746 C 68.7858 31.5077 69.0189 31.3191 69.3094 31.2252 Z" fill="#84c340"/>
				<path d="M 74.8621 40.765 C 75.0726 40.0974 75.7842 39.727 76.4515 39.9375 C 76.453 39.9379 76.4541 39.9385 76.4556 39.9387 L 77.9086 35.4984 L 70.7553 33.1299 C 70.6021 33.3622 70.3726 33.5462 70.0873 33.638 C 69.7971 33.7319 69.4973 33.715 69.2341 33.6111 L 64.3679 40.326 C 64.4706 40.4485 64.5524 40.5917 64.6042 40.7527 C 64.644 40.8763 64.6637 41.0017 64.6656 41.1251 L 74.8033 41.1472 C 74.8033 41.0207 74.8221 40.8921 74.8621 40.765 Z" fill="#84c340"/>
				<path d="M 70.674 31.6239 C 70.7738 31.7443 70.8536 31.8847 70.9045 32.0428 C 70.9553 32.2007 70.973 32.3611 70.962 32.5173 L 78.1099 34.8842 L 80 29.1089 L 75.0925 25.5266 L 70.674 31.6239 Z" fill="#84c340"/>
				<path d="M 68.7133 33.2277 C 68.618 33.1101 68.5416 32.9737 68.4923 32.8208 C 68.443 32.668 68.4255 32.5127 68.434 32.3615 L 60.5488 29.7507 C 60.3956 29.9791 60.1684 30.1597 59.8865 30.2506 L 63.009 39.9353 C 63.291 39.8444 63.5812 39.8585 63.8389 39.9545 L 68.7133 33.2277 Z" fill="#84c340"/>
			</g>
			<g>
				<path d="M 70.0413 50.5265 C 70.3258 50.62 70.5545 50.8054 70.7062 51.0382 L 77.8726 48.709 L 76.4436 44.2607 C 76.4423 44.2611 76.4415 44.2618 76.4396 44.2624 C 75.7712 44.4691 75.0617 44.0947 74.8549 43.4259 C 74.8154 43.2987 74.7975 43.1699 74.7981 43.0434 L 64.6603 43.0099 C 64.6581 43.1333 64.6376 43.2587 64.5971 43.3821 C 64.5443 43.5429 64.4616 43.6856 64.3585 43.8071 L 69.1877 50.5488 C 69.4517 50.4465 69.7513 50.4314 70.0413 50.5265 Z" fill="#84c340"/>
				<path d="M 68.9153 61.5075 C 69.4784 61.0918 70.2716 61.2111 70.6873 61.7744 C 70.6882 61.7757 70.6887 61.7768 70.6897 61.7778 L 74.4777 59.0438 L 70.0892 52.9174 C 69.8286 53.0151 69.5347 53.0285 69.2501 52.9349 C 68.9603 52.8399 68.7278 52.6498 68.5762 52.4107 L 60.6904 54.9738 C 60.7013 55.1331 60.6831 55.2973 60.6304 55.4577 C 60.5899 55.5811 60.5319 55.6943 60.4606 55.7949 L 68.6428 61.7818 C 68.7173 61.6797 68.8082 61.5867 68.9153 61.5075 Z" fill="#84c340"/>
				<path d="M 70.9098 51.6523 C 70.9194 51.8082 70.9014 51.9687 70.8495 52.1263 C 70.7977 52.2842 70.7175 52.424 70.6168 52.5439 L 75.0019 58.6658 L 79.9288 55.11 L 78.0701 49.3246 L 70.9098 51.6523 Z" fill="#84c340"/>
				<path d="M 68.3807 51.7942 C 68.3732 51.643 68.3916 51.4877 68.4417 51.3353 C 68.4918 51.1826 68.5692 51.0469 68.6649 50.9294 L 63.8273 44.1763 C 63.569 44.2708 63.279 44.2831 62.9977 44.1904 L 59.8219 53.8579 C 60.1033 53.9503 60.3297 54.1326 60.4814 54.3618 L 68.3807 51.7942 Z" fill="#84c340"/>
			</g>
			<g>
				<path d="M 59.2731 66.56 C 59.4481 66.8029 59.5238 67.0875 59.5095 67.3651 L 66.6734 69.7019 L 68.1362 65.2646 C 68.1349 65.2641 68.134 65.2641 68.132 65.2633 C 67.4701 65.0372 67.1169 64.3165 67.3434 63.6542 C 67.3864 63.5283 67.4476 63.4136 67.5226 63.3115 L 59.3472 57.3156 C 59.2728 57.4139 59.1824 57.5034 59.0771 57.5791 C 58.9396 57.6781 58.7889 57.7448 58.634 57.7821 L 58.57 66.0754 C 58.8436 66.1482 59.0947 66.3124 59.2731 66.56 Z" fill="#84c340"/>
				<path d="M 51.9 74.7737 C 52.5999 74.7693 53.1708 75.3328 53.1754 76.0329 C 53.1753 76.0342 53.175 76.0355 53.1753 76.0372 L 57.8464 76.0571 L 57.9047 68.521 C 57.6364 68.4465 57.391 68.2844 57.2162 68.0411 C 57.0377 67.7935 56.9617 67.503 56.9797 67.2205 L 49.0966 64.6495 C 49.0117 64.7846 48.9003 64.9065 48.7634 65.0052 C 48.6579 65.081 48.5444 65.1384 48.4277 65.1778 L 51.5182 74.835 C 51.6385 74.7964 51.7668 74.7746 51.9 74.7737 Z" fill="#84c340"/>
				<path d="M 59.3126 67.9813 C 59.2287 68.1131 59.1197 68.2322 58.9849 68.329 C 58.8501 68.4263 58.703 68.492 58.5509 68.5296 L 58.4928 76.0603 L 64.5684 76.0868 L 66.4708 70.3157 L 59.3126 67.9813 Z" fill="#84c340"/>
				<path d="M 57.1847 66.6071 C 57.2675 66.4804 57.3738 66.3657 57.504 66.272 C 57.6344 66.1781 57.7767 66.1137 57.9232 66.0754 L 57.9873 57.7678 C 57.7229 57.6924 57.4813 57.5314 57.3085 57.291 L 49.0513 63.2359 C 49.2243 63.4763 49.3002 63.7569 49.2878 64.0316 L 57.1847 66.6071 Z" fill="#84c340"/>
			</g>
			<g>
				<path d="M 41.1319 73.1808 C 41.1302 73.4804 41.024 73.7549 40.8491 73.9709 L 45.2649 80.0779 L 49.059 77.3519 C 49.0582 77.3511 49.0574 77.3505 49.0563 77.3486 C 48.6543 76.776 48.7931 75.9856 49.3659 75.5835 C 49.4747 75.5071 49.5919 75.4503 49.7125 75.412 L 46.6325 65.7516 C 46.5146 65.7872 46.3888 65.8064 46.259 65.8055 C 46.0897 65.8047 45.9285 65.7697 45.7815 65.7087 L 40.8488 72.3751 C 41.0269 72.595 41.1333 72.8756 41.1319 73.1808 Z" fill="#84c340"/>
				<path d="M 30.3373 75.4793 C 30.9057 75.8879 31.0356 76.6796 30.6272 77.2484 C 30.6265 77.2492 30.6255 77.2501 30.6248 77.2515 L 34.3889 80.0182 L 38.8715 73.9603 C 38.6985 73.7423 38.5955 73.4665 38.5974 73.167 C 38.5989 72.862 38.7082 72.5822 38.8891 72.3643 L 34.0298 65.6447 C 33.8817 65.7037 33.7199 65.7369 33.5511 65.7361 C 33.4213 65.7352 33.2959 65.7148 33.1781 65.6778 L 29.9927 75.3042 C 30.1127 75.3438 30.2292 75.4017 30.3373 75.4793 Z" fill="#84c340"/>
				<path d="M 40.3273 74.3529 C 40.1818 74.41 40.0237 74.4422 39.8578 74.4411 C 39.6916 74.4403 39.5339 74.4068 39.3888 74.3479 L 34.9095 80.4013 L 39.8052 84 L 44.7397 80.4547 L 40.3273 74.3529 Z" fill="#84c340"/>
				<path d="M 39.416 71.9892 C 39.5574 71.9357 39.7109 71.9054 39.8713 71.9063 C 40.0319 71.9071 40.1849 71.9391 40.3258 71.9943 L 45.2672 65.3163 C 45.0978 65.0997 44.9972 64.8273 44.9991 64.5312 L 34.8251 64.4752 C 34.8235 64.7716 34.7196 65.0429 34.5482 65.2578 L 39.416 71.9892 Z" fill="#84c340"/>
			</g>
			<g>
				<path d="M 22.5702 67.8516 C 22.3927 68.0928 22.1451 68.2522 21.8766 68.3238 L 21.8519 75.8604 L 26.5233 75.8907 C 26.5232 75.8898 26.5229 75.8888 26.5231 75.8864 C 26.5351 75.1869 27.1125 74.6297 27.8124 74.642 C 27.9451 74.6443 28.0732 74.6672 28.1933 74.7072 L 31.3893 65.0848 C 31.2731 65.044 31.1602 64.9854 31.0557 64.9084 C 30.9194 64.8082 30.8095 64.6848 30.7266 64.5491 L 22.8156 67.0336 C 22.8302 67.3163 22.751 67.6057 22.5702 67.8516 Z" fill="#84c340"/>
				<path d="M 12.4914 63.354 C 12.7104 64.0188 12.3495 64.7354 11.6844 64.9547 C 11.6835 64.9549 11.6823 64.9551 11.6808 64.9557 L 13.0952 69.4085 L 20.2841 67.1506 C 20.2727 66.8728 20.3517 66.589 20.5295 66.3482 C 20.7103 66.1023 20.9633 65.9407 21.2378 65.871 L 21.2646 57.5779 C 21.1101 57.5383 20.9598 57.4701 20.8238 57.3699 C 20.7193 57.2929 20.6299 57.2026 20.5565 57.1032 L 12.3159 63.0092 C 12.3896 63.112 12.4497 63.2275 12.4914 63.354 Z" fill="#84c340"/>
				<path d="M 21.23 68.3252 C 21.0789 68.2859 20.9321 68.2187 20.7984 68.1202 C 20.6647 68.0217 20.5568 67.9017 20.4743 67.7687 L 13.2906 70.0248 L 15.1301 75.8163 L 21.2057 75.8559 L 21.23 68.3252 Z" fill="#84c340"/>
				<path d="M 21.8845 65.8779 C 22.0302 65.9179 22.1723 65.984 22.3015 66.0792 C 22.4306 66.1743 22.5356 66.2901 22.617 66.4177 L 30.5419 63.9289 C 30.5323 63.654 30.6113 63.3747 30.7871 63.1364 L 22.5958 57.1009 C 22.42 57.3396 22.1763 57.4975 21.9113 57.5703 L 21.8845 65.8779 Z" fill="#84c340"/>
			</g>
			<g>
				<path d="M 10.7021 52.6147 C 10.4166 52.7052 10.1227 52.6883 9.8635 52.5882 L 5.4078 58.6658 L 9.1663 61.4408 C 9.1666 61.4402 9.1671 61.4389 9.1685 61.4372 C 9.5899 60.879 10.3846 60.7682 10.943 61.1903 C 11.0491 61.2705 11.1392 61.3644 11.2128 61.4675 L 19.4597 55.5705 C 19.3895 55.4691 19.3326 55.3554 19.2936 55.2316 C 19.2426 55.0704 19.2263 54.906 19.2391 54.7475 L 11.3818 52.0981 C 11.2273 52.3351 10.9928 52.5225 10.7021 52.6147 Z" fill="#84c340"/>
				<path d="M 5.2015 43.0449 C 4.9874 43.7109 4.2739 44.0776 3.6073 43.8637 C 3.6064 43.8631 3.6053 43.8625 3.6036 43.8622 L 2.1265 48.2946 L 9.2666 50.7021 C 9.4208 50.4705 9.6516 50.2878 9.9373 50.1977 C 10.228 50.1055 10.5277 50.1238 10.7906 50.2291 L 15.6932 43.5408 C 15.5916 43.4179 15.5101 43.2743 15.4593 43.1133 C 15.4202 42.9895 15.4011 42.8638 15.4003 42.7405 L 5.2626 42.6626 C 5.262 42.7891 5.2423 42.9177 5.2015 43.0449 Z" fill="#84c340"/>
				<path d="M 9.3399 52.2084 C 9.2408 52.0876 9.1616 51.947 9.1116 51.7887 C 9.0616 51.6304 9.045 51.4698 9.0566 51.3136 L 1.9216 48.9077 L 0 54.6725 L 4.8879 58.2818 L 9.3399 52.2084 Z" fill="#84c340"/>
				<path d="M 11.3092 50.6153 C 11.4037 50.7336 11.4795 50.8707 11.5279 51.0237 C 11.5764 51.1765 11.593 51.3319 11.5838 51.483 L 19.4548 54.1375 C 19.6089 53.9095 19.837 53.7301 20.1194 53.6411 L 17.05 43.9391 C 16.7676 44.0288 16.4776 44.0128 16.2204 43.9155 L 11.3092 50.6153 Z" fill="#84c340"/>
			</g>
			<g>
				<path d="M 10.0758 33.3098 C 9.7919 33.2149 9.5641 33.0284 9.4136 32.7947 L 2.2349 35.0841 L 3.6398 39.5402 C 3.6404 39.54 3.6415 39.5392 3.6437 39.5388 C 4.3128 39.3354 5.0204 39.7139 5.2235 40.3839 C 5.2621 40.5113 5.2796 40.6401 5.2783 40.7668 L 15.4155 40.8557 C 15.4186 40.7323 15.4395 40.6068 15.4808 40.4839 C 15.5344 40.3235 15.618 40.181 15.7218 40.0604 L 10.9294 33.2924 C 10.6649 33.393 10.3651 33.4064 10.0758 33.3098 Z" fill="#84c340"/>
				<path d="M 11.2618 22.3351 C 10.6967 22.7475 9.9041 22.6237 9.4911 22.0583 C 9.4907 22.0575 9.4902 22.0562 9.489 22.055 L 5.6862 24.7683 L 10.0411 30.9183 C 10.3021 30.8221 10.5963 30.8103 10.8802 30.9057 C 11.1694 31.0023 11.4011 31.1936 11.5515 31.4334 L 19.451 28.9133 C 19.4412 28.7542 19.4599 28.5902 19.5135 28.4302 C 19.5547 28.3068 19.6133 28.1942 19.6852 28.0938 L 11.5361 22.0621 C 11.4611 22.164 11.3695 22.2564 11.2618 22.3351 Z" fill="#84c340"/>
				<path d="M 9.2138 32.1792 C 9.205 32.0235 9.2236 31.863 9.2763 31.7056 C 9.329 31.5481 9.4102 31.4086 9.5115 31.2892 L 5.1596 25.1434 L 0.2135 28.6721 L 2.0405 34.4678 L 9.2138 32.1792 Z" fill="#84c340"/>
				<path d="M 11.7434 32.051 C 11.7501 32.2022 11.7308 32.3577 11.6799 32.5099 C 11.6292 32.6621 11.551 32.7973 11.4547 32.9141 L 16.2552 39.6941 C 16.5138 39.6007 16.8039 39.5901 17.0845 39.6844 L 20.3135 30.0342 C 20.0323 29.9403 19.8073 29.7568 19.6567 29.5267 L 11.7434 32.051 Z" fill="#84c340"/>
			</g>
			<g>
				<path d="M 20.9316 17.3355 C 20.7578 17.0915 20.6835 16.8067 20.6995 16.5293 L 13.5488 14.1532 L 12.062 18.5825 C 12.0624 18.5827 12.0638 18.5827 12.066 18.5838 C 12.7266 18.8132 13.0757 19.5359 12.8456 20.1971 C 12.8017 20.3225 12.7401 20.437 12.6646 20.5389 L 20.8069 26.5795 C 20.8821 26.4814 20.9728 26.3923 21.0786 26.3172 C 21.2162 26.2191 21.3677 26.1532 21.5226 26.1168 L 21.632 17.8239 C 21.3589 17.7496 21.1085 17.5839 20.9316 17.3355 Z" fill="#84c340"/>
				<path d="M 28.3495 9.1622 C 27.6501 9.1628 27.0822 8.5959 27.081 7.8958 C 27.0812 7.895 27.0815 7.8937 27.0813 7.892 L 22.4102 7.8461 L 22.311 15.3819 C 22.5786 15.4578 22.8234 15.6214 22.9968 15.8658 C 23.1737 16.1142 23.2484 16.4051 23.2288 16.6876 L 31.0978 19.3014 C 31.1835 19.1671 31.2952 19.0456 31.4327 18.948 C 31.5386 18.8722 31.6522 18.8158 31.7695 18.777 L 28.7319 9.103 C 28.6113 9.1411 28.4829 9.162 28.3495 9.1622 Z" fill="#84c340"/>
				<path d="M 20.9002 15.914 C 20.9847 15.7829 21.0941 15.6641 21.2294 15.5679 C 21.3647 15.4717 21.5125 15.4067 21.6647 15.3698 L 21.7638 7.8394 L 15.6887 7.7796 L 13.7545 13.5406 L 20.9002 15.914 Z" fill="#84c340"/>
				<path d="M 23.0205 17.2997 C 22.9368 17.4258 22.8298 17.5403 22.699 17.6334 C 22.5685 17.7266 22.4258 17.7898 22.2791 17.8275 L 22.1694 26.1349 C 22.4332 26.2115 22.674 26.3736 22.8455 26.6153 L 31.1353 20.7153 C 30.9633 20.4741 30.8894 20.1931 30.903 19.9184 L 23.0205 17.2997 Z" fill="#84c340"/>
			</g>
		</g>
	</g>
</svg>