<?xml version="1.0" standalone="no"?>
<!-- Generator: Adobe Fireworks 10, Export SVG Extension by Aaron Beall (http://fireworks.abeall.com) . Version: 0.6.1  -->
<!DOCTYPE svg PUBLIC "-//W3C//DTD SVG 1.1//EN" "http://www.w3.org/Graphics/SVG/1.1/DTD/svg11.dtd">
<svg id="Untitled-Page%201" viewBox="0 0 270 110" style="background-color:#ffffff00" version="1.1"
	xmlns="http://www.w3.org/2000/svg" xmlns:xlink="http://www.w3.org/1999/xlink" xml:space="preserve"
	x="0px" y="0px" width="270px" height="110px"
>
	<g>
		<g>
			<rect x="0" y="0" width="270" height="110" stroke="#ffffff" stroke-width="2" fill="none"/>
		</g>
	</g>
	<g>
		<g>
			<path d="M 69.7517 23.8262 C 69.7517 23.5264 69.8562 23.2515 70.0302 23.0345 L 65.5824 16.952 L 61.805 19.6982 C 61.8057 19.6993 61.8066 19.7003 61.8075 19.7014 C 62.2124 20.2721 62.0784 21.0634 61.5079 21.4686 C 61.3994 21.5457 61.2828 21.603 61.1625 21.6417 L 64.2941 31.2854 C 64.4119 31.2491 64.5371 31.2294 64.6669 31.2294 C 64.8361 31.2294 64.9973 31.2632 65.145 31.3235 L 70.0392 24.6302 C 69.8596 24.4114 69.7517 24.1314 69.7517 23.8262 Z" fill="#ffffff"/>
			<path d="M 80.5289 21.4686 C 79.9586 21.0634 79.8245 20.2721 80.2294 19.7014 C 80.2302 19.7003 80.2312 19.6993 80.2319 19.6982 L 76.4545 16.952 L 72.0068 23.0345 C 72.1807 23.2515 72.2853 23.5264 72.2853 23.8262 C 72.2853 24.1314 72.1772 24.4114 71.9977 24.6302 L 76.8918 31.3235 C 77.0395 31.2632 77.2008 31.2294 77.3701 31.2294 C 77.4998 31.2294 77.625 31.2491 77.7429 31.2854 L 80.8745 21.6417 C 80.7541 21.603 80.6375 21.5457 80.5289 21.4686 Z" fill="#ffffff"/>
			<path d="M 70.5493 22.6495 C 70.6944 22.5915 70.8526 22.5587 71.0184 22.5587 C 71.1843 22.5587 71.3424 22.5915 71.4875 22.6495 L 75.9318 16.5719 L 71.0184 13 L 66.1053 16.5719 L 70.5493 22.6495 Z" fill="#ffffff"/>
			<path d="M 71.4733 25.0081 C 71.3319 25.0627 71.179 25.0937 71.0184 25.0937 C 70.8579 25.0937 70.705 25.0627 70.5637 25.0081 L 65.661 31.7129 C 65.8313 31.9288 65.9337 32.2007 65.9337 32.4969 L 76.1033 32.4969 C 76.1033 32.2007 76.2056 31.9288 76.3759 31.7129 L 71.4733 25.0081 Z" fill="#ffffff"/>
		</g>
		<g>
			<path d="M 88.3345 29.0538 C 88.5109 28.8115 88.7571 28.6507 89.0253 28.5778 L 89.0084 21.041 L 84.3392 21.036 C 84.339 21.0373 84.3393 21.0385 84.3392 21.0402 C 84.3308 21.7399 83.757 22.3005 83.0575 22.2921 C 82.9243 22.2906 82.7965 22.2683 82.6763 22.2287 L 79.5343 31.8688 C 79.6509 31.9088 79.7637 31.9669 79.8688 32.0431 C 80.0056 32.1429 80.116 32.2654 80.1998 32.4009 L 88.0939 29.873 C 88.0774 29.5903 88.1548 29.3005 88.3345 29.0538 Z" fill="#ffffff"/>
			<path d="M 98.4335 33.496 C 98.2109 32.8325 98.5679 32.1138 99.2311 31.8911 C 99.2324 31.8907 99.2338 31.8905 99.235 31.8899 L 97.797 27.4449 L 90.6232 29.7419 C 90.636 30.02 90.559 30.304 90.3826 30.546 C 90.2029 30.7927 89.9509 30.9557 89.6771 31.0266 L 89.6957 39.3201 C 89.8506 39.3585 90.0009 39.426 90.1376 39.5258 C 90.2426 39.6022 90.332 39.6919 90.4059 39.7906 L 98.611 33.8395 C 98.5365 33.7372 98.4761 33.6223 98.4335 33.496 Z" fill="#ffffff"/>
			<path d="M 89.6715 28.5724 C 89.8231 28.6111 89.9701 28.6776 90.1042 28.7753 C 90.2382 28.873 90.3468 28.9925 90.43 29.1251 L 97.5981 26.8298 L 95.7277 21.0482 L 89.6547 21.0419 L 89.6715 28.5724 Z" fill="#ffffff"/>
			<path d="M 89.0308 31.0234 C 88.8845 30.9843 88.7426 30.919 88.6128 30.8245 C 88.483 30.73 88.3777 30.6148 88.2954 30.4875 L 80.3878 33.0198 C 80.3986 33.2945 80.3212 33.5745 80.147 33.8138 L 88.3678 39.8043 C 88.5421 39.5647 88.7849 39.4052 89.0494 39.3311 L 89.0308 31.0234 Z" fill="#ffffff"/>
		</g>
		<g>
			<path d="M 100.2809 44.2252 C 100.5659 44.1335 100.8597 44.1486 101.1193 44.2475 L 105.5396 38.1451 L 101.7681 35.3907 C 101.7672 35.3917 101.7668 35.3928 101.7657 35.3943 C 101.3472 35.9548 100.5536 36.07 99.9932 35.6511 C 99.8864 35.5715 99.7961 35.4781 99.7223 35.3753 L 91.5109 41.3174 C 91.5817 41.4184 91.6388 41.5319 91.6788 41.6554 C 91.7307 41.8167 91.7479 41.9807 91.7358 42.1396 L 99.6044 44.746 C 99.7575 44.5077 99.9905 44.3191 100.2809 44.2252 Z" fill="#ffffff"/>
			<path d="M 105.8312 53.765 C 106.0417 53.0974 106.7529 52.727 107.42 52.9375 C 107.4215 52.9379 107.4226 52.9385 107.4241 52.9387 L 108.8766 48.4984 L 101.7262 46.1299 C 101.573 46.3622 101.3436 46.5462 101.0585 46.638 C 100.7683 46.7319 100.4687 46.715 100.2056 46.6111 L 95.3414 53.326 C 95.4441 53.4485 95.5258 53.5917 95.5776 53.7527 C 95.6174 53.8763 95.6371 54.0017 95.6389 54.1251 L 105.7726 54.1472 C 105.7726 54.0207 105.7913 53.8921 105.8312 53.765 Z" fill="#ffffff"/>
			<path d="M 101.6449 44.6239 C 101.7446 44.7443 101.8244 44.8847 101.8752 45.0428 C 101.9261 45.2007 101.9437 45.3611 101.9328 45.5173 L 109.0777 47.8842 L 110.967 42.1089 L 106.0615 38.5266 L 101.6449 44.6239 Z" fill="#ffffff"/>
			<path d="M 99.6849 46.2277 C 99.5898 46.1101 99.5134 45.9737 99.4641 45.8208 C 99.4148 45.668 99.3973 45.5127 99.4058 45.3615 L 91.5238 42.7507 C 91.3707 42.9791 91.1436 43.1597 90.8619 43.2506 L 93.9831 52.9353 C 94.265 52.8444 94.5551 52.8585 94.8126 52.9545 L 99.6849 46.2277 Z" fill="#ffffff"/>
		</g>
		<g>
			<path d="M 101.0125 63.5265 C 101.2969 63.62 101.5255 63.8054 101.6771 64.0382 L 108.8405 61.709 L 107.4121 57.2607 C 107.4108 57.2611 107.41 57.2618 107.4081 57.2624 C 106.7401 57.4691 106.0308 57.0947 105.824 56.4259 C 105.7846 56.2987 105.7667 56.1699 105.7673 56.0434 L 95.6337 56.0099 C 95.6315 56.1333 95.611 56.2587 95.5705 56.3821 C 95.5177 56.5429 95.4351 56.6856 95.332 56.8071 L 100.1592 63.5488 C 100.4231 63.4465 100.7227 63.4314 101.0125 63.5265 Z" fill="#ffffff"/>
			<path d="M 99.887 74.5075 C 100.4498 74.0918 101.2427 74.2111 101.6581 74.7744 C 101.6591 74.7757 101.6595 74.7768 101.6606 74.7778 L 105.447 72.0438 L 101.0604 65.9174 C 100.7998 66.0151 100.5061 66.0285 100.2216 65.9349 C 99.9319 65.8399 99.6995 65.6498 99.548 65.4107 L 91.6654 67.9738 C 91.6763 68.1331 91.6581 68.2973 91.6055 68.4577 C 91.5649 68.5811 91.507 68.6943 91.4357 68.7949 L 99.6145 74.7818 C 99.689 74.6797 99.7798 74.5867 99.887 74.5075 Z" fill="#ffffff"/>
			<path d="M 101.8806 64.6523 C 101.8903 64.8082 101.8722 64.9687 101.8204 65.1263 C 101.7686 65.2842 101.6884 65.424 101.5876 65.5439 L 105.971 71.6658 L 110.8959 68.11 L 109.038 62.3246 L 101.8806 64.6523 Z" fill="#ffffff"/>
			<path d="M 99.3525 64.7942 C 99.3451 64.643 99.3634 64.4877 99.4135 64.3353 C 99.4636 64.1826 99.5409 64.0469 99.6366 63.9294 L 94.801 57.1763 C 94.5428 57.2708 94.2529 57.2831 93.9718 57.1904 L 90.7972 66.8579 C 91.0786 66.9503 91.3048 67.1326 91.4565 67.3618 L 99.3525 64.7942 Z" fill="#ffffff"/>
		</g>
		<g>
			<path d="M 90.2487 79.56 C 90.4236 79.8029 90.4993 80.0875 90.485 80.3651 L 97.6459 82.7019 L 99.1082 78.2646 C 99.1069 78.2641 99.106 78.2641 99.104 78.2633 C 98.4423 78.0372 98.0893 77.3165 98.3157 76.6542 C 98.3586 76.5283 98.4199 76.4136 98.4948 76.3115 L 90.3228 70.3156 C 90.2484 70.4139 90.1581 70.5034 90.0527 70.5791 C 89.9154 70.6781 89.7648 70.7448 89.6099 70.7821 L 89.5459 79.0754 C 89.8193 79.1482 90.0704 79.3124 90.2487 79.56 Z" fill="#ffffff"/>
			<path d="M 82.8786 87.7737 C 83.5782 87.7693 84.1489 88.3328 84.1534 89.0329 C 84.1534 89.0342 84.1531 89.0355 84.1534 89.0372 L 88.8226 89.0571 L 88.8809 81.521 C 88.6126 81.4465 88.3674 81.2844 88.1926 81.0411 C 88.0142 80.7935 87.9382 80.503 87.9563 80.2205 L 80.0763 77.6495 C 79.9915 77.7846 79.8802 77.9065 79.7433 78.0052 C 79.6378 78.081 79.5244 78.1384 79.4077 78.1778 L 82.4971 87.835 C 82.6173 87.7964 82.7455 87.7746 82.8786 87.7737 Z" fill="#ffffff"/>
			<path d="M 90.2882 80.9813 C 90.2043 81.1131 90.0953 81.2322 89.9606 81.329 C 89.8259 81.4263 89.6788 81.492 89.5268 81.5296 L 89.4688 89.0603 L 95.5417 89.0868 L 97.4435 83.3157 L 90.2882 80.9813 Z" fill="#ffffff"/>
			<path d="M 88.1611 79.6071 C 88.2439 79.4804 88.3502 79.3657 88.4803 79.272 C 88.6107 79.1781 88.7529 79.1137 88.8994 79.0754 L 88.9634 70.7678 C 88.6991 70.6924 88.4576 70.5314 88.2849 70.291 L 80.0311 76.2359 C 80.204 76.4763 80.2799 76.7569 80.2676 77.0316 L 88.1611 79.6071 Z" fill="#ffffff"/>
		</g>
		<g>
			<path d="M 72.115 86.1808 C 72.1133 86.4804 72.0071 86.7549 71.8323 86.9709 L 76.2462 93.0779 L 80.0388 90.3519 C 80.038 90.3511 80.0372 90.3505 80.0361 90.3486 C 79.6343 89.776 79.773 88.9856 80.3456 88.5835 C 80.4543 88.5071 80.5714 88.4503 80.692 88.412 L 77.6133 78.7516 C 77.4954 78.7872 77.3697 78.8064 77.24 78.8055 C 77.0707 78.8047 76.9096 78.7697 76.7626 78.7087 L 71.8319 85.3751 C 72.01 85.595 72.1163 85.8756 72.115 86.1808 Z" fill="#ffffff"/>
			<path d="M 61.3248 88.4793 C 61.8929 88.8879 62.0228 89.6796 61.6146 90.2484 C 61.6139 90.2492 61.6129 90.2501 61.6122 90.2515 L 65.3748 93.0182 L 69.8555 86.9603 C 69.6826 86.7423 69.5796 86.4665 69.5814 86.167 C 69.583 85.862 69.6923 85.5822 69.873 85.3643 L 65.0157 78.6447 C 64.8678 78.7037 64.7061 78.7369 64.5374 78.7361 C 64.4075 78.7352 64.2822 78.7148 64.1644 78.6778 L 60.9803 88.3042 C 61.1003 88.3438 61.2168 88.4017 61.3248 88.4793 Z" fill="#ffffff"/>
			<path d="M 71.3107 87.3529 C 71.1653 87.41 71.0072 87.4422 70.8414 87.4411 C 70.6752 87.4403 70.5176 87.4068 70.3726 87.3479 L 65.8951 93.4013 L 70.7888 97 L 75.7213 93.4547 L 71.3107 87.3529 Z" fill="#ffffff"/>
			<path d="M 70.3997 84.9892 C 70.5411 84.9357 70.6946 84.9054 70.8549 84.9063 C 71.0154 84.9071 71.1684 84.9391 71.3092 84.9943 L 76.2485 78.3163 C 76.0792 78.0997 75.9786 77.8273 75.9806 77.5312 L 65.8108 77.4752 C 65.8092 77.7716 65.7053 78.0429 65.5339 78.2578 L 70.3997 84.9892 Z" fill="#ffffff"/>
		</g>
		<g>
			<path d="M 53.5609 80.8516 C 53.3835 81.0928 53.136 81.2522 52.8676 81.3238 L 52.8429 88.8604 L 57.5124 88.8907 C 57.5123 88.8898 57.512 88.8888 57.5122 88.8864 C 57.5242 88.1869 58.1014 87.6297 58.8009 87.642 C 58.9336 87.6443 59.0616 87.6672 59.1817 87.7072 L 62.3763 78.0848 C 62.2602 78.044 62.1473 77.9854 62.043 77.9084 C 61.9066 77.8082 61.7968 77.6848 61.714 77.5491 L 53.8062 80.0336 C 53.8208 80.3163 53.7416 80.6057 53.5609 80.8516 Z" fill="#ffffff"/>
			<path d="M 43.4862 76.354 C 43.7051 77.0188 43.3444 77.7354 42.6796 77.9547 C 42.6787 77.9549 42.6774 77.9551 42.676 77.9557 L 44.0898 82.4085 L 51.2757 80.1506 C 51.2643 79.8728 51.3433 79.589 51.5211 79.3482 C 51.7018 79.1023 51.9547 78.9407 52.229 78.871 L 52.2559 70.5779 C 52.1014 70.5383 51.9512 70.4701 51.8152 70.3699 C 51.7108 70.2929 51.6215 70.2026 51.5481 70.1032 L 43.3108 76.0092 C 43.3845 76.112 43.4446 76.2275 43.4862 76.354 Z" fill="#ffffff"/>
			<path d="M 52.2213 81.3252 C 52.0702 81.2859 51.9235 81.2187 51.7898 81.1202 C 51.6561 81.0217 51.5483 80.9017 51.4659 80.7687 L 44.2852 83.0248 L 46.1239 88.8163 L 52.197 88.8559 L 52.2213 81.3252 Z" fill="#ffffff"/>
			<path d="M 52.8755 78.8779 C 53.0211 78.9179 53.1632 78.984 53.2922 79.0792 C 53.4214 79.1743 53.5263 79.2901 53.6077 79.4177 L 61.5293 76.9289 C 61.5197 76.654 61.5986 76.3747 61.7744 76.1364 L 53.5864 70.1009 C 53.4108 70.3396 53.1672 70.4975 52.9022 70.5703 L 52.8755 78.8779 Z" fill="#ffffff"/>
		</g>
		<g>
			<path d="M 41.6977 65.6147 C 41.4122 65.7052 41.1185 65.6883 40.8594 65.5882 L 36.4056 71.6658 L 40.1625 74.4408 C 40.1628 74.4402 40.1633 74.4389 40.1647 74.4372 C 40.5859 73.879 41.3803 73.7682 41.9385 74.1903 C 42.0446 74.2705 42.1346 74.3644 42.2081 74.4675 L 50.4517 68.5705 C 50.3815 68.4691 50.3247 68.3554 50.2857 68.2316 C 50.2346 68.0704 50.2184 67.906 50.2312 67.7475 L 42.3771 65.0981 C 42.2227 65.3351 41.9883 65.5225 41.6977 65.6147 Z" fill="#ffffff"/>
			<path d="M 36.1994 56.0449 C 35.9854 56.7109 35.2721 57.0776 34.6058 56.8637 C 34.6049 56.8631 34.6038 56.8625 34.6022 56.8622 L 33.1256 61.2946 L 40.2628 63.7021 C 40.4169 63.4705 40.6476 63.2878 40.9332 63.1977 C 41.2238 63.1055 41.5234 63.1238 41.7861 63.2291 L 46.6867 56.5408 C 46.5852 56.4179 46.5038 56.2743 46.4529 56.1133 C 46.4138 55.9895 46.3948 55.8638 46.3939 55.7405 L 36.2605 55.6626 C 36.2598 55.7891 36.2401 55.9177 36.1994 56.0449 Z" fill="#ffffff"/>
			<path d="M 40.3361 65.2084 C 40.2371 65.0876 40.1578 64.947 40.1079 64.7887 C 40.0579 64.6304 40.0413 64.4698 40.0529 64.3136 L 32.9208 61.9077 L 31 67.6725 L 35.8859 71.2818 L 40.3361 65.2084 Z" fill="#ffffff"/>
			<path d="M 42.3046 63.6153 C 42.399 63.7336 42.4747 63.8707 42.5231 64.0237 C 42.5717 64.1765 42.5883 64.3319 42.579 64.483 L 50.4468 67.1375 C 50.6008 66.9095 50.8289 66.7301 51.1112 66.6411 L 48.043 56.9391 C 47.7607 57.0288 47.4708 57.0128 47.2137 56.9155 L 42.3046 63.6153 Z" fill="#ffffff"/>
		</g>
		<g>
			<path d="M 41.0717 46.3098 C 40.7878 46.2149 40.5602 46.0284 40.4098 45.7947 L 33.2339 48.0841 L 34.6383 52.5402 C 34.6389 52.54 34.64 52.5392 34.6422 52.5388 C 35.311 52.3354 36.0183 52.7139 36.2214 53.3839 C 36.2599 53.5113 36.2775 53.6401 36.2761 53.7668 L 46.4092 53.8557 C 46.4123 53.7323 46.4332 53.6068 46.4745 53.4839 C 46.528 53.3235 46.6116 53.181 46.7153 53.0604 L 41.9249 46.2924 C 41.6605 46.393 41.3608 46.4064 41.0717 46.3098 Z" fill="#ffffff"/>
			<path d="M 42.2571 35.3351 C 41.6923 35.7475 40.9 35.6237 40.4872 35.0583 C 40.4868 35.0575 40.4863 35.0562 40.4851 35.055 L 36.6838 37.7683 L 41.037 43.9183 C 41.2979 43.8221 41.5919 43.8103 41.8757 43.9057 C 42.1648 44.0023 42.3964 44.1936 42.5468 44.4334 L 50.4431 41.9133 C 50.4332 41.7542 50.4519 41.5902 50.5055 41.4302 C 50.5467 41.3068 50.6052 41.1942 50.6771 41.0938 L 42.5313 35.0621 C 42.4563 35.164 42.3649 35.2564 42.2571 35.3351 Z" fill="#ffffff"/>
			<path d="M 40.21 45.1792 C 40.2012 45.0235 40.2198 44.863 40.2725 44.7056 C 40.3252 44.5481 40.4063 44.4086 40.5076 44.2892 L 36.1575 38.1434 L 31.2134 41.6721 L 33.0397 47.4678 L 40.21 45.1792 Z" fill="#ffffff"/>
			<path d="M 42.7386 45.051 C 42.7452 45.2022 42.726 45.3577 42.675 45.5099 C 42.6244 45.6621 42.5463 45.7973 42.45 45.9141 L 47.2485 52.6941 C 47.507 52.6007 47.797 52.5901 48.0775 52.6844 L 51.3051 43.0342 C 51.0241 42.9403 50.7992 42.7568 50.6487 42.5267 L 42.7386 45.051 Z" fill="#ffffff"/>
		</g>
		<g>
			<path d="M 51.923 30.3355 C 51.7493 30.0915 51.675 29.8067 51.6909 29.5293 L 44.5432 27.1532 L 43.057 31.5825 C 43.0575 31.5827 43.0588 31.5827 43.061 31.5838 C 43.7214 31.8132 44.0704 32.5359 43.8403 33.1971 C 43.7964 33.3225 43.7349 33.437 43.6594 33.5389 L 51.7983 39.5795 C 51.8735 39.4814 51.9641 39.3923 52.0699 39.3172 C 52.2075 39.2191 52.3589 39.1532 52.5137 39.1168 L 52.623 30.8239 C 52.3501 30.7496 52.0999 30.5839 51.923 30.3355 Z" fill="#ffffff"/>
			<path d="M 59.3378 22.1622 C 58.6387 22.1628 58.071 21.5959 58.0698 20.8958 C 58.0701 20.895 58.0703 20.8937 58.0702 20.892 L 53.401 20.8461 L 53.3019 28.3819 C 53.5693 28.4578 53.814 28.6214 53.9873 28.8658 C 54.1642 29.1142 54.2388 29.4051 54.2192 29.6876 L 62.085 32.3014 C 62.1707 32.1671 62.2823 32.0456 62.4198 31.948 C 62.5256 31.8722 62.6392 31.8158 62.7563 31.777 L 59.72 22.103 C 59.5995 22.1411 59.4712 22.162 59.3378 22.1622 Z" fill="#ffffff"/>
			<path d="M 51.8916 28.914 C 51.9761 28.7829 52.0854 28.6641 52.2207 28.5679 C 52.3559 28.4717 52.5037 28.4067 52.6558 28.3698 L 52.7548 20.8394 L 46.6823 20.7796 L 44.7488 26.5406 L 51.8916 28.914 Z" fill="#ffffff"/>
			<path d="M 54.011 30.2997 C 53.9273 30.4258 53.8204 30.5403 53.6897 30.6334 C 53.5592 30.7266 53.4165 30.7898 53.2699 30.8275 L 53.1603 39.1349 C 53.424 39.2115 53.6647 39.3736 53.8361 39.6153 L 62.1224 33.7153 C 61.9506 33.4741 61.8767 33.1931 61.8903 32.9184 L 54.011 30.2997 Z" fill="#ffffff"/>
		</g>
	</g>
	<g>
		<path d="M 138.8503 70.574 C 138.4448 70.4435 138.0537 70.371 137.6771 70.371 C 137.1412 70.371 136.6922 70.458 136.33 70.632 C 135.968 70.8059 135.6783 71.0089 135.461 71.2699 C 135.2292 71.5308 135.0699 71.8353 134.983 72.1687 C 134.8961 72.5021 134.8526 72.8356 134.8671 73.1545 C 134.8671 73.5895 134.954 73.9374 135.1278 74.2273 C 135.2872 74.5173 135.4755 74.7492 135.7072 74.9377 C 135.939 75.1262 136.1707 75.2712 136.4315 75.3726 C 136.6777 75.4886 136.895 75.5756 137.0833 75.6481 C 137.344 75.7496 137.6337 75.8511 137.9668 75.9525 C 138.2855 76.054 138.5897 76.1845 138.8793 76.3585 C 139.169 76.5324 139.4008 76.7644 139.6036 77.0398 C 139.8063 77.3153 139.9077 77.6632 139.9077 78.0692 C 139.9077 78.3881 139.8353 78.6635 139.7194 78.9245 C 139.5891 79.1855 139.4153 79.3884 139.2125 79.5479 C 138.9952 79.7219 138.749 79.8523 138.4882 79.9393 C 138.2131 80.0263 137.9233 80.0698 137.6337 80.0698 C 137.344 80.0698 137.0688 80.0408 136.8225 79.9538 C 136.5618 79.8668 136.33 79.7654 136.1128 79.6349 C 135.8955 79.5189 135.7072 79.3739 135.5334 79.2289 C 135.3596 79.084 135.2148 78.9245 135.0699 78.7795 L 134.476 79.3739 C 134.5919 79.5479 134.7657 79.7219 134.983 79.8958 C 135.1858 80.0843 135.432 80.2583 135.7217 80.4032 C 135.9969 80.5627 136.3011 80.6787 136.6487 80.7947 C 136.9819 80.8817 137.344 80.9397 137.735 80.9397 C 138.1551 80.9397 138.5462 80.8672 138.9228 80.7512 C 139.2994 80.6062 139.618 80.4322 139.9077 80.1713 C 140.1974 79.9103 140.4147 79.6059 140.5885 79.2579 C 140.7479 78.91 140.8347 78.5041 140.8347 78.0547 C 140.8347 77.5327 140.7189 77.0833 140.5016 76.7354 C 140.2698 76.3875 139.9946 76.083 139.6615 75.8366 C 139.3284 75.5901 138.9662 75.3871 138.5897 75.2422 C 138.1985 75.0972 137.851 74.9522 137.5323 74.8362 C 137.3005 74.7637 137.0688 74.6768 136.866 74.5898 C 136.6487 74.5028 136.4604 74.4013 136.3011 74.2708 C 136.1418 74.1404 136.0114 73.9809 135.9245 73.7924 C 135.8231 73.6184 135.7796 73.3865 135.7796 73.1255 C 135.7796 72.8791 135.8086 72.6471 135.8955 72.4152 C 135.9824 72.1977 136.0983 72.0092 136.2576 71.8353 C 136.4025 71.6613 136.6053 71.5308 136.837 71.4293 C 137.0688 71.3279 137.3585 71.2699 137.6771 71.2699 C 137.9089 71.2699 138.1262 71.2989 138.3289 71.3568 C 138.5317 71.4148 138.7055 71.4728 138.8793 71.5453 C 139.0532 71.6323 139.198 71.7193 139.3284 71.8063 C 139.4587 71.9078 139.5746 71.9947 139.6615 72.0672 C 139.7484 71.9657 139.8208 71.8498 139.9077 71.7338 C 139.9946 71.6178 140.0815 71.5018 140.1829 71.3858 C 139.6905 70.9799 139.2559 70.719 138.8503 70.574 L 138.8503 70.574 Z" fill="#ffffff"/>
		<path d="M 149.2706 78.5766 C 149.1691 78.823 149.0243 79.0405 148.8505 79.2144 C 148.6767 79.4029 148.4594 79.5479 148.2132 79.6494 C 147.9669 79.7654 147.6917 79.8089 147.402 79.8089 C 147.1124 79.8089 146.8516 79.7654 146.6054 79.6494 C 146.3447 79.5479 146.1419 79.4029 145.9681 79.2144 C 145.7943 79.0405 145.6494 78.823 145.548 78.5766 C 145.4321 78.3446 145.3887 78.0692 145.3887 77.7792 C 145.3887 77.5182 145.4321 77.2573 145.548 77.0108 C 145.6494 76.7789 145.7943 76.5614 145.9681 76.3875 C 146.1419 76.2135 146.3447 76.0685 146.6054 75.9525 C 146.8516 75.8511 147.1124 75.7931 147.402 75.7931 C 147.6917 75.7931 147.9669 75.8511 148.2132 75.9525 C 148.4594 76.0685 148.6767 76.2135 148.8505 76.3875 C 149.0243 76.5614 149.1691 76.7789 149.2706 77.0108 C 149.3719 77.2573 149.4299 77.5182 149.4299 77.7792 C 149.4299 78.0692 149.3719 78.3446 149.2706 78.5766 L 149.2706 78.5766 ZM 150.1251 76.7644 C 149.9658 76.4164 149.763 76.112 149.5023 75.8511 C 149.2416 75.5901 148.9229 75.3871 148.5608 75.2422 C 148.1987 75.0972 147.8076 75.0102 147.402 75.0102 C 147.1268 75.0102 146.8661 75.0537 146.6343 75.1262 C 146.3881 75.2132 146.1708 75.3146 145.9825 75.4306 C 145.7943 75.5466 145.6349 75.6771 145.519 75.7931 C 145.3887 75.9235 145.3163 76.0395 145.2873 76.1265 C 145.2728 75.9525 145.2583 75.7931 145.2583 75.6191 C 145.2438 75.4451 145.2438 75.2857 145.2438 75.1117 L 144.4761 75.1117 L 144.4761 84.2885 L 145.4032 84.2885 L 145.4032 80.1568 C 145.3742 80.0843 145.3597 80.0118 145.3452 79.9393 C 145.3163 79.8668 145.3018 79.7943 145.2873 79.7074 C 145.3163 79.8233 145.3887 79.9248 145.5046 80.0408 C 145.6204 80.1568 145.7653 80.2728 145.9391 80.3887 C 146.1129 80.5047 146.3302 80.5772 146.5909 80.6642 C 146.8372 80.7367 147.1124 80.7802 147.402 80.7802 C 147.8076 80.7802 148.1987 80.6932 148.5608 80.5482 C 148.9229 80.4032 149.2416 80.1858 149.5023 79.9248 C 149.763 79.6639 149.9658 79.3449 150.1251 78.997 C 150.27 78.649 150.3569 78.2721 150.3569 77.8662 C 150.3569 77.4893 150.27 77.1123 150.1251 76.7644 L 150.1251 76.7644 Z" fill="#ffffff"/>
		<path d="M 154.1866 77.0108 C 154.288 76.7644 154.4329 76.5469 154.6066 76.373 C 154.7805 76.199 154.9977 76.054 155.244 75.938 C 155.4902 75.8366 155.7654 75.7786 156.0551 75.7786 C 156.3448 75.7786 156.6055 75.8366 156.8517 75.938 C 157.098 76.054 157.3152 76.199 157.4891 76.373 C 157.6629 76.5469 157.8077 76.7644 157.9091 77.0108 C 158.0105 77.2573 158.0684 77.5182 158.0684 77.7792 C 158.0684 78.0692 158.0105 78.3446 157.9091 78.5766 C 157.8077 78.823 157.6629 79.0405 157.4891 79.2144 C 157.3152 79.3884 157.098 79.5334 156.8517 79.6349 C 156.6055 79.7509 156.3448 79.7943 156.0551 79.7943 C 155.7654 79.7943 155.4902 79.7509 155.244 79.6349 C 154.9977 79.5334 154.7805 79.3884 154.6066 79.2144 C 154.4329 79.0405 154.288 78.823 154.1866 78.5766 C 154.0852 78.3446 154.0417 78.0692 154.0417 77.7792 C 154.0417 77.5182 154.0852 77.2573 154.1866 77.0108 L 154.1866 77.0108 ZM 153.332 78.881 C 153.4769 79.2289 153.6941 79.5189 153.9548 79.7654 C 154.2156 80.0263 154.5197 80.2148 154.8818 80.3597 C 155.244 80.5047 155.6351 80.5772 156.0551 80.5772 C 156.3448 80.5772 156.62 80.5482 156.8662 80.4757 C 157.1125 80.4032 157.3297 80.3163 157.518 80.2148 C 157.6918 80.1133 157.8367 79.9973 157.9526 79.8813 C 158.0684 79.7654 158.1409 79.6494 158.1699 79.5479 L 158.1699 79.9248 L 158.1699 80.5047 L 158.9955 80.5047 L 158.9955 75.0827 L 158.2278 75.0827 L 158.1843 75.5901 C 158.1699 75.7641 158.1699 75.9235 158.1699 76.083 C 158.1409 75.996 158.054 75.88 157.9381 75.7641 C 157.8222 75.6481 157.6629 75.5321 157.4746 75.4161 C 157.2863 75.3001 157.069 75.2132 156.8373 75.1262 C 156.591 75.0537 156.3303 75.0102 156.0551 75.0102 C 155.6351 75.0102 155.244 75.0972 154.8818 75.2422 C 154.5197 75.3871 154.2156 75.5901 153.9548 75.8511 C 153.6941 76.112 153.4769 76.4019 153.332 76.7354 C 153.1727 77.0833 153.1003 77.4313 153.1003 77.8082 C 153.1003 78.1851 153.1727 78.5476 153.332 78.881 L 153.332 78.881 Z" fill="#ffffff"/>
		<path d="M 170.4353 76.373 C 170.8119 76.0105 171.2899 75.8221 171.8838 75.7931 C 172.1735 76.286 172.4777 76.7789 172.7818 77.2718 C 173.0715 77.7647 173.3757 78.2431 173.6799 78.736 C 173.506 79.055 173.2743 79.3159 172.9701 79.5189 C 172.6514 79.7219 172.2894 79.8089 171.8838 79.8089 C 171.5941 79.8089 171.3334 79.7654 171.0871 79.6494 C 170.8264 79.5479 170.6236 79.4029 170.4498 79.2144 C 170.276 79.0405 170.1312 78.823 170.0298 78.5766 C 169.9283 78.3446 169.8849 78.0692 169.8849 77.7792 C 169.8849 77.1993 170.0587 76.7354 170.4353 76.373 L 170.4353 76.373 ZM 174.8821 76.4164 C 174.8965 76.2135 174.94 76.0685 174.9979 75.9525 C 175.0559 75.8366 175.1283 75.7641 175.2297 75.7061 C 175.3311 75.6626 175.4614 75.6336 175.6063 75.6336 L 176.316 75.6336 L 176.316 74.7347 L 175.6642 74.7347 L 175.1138 74.7347 C 174.94 74.7347 174.7662 74.7637 174.6213 74.8217 C 174.4765 74.8797 174.3461 74.9812 174.2303 75.1262 C 174.1144 75.2712 174.042 75.4886 173.9985 75.7786 L 173.9985 76.083 C 173.9695 76.228 173.9406 76.3875 173.9116 76.5324 C 173.8826 76.6919 173.8392 76.8659 173.7957 77.0398 C 173.3467 76.315 172.8977 75.5901 172.4631 74.8652 C 172.0286 74.1549 171.5796 73.43 171.1451 72.7051 C 170.8843 72.2702 170.7685 71.8353 170.8264 71.3858 C 170.8843 70.9364 171.1451 70.5595 171.623 70.2695 C 171.7824 70.1681 171.9562 70.1101 172.159 70.0811 C 172.3473 70.0666 172.5356 70.0811 172.7239 70.1246 C 172.9122 70.1826 173.1005 70.2405 173.2743 70.3275 C 173.4481 70.4145 173.6074 70.487 173.7523 70.5595 C 173.8102 70.4435 173.8682 70.3275 173.9406 70.1971 C 173.9985 70.0811 174.0709 69.9506 174.1289 69.8346 C 173.9261 69.7186 173.7088 69.6172 173.4771 69.5012 C 173.2308 69.3852 172.9701 69.3127 172.6949 69.2547 C 172.4197 69.1967 172.1445 69.1967 171.8548 69.2257 C 171.5651 69.2547 171.2755 69.3562 171.0002 69.5302 C 170.6671 69.7331 170.4064 69.9651 170.2325 70.2261 C 170.0443 70.5015 169.9283 70.7915 169.8849 71.0959 C 169.827 71.4003 169.8414 71.7048 169.9139 72.0237 C 169.9863 72.3427 170.1166 72.6471 170.3049 72.9371 L 170.8264 73.8069 C 171.0002 74.0969 171.174 74.3723 171.3478 74.6623 C 171.0002 74.7203 170.6816 74.8362 170.3918 75.0102 C 170.1022 75.1842 169.8414 75.4016 169.6387 75.6481 C 169.4214 75.909 169.2476 76.1845 169.1317 76.5034 C 169.0158 76.8224 168.9579 77.1558 168.9579 77.5038 C 168.9579 77.9097 169.0303 78.3011 169.1752 78.649 C 169.32 78.997 169.5373 79.3014 169.8125 79.5624 C 170.0732 79.8233 170.3918 80.0408 170.7395 80.1858 C 171.0871 80.3452 171.4782 80.4177 171.8838 80.4177 C 172.3473 80.4177 172.7818 80.3307 173.1874 80.1278 C 173.593 79.9393 173.9261 79.6639 174.2158 79.3159 C 174.3317 79.5334 174.462 79.7509 174.5924 79.9538 C 174.7083 80.1713 174.8386 80.3743 174.9835 80.5772 C 175.0994 80.5047 175.2297 80.4322 175.3456 80.3452 C 175.4614 80.2728 175.5773 80.2003 175.7077 80.1133 C 175.5339 79.8233 175.36 79.5479 175.1862 79.2724 C 175.0125 78.997 174.8386 78.707 174.6648 78.4171 C 174.7807 78.1272 174.8531 77.8372 174.8531 77.5327 L 174.8531 77.1848 C 174.8531 76.8659 174.8531 76.6194 174.8821 76.4164 L 174.8821 76.4164 Z" fill="#ffffff"/>
		<path d="M 188.625 71.0814 C 189.2479 71.0814 189.7548 71.2264 190.1603 71.5018 C 190.5515 71.7918 190.7542 72.2557 190.7542 72.9081 C 190.7542 73.5025 190.5659 73.9809 190.1893 74.3578 C 189.8127 74.7347 189.3058 74.9087 188.6685 74.9087 L 186.8868 74.9087 L 186.8868 71.0814 L 188.625 71.0814 L 188.625 71.0814 ZM 188.6829 75.7931 C 189.0016 75.7931 189.3347 75.8366 189.6534 75.909 C 189.972 75.996 190.2618 76.112 190.5225 76.2715 C 190.7687 76.431 190.9715 76.6339 191.1163 76.8949 C 191.2612 77.1558 191.3481 77.4458 191.3481 77.7792 C 191.3481 78.0981 191.2757 78.3881 191.1453 78.6201 C 191.015 78.8665 190.8411 79.0695 190.6238 79.2289 C 190.3921 79.3884 190.1314 79.5044 189.8417 79.5914 C 189.552 79.6784 189.2333 79.7074 188.9002 79.7074 L 187.0897 79.7074 L 187.0897 75.7931 L 188.6829 75.7931 L 188.6829 75.7931 ZM 188.3932 80.5772 C 188.8133 80.5772 189.2189 80.5192 189.6245 80.4032 C 190.0155 80.2873 190.3632 80.1278 190.6818 79.8958 C 190.986 79.6784 191.2322 79.4029 191.406 79.0695 C 191.5798 78.7505 191.6812 78.3591 191.6812 77.9097 C 191.6812 77.5618 191.6233 77.2283 191.5074 76.9384 C 191.3915 76.6484 191.2322 76.4019 191.0294 76.1845 C 190.8267 75.967 190.5949 75.7931 190.3342 75.6481 C 190.0735 75.5176 189.7983 75.4161 189.5085 75.3581 C 190.1169 75.1842 190.5659 74.8652 190.8701 74.4013 C 191.1598 73.9374 191.3192 73.401 191.3192 72.7776 C 191.3192 72.3282 191.2322 71.9367 191.0874 71.6033 C 190.928 71.2844 190.7108 71.0089 190.4355 70.8059 C 190.1459 70.603 189.8127 70.4435 189.4216 70.342 C 189.0306 70.2405 188.596 70.1826 188.1325 70.1826 L 185.5977 70.1826 L 185.5977 80.5772 L 188.3932 80.5772 L 188.3932 80.5772 Z" fill="#ffffff"/>
		<path d="M 199.2914 76.025 C 199.5377 76.1845 199.7404 76.3875 199.8853 76.6484 C 199.3204 76.8659 198.7555 77.0833 198.1906 77.2863 L 196.4959 77.9387 L 196.4959 77.6342 C 196.4959 77.5472 196.5104 77.4458 196.5394 77.3443 C 196.6263 76.9094 196.8435 76.5324 197.2056 76.228 C 197.5533 75.938 197.9878 75.7786 198.4948 75.7786 C 198.7845 75.7786 199.0452 75.8655 199.2914 76.025 L 199.2914 76.025 ZM 200.6819 76.054 C 200.5081 75.7641 200.3198 75.5176 200.1025 75.3146 C 199.8708 75.1117 199.6246 74.9667 199.3494 74.8507 C 199.0742 74.7347 198.7845 74.6768 198.4948 74.6768 C 198.0892 74.6768 197.6981 74.7637 197.3505 74.9087 C 196.9884 75.0682 196.6697 75.2712 196.409 75.5321 C 196.1483 75.7931 195.931 76.112 195.7861 76.4599 C 195.6268 76.8224 195.5544 77.1993 195.5544 77.5762 C 195.5544 77.9822 195.6268 78.3736 195.7861 78.7215 C 195.931 79.0695 196.1483 79.3739 196.409 79.6349 C 196.6697 79.8958 196.9884 80.1133 197.3505 80.2583 C 197.6981 80.4177 198.0892 80.4902 198.4948 80.4902 C 198.8713 80.4902 199.219 80.4322 199.5377 80.2873 C 199.8563 80.1568 200.146 79.9683 200.4067 79.7074 C 200.2908 79.6059 200.1895 79.4899 200.1025 79.3739 C 200.0156 79.2579 199.9287 79.1565 199.8419 79.0405 C 199.668 79.2144 199.4652 79.3449 199.2335 79.4464 C 199.0017 79.5479 198.7555 79.5914 198.4948 79.5914 C 198.1037 79.5914 197.756 79.5044 197.4519 79.3304 C 197.1477 79.1565 196.916 78.91 196.7567 78.6056 L 201.073 76.9529 C 200.9861 76.6339 200.8558 76.344 200.6819 76.054 L 200.6819 76.054 Z" fill="#ffffff"/>
		<path d="M 204.8013 77.0108 C 204.9027 76.7644 205.0475 76.5469 205.2214 76.373 C 205.3952 76.199 205.6124 76.054 205.8587 75.938 C 206.1049 75.8366 206.3801 75.7786 206.6698 75.7786 C 206.9595 75.7786 207.2202 75.8366 207.4665 75.938 C 207.7127 76.054 207.93 76.199 208.1038 76.373 C 208.2776 76.5469 208.4224 76.7644 208.5238 77.0108 C 208.6252 77.2573 208.6832 77.5182 208.6832 77.7792 C 208.6832 78.0692 208.6252 78.3446 208.5238 78.5766 C 208.4224 78.823 208.2776 79.0405 208.1038 79.2144 C 207.93 79.3884 207.7127 79.5334 207.4665 79.6349 C 207.2202 79.7509 206.9595 79.7943 206.6698 79.7943 C 206.3801 79.7943 206.1049 79.7509 205.8587 79.6349 C 205.6124 79.5334 205.3952 79.3884 205.2214 79.2144 C 205.0475 79.0405 204.9027 78.823 204.8013 78.5766 C 204.6999 78.3446 204.6565 78.0692 204.6565 77.7792 C 204.6565 77.5182 204.6999 77.2573 204.8013 77.0108 L 204.8013 77.0108 ZM 203.9467 78.881 C 204.0916 79.2289 204.3088 79.5189 204.5696 79.7654 C 204.8303 80.0263 205.1345 80.2148 205.4966 80.3597 C 205.8587 80.5047 206.2498 80.5772 206.6698 80.5772 C 206.9595 80.5772 207.2347 80.5482 207.481 80.4757 C 207.7272 80.4032 207.9445 80.3163 208.1328 80.2148 C 208.3066 80.1133 208.4514 79.9973 208.5673 79.8813 C 208.6832 79.7654 208.7556 79.6494 208.7845 79.5479 L 208.7845 79.9248 L 208.7845 80.5047 L 209.6102 80.5047 L 209.6102 75.0827 L 208.8425 75.0827 L 208.799 75.5901 C 208.7845 75.7641 208.7845 75.9235 208.7845 76.083 C 208.7556 75.996 208.6687 75.88 208.5528 75.7641 C 208.437 75.6481 208.2776 75.5321 208.0893 75.4161 C 207.901 75.3001 207.6837 75.2132 207.452 75.1262 C 207.2057 75.0537 206.945 75.0102 206.6698 75.0102 C 206.2498 75.0102 205.8587 75.0972 205.4966 75.2422 C 205.1345 75.3871 204.8303 75.5901 204.5696 75.8511 C 204.3088 76.112 204.0916 76.4019 203.9467 76.7354 C 203.7874 77.0833 203.715 77.4313 203.715 77.8082 C 203.715 78.1851 203.7874 78.5476 203.9467 78.881 L 203.9467 78.881 Z" fill="#ffffff"/>
		<path d="M 217.4956 75.0102 L 216.5686 75.0102 L 216.5686 77.8807 C 216.5686 78.1561 216.5106 78.4026 216.3948 78.6346 C 216.2789 78.8665 216.134 79.0695 215.9457 79.2435 C 215.743 79.4174 215.5257 79.5624 215.265 79.6494 C 215.0043 79.7509 214.7291 79.7943 214.4683 79.7943 C 214.0627 79.7798 213.7731 79.6639 213.5848 79.4464 C 213.382 79.2435 213.2806 78.9825 213.2661 78.678 L 213.2661 75.0102 L 212.3246 75.0102 L 212.3246 79.0405 C 212.3391 79.5334 212.5129 79.9393 212.8461 80.2438 C 213.1792 80.5482 213.6282 80.6932 214.1931 80.6932 C 214.7291 80.6932 215.2215 80.5627 215.6561 80.2728 C 216.0906 79.9973 216.4092 79.6204 216.612 79.142 L 216.5686 79.8089 L 216.5686 80.6642 L 217.4956 80.6642 L 217.4956 75.0102 L 217.4956 75.0102 Z" fill="#ffffff"/>
		<path d="M 221.586 74.9522 L 220.3259 74.9522 L 220.3259 75.8511 L 221.586 75.8511 L 221.586 80.5772 L 222.4985 80.5772 L 222.4985 75.8511 L 224.0918 75.8511 L 224.0918 74.9522 L 222.4985 74.9522 L 222.4985 71.3858 L 221.586 71.3858 L 221.586 74.9522 L 221.586 74.9522 Z" fill="#ffffff"/>
		<path d="M 230.6736 79.6494 L 232.9911 75.0102 L 232.0641 75.0102 C 231.673 75.7931 231.2675 76.5759 230.8474 77.3588 C 230.4129 78.1561 230.0508 78.9535 229.7321 79.7509 C 229.4135 78.9535 229.0369 78.1561 228.6168 77.3588 C 228.1823 76.5759 227.7767 75.7931 227.3856 75.0102 L 226.4586 75.0102 L 227.8491 77.8082 C 228.3126 78.736 228.7761 79.6639 229.2542 80.5917 C 228.9355 81.2151 228.6313 81.824 228.3271 82.4474 C 228.0229 83.0418 227.7188 83.6507 227.4001 84.2885 L 228.3561 84.2885 C 229.1238 82.7228 229.8915 81.1861 230.6736 79.6494 L 230.6736 79.6494 Z" fill="#ffffff"/>
	</g>
	<g>
		<path d="M 142.2886 31.9245 C 142.7231 32.9538 143.1577 33.9831 143.6067 35.0124 L 137.6825 35.0124 C 138.204 33.7656 138.7254 32.5333 139.2758 31.3156 C 139.8262 30.0978 140.2753 28.8365 140.6374 27.5317 L 140.985 28.822 C 141.4196 29.8658 141.8541 30.8951 142.2886 31.9245 L 142.2886 31.9245 ZM 146.6774 34.3745 L 140.6374 20.1091 L 134.6118 34.3745 C 132.6129 39.1007 130.5996 43.9138 128.5717 48.785 L 131.8018 48.785 C 132.555 47.0018 133.3082 45.1751 134.0759 43.3194 C 134.8435 41.4638 135.6112 39.6371 136.3644 37.8394 L 144.9248 37.8394 C 145.678 39.6371 146.4312 41.4638 147.1989 43.3194 C 147.9521 45.1751 148.7198 47.0018 149.473 48.785 L 152.7175 48.785 C 150.6896 43.9138 148.6763 39.1007 146.6774 34.3745 L 146.6774 34.3745 Z" fill="#ffffff"/>
		<path d="M 161.4083 31.0836 C 161.9587 29.7498 162.7263 28.59 163.7113 27.5897 C 164.6818 26.6039 165.8115 25.821 167.1006 25.2411 C 168.3753 24.6612 169.7658 24.3713 171.2433 24.3713 C 172.7207 24.3713 174.0967 24.6612 175.4003 25.2411 C 176.7039 25.821 177.8337 26.6039 178.8187 27.5897 C 179.7892 28.59 180.5568 29.7498 181.1362 31.0836 C 181.7011 32.4174 181.9908 33.8091 181.9908 35.2879 C 181.9908 36.7666 181.7011 38.1728 181.1362 39.4921 C 180.5568 40.8259 179.7892 41.9712 178.8187 42.9425 C 177.8337 43.9283 176.7039 44.6967 175.4003 45.2621 C 174.0967 45.842 172.7207 46.1174 171.2433 46.1174 C 169.7658 46.1174 168.3753 45.842 167.1006 45.2621 C 165.8115 44.6967 164.6818 43.9283 163.7113 42.9425 C 162.7263 41.9712 161.9587 40.8259 161.4083 39.4921 C 160.8578 38.1728 160.5826 36.7666 160.5826 35.2879 C 160.5826 33.8091 160.8578 32.4174 161.4083 31.0836 L 161.4083 31.0836 ZM 158.4389 40.391 C 159.1631 42.0727 160.1481 43.5514 161.4083 44.8127 C 162.6684 46.0739 164.1458 47.0743 165.826 47.7991 C 167.5062 48.524 169.3168 48.8864 171.2433 48.8864 C 172.1703 48.8864 173.1407 48.785 174.1257 48.5675 L 186.0754 48.5675 L 186.0754 45.494 L 180.3541 45.494 C 181.8315 44.2183 183.0048 42.6815 183.8883 40.8549 C 184.7719 39.0427 185.2209 37.0855 185.2209 34.9689 C 185.2209 33.0553 184.8443 31.2431 184.1055 29.5324 C 183.3668 27.8362 182.3674 26.3574 181.1072 25.0962 C 179.8471 23.8349 178.3697 22.8346 176.675 22.0952 C 174.9658 21.3558 173.1552 20.9789 171.2433 20.9789 C 169.3168 20.9789 167.5062 21.3558 165.826 22.0952 C 164.1458 22.8346 162.6684 23.8349 161.4083 25.0962 C 160.1481 26.3574 159.1631 27.8362 158.4389 29.5324 C 157.7147 31.2431 157.3525 33.0553 157.3525 34.9689 C 157.3525 36.8971 157.7147 38.7093 158.4389 40.391 L 158.4389 40.391 Z" fill="#ffffff"/>
		<path d="M 204.0363 48.3065 C 205.2241 47.9151 206.267 47.3352 207.1505 46.5669 C 208.0341 45.7985 208.7293 44.8417 209.2363 43.6964 C 209.7432 42.5656 210.004 41.2463 210.004 39.7676 L 210.004 21.2833 L 206.7739 21.2833 L 206.7739 39.6371 C 206.7739 40.6374 206.6001 41.5218 206.267 42.2756 C 205.9193 43.044 205.4558 43.6819 204.8764 44.2038 C 204.2971 44.7257 203.6018 45.1316 202.7906 45.3926 C 201.9795 45.668 201.1104 45.7985 200.1545 45.7985 C 199.184 45.7985 198.3004 45.668 197.5038 45.3926 C 196.6926 45.1316 195.9974 44.7257 195.418 44.2038 C 194.8386 43.6819 194.3751 43.044 194.0565 42.2756 C 193.7233 41.5218 193.564 40.6374 193.564 39.6371 L 193.564 21.2833 L 190.3339 21.2833 L 190.3339 39.7676 C 190.3339 41.2463 190.5801 42.5656 191.0726 43.6964 C 191.5651 44.8417 192.2459 45.7985 193.1295 46.5669 C 194.013 47.3352 195.0559 47.9151 196.2581 48.3065 C 197.4459 48.698 198.7495 48.8864 200.1545 48.8864 C 201.545 48.8864 202.8486 48.698 204.0363 48.3065 L 204.0363 48.3065 Z" fill="#ffffff"/>
		<path d="M 228.5007 31.9245 C 228.9353 32.9538 229.3698 33.9831 229.8188 35.0124 L 223.8947 35.0124 C 224.4161 33.7656 224.9376 32.5333 225.488 31.3156 C 226.0384 30.0978 226.4874 28.8365 226.8495 27.5317 L 227.1971 28.822 C 227.6317 29.8658 228.0662 30.8951 228.5007 31.9245 L 228.5007 31.9245 ZM 232.8896 34.3745 L 226.8495 20.1091 L 220.8239 34.3745 C 218.8251 39.1007 216.8117 43.9138 214.7839 48.785 L 218.0139 48.785 C 218.7672 47.0018 219.5203 45.1751 220.288 43.3194 C 221.0557 41.4638 221.8234 39.6371 222.5765 37.8394 L 231.137 37.8394 C 231.8901 39.6371 232.6433 41.4638 233.411 43.3194 C 234.1642 45.1751 234.9319 47.0018 235.6851 48.785 L 238.9296 48.785 C 236.9018 43.9138 234.8884 39.1007 232.8896 34.3745 L 232.8896 34.3745 Z" fill="#ffffff"/>
	</g>
	<rect x="134" y="61" width="100" height="1" fill="#ffffff"/>
</svg>