<?xml version="1.0" standalone="no"?>
<!-- Generator: Adobe Fireworks 10, Export SVG Extension by Aaron Beall (http://fireworks.abeall.com) . Version: 0.6.1  -->
<!DOCTYPE svg PUBLIC "-//W3C//DTD SVG 1.1//EN" "http://www.w3.org/Graphics/SVG/1.1/DTD/svg11.dtd">
<svg id="Untitled-Page%201" viewBox="0 0 210 85" style="background-color:#ffffff00" version="1.1"
	xmlns="http://www.w3.org/2000/svg" xmlns:xlink="http://www.w3.org/1999/xlink" xml:space="preserve"
	x="0px" y="0px" width="210px" height="85px"
>
	<g id="Layer%201">
		<path d="M 39.7517 10.8262 C 39.7517 10.5264 39.8562 10.2515 40.0301 10.0345 L 35.5824 3.952 L 31.805 6.6982 C 31.8057 6.6993 31.8066 6.7003 31.8075 6.7014 C 32.2124 7.2721 32.0784 8.0634 31.5079 8.4686 C 31.3994 8.5457 31.2828 8.603 31.1625 8.6417 L 34.294 18.2854 C 34.4119 18.2491 34.5371 18.2294 34.6669 18.2294 C 34.8361 18.2294 34.9973 18.2632 35.1451 18.3235 L 40.0392 11.6302 C 39.8596 11.4114 39.7517 11.1314 39.7517 10.8262 Z" fill="#84c340"/>
		<path d="M 50.529 8.4686 C 49.9586 8.0634 49.8244 7.2721 50.2294 6.7014 C 50.2303 6.7003 50.2312 6.6993 50.2319 6.6982 L 46.4545 3.952 L 42.0068 10.0345 C 42.1807 10.2515 42.2852 10.5264 42.2852 10.8262 C 42.2852 11.1314 42.1772 11.4114 41.9977 11.6302 L 46.8918 18.3235 C 47.0395 18.2632 47.2008 18.2294 47.3701 18.2294 C 47.4998 18.2294 47.625 18.2491 47.7429 18.2854 L 50.8745 8.6417 C 50.7541 8.603 50.6375 8.5457 50.529 8.4686 Z" fill="#84c340"/>
		<path d="M 40.5493 9.6495 C 40.6944 9.5915 40.8526 9.5587 41.0184 9.5587 C 41.1843 9.5587 41.3424 9.5915 41.4876 9.6495 L 45.9317 3.5719 L 41.0184 0 L 36.1053 3.5719 L 40.5493 9.6495 Z" fill="#84c340"/>
		<path d="M 41.4733 12.0081 C 41.3319 12.0627 41.179 12.0937 41.0184 12.0937 C 40.8579 12.0937 40.705 12.0627 40.5637 12.0081 L 35.661 18.7129 C 35.8313 18.9288 35.9337 19.2007 35.9337 19.4969 L 46.1032 19.4969 C 46.1032 19.2007 46.2056 18.9288 46.3759 18.7129 L 41.4733 12.0081 Z" fill="#84c340"/>
		<path d="M 58.3345 16.0538 C 58.5109 15.8115 58.7571 15.6507 59.0253 15.5778 L 59.0084 8.041 L 54.3392 8.036 C 54.339 8.0373 54.3393 8.0385 54.3392 8.0402 C 54.3308 8.7399 53.757 9.3005 53.0575 9.2921 C 52.9243 9.2906 52.7965 9.2683 52.6763 9.2287 L 49.5343 18.8688 C 49.6509 18.9088 49.7637 18.9669 49.8688 19.0431 C 50.0056 19.1429 50.116 19.2654 50.1998 19.4009 L 58.0939 16.873 C 58.0774 16.5903 58.1548 16.3005 58.3345 16.0538 Z" fill="#84c340"/>
		<path d="M 68.4335 20.496 C 68.211 19.8325 68.5679 19.1138 69.231 18.8911 C 69.2325 18.8907 69.2338 18.8905 69.235 18.8899 L 67.797 14.4449 L 60.6231 16.7419 C 60.636 17.02 60.559 17.304 60.3826 17.546 C 60.2029 17.7927 59.9509 17.9557 59.6771 18.0266 L 59.6957 26.3201 C 59.8506 26.3585 60.0009 26.426 60.1376 26.5258 C 60.2426 26.6022 60.3321 26.6919 60.4059 26.7906 L 68.6109 20.8395 C 68.5365 20.7372 68.476 20.6223 68.4335 20.496 Z" fill="#84c340"/>
		<path d="M 59.6715 15.5724 C 59.8231 15.6111 59.9701 15.6776 60.1042 15.7753 C 60.2382 15.873 60.3468 15.9925 60.43 16.1251 L 67.5981 13.8298 L 65.7277 8.0482 L 59.6547 8.0419 L 59.6715 15.5724 Z" fill="#84c340"/>
		<path d="M 59.0307 18.0234 C 58.8845 17.9843 58.7426 17.919 58.6128 17.8245 C 58.483 17.73 58.3777 17.6148 58.2954 17.4875 L 50.3878 20.0198 C 50.3985 20.2945 50.3212 20.5745 50.1469 20.8138 L 58.3678 26.8043 C 58.5421 26.5647 58.7849 26.4052 59.0494 26.3311 L 59.0307 18.0234 Z" fill="#84c340"/>
		<path d="M 70.2809 31.2252 C 70.5659 31.1335 70.8597 31.1486 71.1193 31.2475 L 75.5396 25.1451 L 71.7681 22.3907 C 71.7672 22.3917 71.7669 22.3928 71.7657 22.3943 C 71.3472 22.9548 70.5536 23.07 69.9931 22.6511 C 69.8864 22.5715 69.7962 22.4781 69.7223 22.3753 L 61.5108 28.3174 C 61.5817 28.4184 61.6388 28.5319 61.6788 28.6554 C 61.7307 28.8167 61.7479 28.9807 61.7358 29.1396 L 69.6044 31.746 C 69.7575 31.5077 69.9905 31.3191 70.2809 31.2252 Z" fill="#84c340"/>
		<path d="M 75.8312 40.765 C 76.0417 40.0974 76.753 39.727 77.42 39.9375 C 77.4215 39.9379 77.4226 39.9385 77.4241 39.9387 L 78.8766 35.4984 L 71.7262 33.1299 C 71.573 33.3622 71.3436 33.5462 71.0585 33.638 C 70.7683 33.7319 70.4687 33.715 70.2056 33.6111 L 65.3414 40.326 C 65.4441 40.4485 65.5258 40.5917 65.5776 40.7527 C 65.6174 40.8763 65.6371 41.0017 65.6389 41.1251 L 75.7726 41.1472 C 75.7726 41.0207 75.7913 40.8921 75.8312 40.765 Z" fill="#84c340"/>
		<path d="M 71.6449 31.6239 C 71.7447 31.7443 71.8244 31.8847 71.8753 32.0428 C 71.9261 32.2007 71.9437 32.3611 71.9328 32.5173 L 79.0777 34.8842 L 80.967 29.1089 L 76.0616 25.5266 L 71.6449 31.6239 Z" fill="#84c340"/>
		<path d="M 69.685 33.2277 C 69.5898 33.1101 69.5134 32.9737 69.4641 32.8208 C 69.4148 32.668 69.3974 32.5127 69.4058 32.3615 L 61.5238 29.7507 C 61.3707 29.9791 61.1436 30.1597 60.8619 30.2506 L 63.9831 39.9353 C 64.265 39.8444 64.5551 39.8585 64.8126 39.9545 L 69.685 33.2277 Z" fill="#84c340"/>
		<path d="M 71.0124 50.5265 C 71.2968 50.62 71.5255 50.8054 71.6771 51.0382 L 78.8405 48.709 L 77.4121 44.2607 C 77.4108 44.2611 77.41 44.2618 77.4081 44.2624 C 76.7401 44.4691 76.0308 44.0947 75.824 43.4259 C 75.7846 43.2987 75.7668 43.1699 75.7673 43.0434 L 65.6337 43.0099 C 65.6315 43.1333 65.611 43.2587 65.5705 43.3821 C 65.5177 43.5429 65.4351 43.6856 65.332 43.8071 L 70.1592 50.5488 C 70.4231 50.4465 70.7226 50.4314 71.0124 50.5265 Z" fill="#84c340"/>
		<path d="M 69.887 61.5075 C 70.4498 61.0918 71.2427 61.2111 71.6581 61.7744 C 71.6591 61.7757 71.6595 61.7768 71.6606 61.7778 L 75.447 59.0438 L 71.0604 52.9174 C 70.7998 53.0151 70.5061 53.0285 70.2216 52.9349 C 69.9319 52.8399 69.6995 52.6498 69.5479 52.4107 L 61.6654 54.9738 C 61.6763 55.1331 61.6581 55.2973 61.6055 55.4577 C 61.5649 55.5811 61.507 55.6943 61.4357 55.7949 L 69.6145 61.7818 C 69.689 61.6797 69.7798 61.5867 69.887 61.5075 Z" fill="#84c340"/>
		<path d="M 71.8806 51.6523 C 71.8902 51.8082 71.8722 51.9687 71.8204 52.1263 C 71.7685 52.2842 71.6884 52.424 71.5877 52.5439 L 75.971 58.6658 L 80.8959 55.11 L 79.0379 49.3246 L 71.8806 51.6523 Z" fill="#84c340"/>
		<path d="M 69.3526 51.7942 C 69.3451 51.643 69.3634 51.4877 69.4135 51.3353 C 69.4636 51.1826 69.5409 51.0469 69.6366 50.9294 L 64.801 44.1763 C 64.5428 44.2708 64.2529 44.2831 63.9718 44.1904 L 60.7973 53.8579 C 61.0786 53.9503 61.3048 54.1326 61.4565 54.3618 L 69.3526 51.7942 Z" fill="#84c340"/>
		<path d="M 60.2487 66.56 C 60.4236 66.8029 60.4993 67.0875 60.485 67.3651 L 67.6459 69.7019 L 69.1082 65.2646 C 69.1069 65.2641 69.1059 65.2641 69.104 65.2633 C 68.4423 65.0372 68.0893 64.3165 68.3156 63.6542 C 68.3586 63.5283 68.4199 63.4136 68.4948 63.3115 L 60.3228 57.3156 C 60.2484 57.4139 60.1581 57.5034 60.0528 57.5791 C 59.9154 57.6781 59.7647 57.7448 59.6098 57.7821 L 59.5459 66.0754 C 59.8193 66.1482 60.0704 66.3124 60.2487 66.56 Z" fill="#84c340"/>
		<path d="M 52.8786 74.7737 C 53.5782 74.7693 54.1489 75.3328 54.1534 76.0329 C 54.1534 76.0342 54.1531 76.0355 54.1534 76.0372 L 58.8226 76.0571 L 58.8808 68.521 C 58.6126 68.4465 58.3674 68.2844 58.1926 68.0411 C 58.0142 67.7935 57.9382 67.503 57.9563 67.2205 L 50.0763 64.6495 C 49.9915 64.7846 49.8802 64.9065 49.7433 65.0052 C 49.6378 65.081 49.5244 65.1384 49.4077 65.1778 L 52.497 74.835 C 52.6173 74.7964 52.7455 74.7746 52.8786 74.7737 Z" fill="#84c340"/>
		<path d="M 60.2882 67.9813 C 60.2043 68.1131 60.0953 68.2322 59.9606 68.329 C 59.8259 68.4263 59.6788 68.492 59.5268 68.5296 L 59.4687 76.0603 L 65.5418 76.0868 L 67.4435 70.3157 L 60.2882 67.9813 Z" fill="#84c340"/>
		<path d="M 58.1611 66.6071 C 58.2439 66.4804 58.3502 66.3657 58.4803 66.272 C 58.6107 66.1781 58.7529 66.1137 58.8994 66.0754 L 58.9634 57.7678 C 58.6991 57.6924 58.4576 57.5314 58.2849 57.291 L 50.0311 63.2359 C 50.204 63.4763 50.2799 63.7569 50.2675 64.0316 L 58.1611 66.6071 Z" fill="#84c340"/>
		<path d="M 42.115 73.1808 C 42.1133 73.4804 42.0071 73.7549 41.8322 73.9709 L 46.2462 80.0779 L 50.0388 77.3519 C 50.038 77.3511 50.0372 77.3505 50.0361 77.3486 C 49.6342 76.776 49.773 75.9856 50.3456 75.5835 C 50.4543 75.5071 50.5714 75.4503 50.692 75.412 L 47.6133 65.7516 C 47.4954 65.7872 47.3697 65.8064 47.24 65.8055 C 47.0707 65.8047 46.9096 65.7697 46.7626 65.7087 L 41.8319 72.3751 C 42.01 72.595 42.1164 72.8756 42.115 73.1808 Z" fill="#84c340"/>
		<path d="M 31.3248 75.4793 C 31.893 75.8879 32.0228 76.6796 31.6146 77.2484 C 31.6139 77.2492 31.6129 77.2501 31.6122 77.2515 L 35.3748 80.0182 L 39.8554 73.9603 C 39.6826 73.7423 39.5796 73.4665 39.5815 73.167 C 39.583 72.862 39.6923 72.5822 39.8731 72.3643 L 35.0158 65.6447 C 34.8678 65.7037 34.706 65.7369 34.5373 65.7361 C 34.4075 65.7352 34.2822 65.7148 34.1644 65.6778 L 30.9803 75.3042 C 31.1003 75.3438 31.2168 75.4017 31.3248 75.4793 Z" fill="#84c340"/>
		<path d="M 41.3107 74.3529 C 41.1653 74.41 41.0072 74.4422 40.8414 74.4411 C 40.6752 74.4403 40.5176 74.4068 40.3726 74.3479 L 35.8952 80.4013 L 40.7888 84 L 45.7213 80.4547 L 41.3107 74.3529 Z" fill="#84c340"/>
		<path d="M 40.3997 71.9892 C 40.5411 71.9357 40.6946 71.9054 40.8549 71.9063 C 41.0154 71.9071 41.1684 71.9391 41.3092 71.9943 L 46.2485 65.3163 C 46.0792 65.0997 45.9787 64.8273 45.9806 64.5312 L 35.8108 64.4752 C 35.8092 64.7716 35.7053 65.0429 35.5339 65.2578 L 40.3997 71.9892 Z" fill="#84c340"/>
		<path d="M 23.5609 67.8516 C 23.3835 68.0928 23.136 68.2522 22.8676 68.3238 L 22.8429 75.8604 L 27.5124 75.8907 C 27.5123 75.8898 27.512 75.8888 27.5122 75.8864 C 27.5242 75.1869 28.1014 74.6297 28.8009 74.642 C 28.9336 74.6443 29.0617 74.6672 29.1817 74.7072 L 32.3763 65.0848 C 32.2602 65.044 32.1473 64.9854 32.0429 64.9084 C 31.9066 64.8082 31.7968 64.6848 31.714 64.5491 L 23.8062 67.0336 C 23.8208 67.3163 23.7416 67.6057 23.5609 67.8516 Z" fill="#84c340"/>
		<path d="M 13.4862 63.354 C 13.7051 64.0188 13.3444 64.7354 12.6796 64.9547 C 12.6787 64.9549 12.6774 64.9551 12.676 64.9557 L 14.0898 69.4085 L 21.2757 67.1506 C 21.2643 66.8728 21.3433 66.589 21.5211 66.3482 C 21.7018 66.1023 21.9547 65.9407 22.229 65.871 L 22.2558 57.5779 C 22.1014 57.5383 21.9511 57.4701 21.8152 57.3699 C 21.7108 57.2929 21.6215 57.2026 21.5481 57.1032 L 13.3108 63.0092 C 13.3845 63.112 13.4446 63.2275 13.4862 63.354 Z" fill="#84c340"/>
		<path d="M 22.2213 68.3252 C 22.0702 68.2859 21.9235 68.2187 21.7898 68.1202 C 21.6562 68.0217 21.5484 67.9017 21.4659 67.7687 L 14.2851 70.0248 L 16.1239 75.8163 L 22.197 75.8559 L 22.2213 68.3252 Z" fill="#84c340"/>
		<path d="M 22.8755 65.8779 C 23.0211 65.9179 23.1632 65.984 23.2923 66.0792 C 23.4214 66.1743 23.5263 66.2901 23.6077 66.4177 L 31.5293 63.9289 C 31.5197 63.654 31.5987 63.3747 31.7744 63.1364 L 23.5865 57.1009 C 23.4108 57.3396 23.1672 57.4975 22.9022 57.5703 L 22.8755 65.8779 Z" fill="#84c340"/>
		<path d="M 11.6977 52.6147 C 11.4123 52.7052 11.1185 52.6883 10.8594 52.5882 L 6.4056 58.6658 L 10.1625 61.4408 C 10.1628 61.4402 10.1633 61.4389 10.1647 61.4372 C 10.586 60.879 11.3803 60.7682 11.9385 61.1903 C 12.0445 61.2705 12.1346 61.3644 12.2082 61.4675 L 20.4516 55.5705 C 20.3815 55.4691 20.3247 55.3554 20.2857 55.2316 C 20.2346 55.0704 20.2184 54.906 20.2312 54.7475 L 12.3771 52.0981 C 12.2227 52.3351 11.9883 52.5225 11.6977 52.6147 Z" fill="#84c340"/>
		<path d="M 6.1994 43.0449 C 5.9854 43.7109 5.2721 44.0776 4.6058 43.8637 C 4.6049 43.8631 4.6038 43.8625 4.6021 43.8622 L 3.1256 48.2946 L 10.2628 50.7021 C 10.4169 50.4705 10.6476 50.2878 10.9332 50.1977 C 11.2238 50.1055 11.5234 50.1238 11.7861 50.2291 L 16.6867 43.5408 C 16.5852 43.4179 16.5038 43.2743 16.4529 43.1133 C 16.4138 42.9895 16.3948 42.8638 16.3939 42.7405 L 6.2605 42.6626 C 6.2598 42.7891 6.2401 42.9177 6.1994 43.0449 Z" fill="#84c340"/>
		<path d="M 10.3361 52.2084 C 10.237 52.0876 10.1578 51.947 10.1079 51.7887 C 10.0579 51.6304 10.0413 51.4698 10.0529 51.3136 L 2.9208 48.9077 L 1 54.6725 L 5.8859 58.2818 L 10.3361 52.2084 Z" fill="#84c340"/>
		<path d="M 12.3045 50.6153 C 12.399 50.7336 12.4748 50.8707 12.5231 51.0237 C 12.5717 51.1765 12.5883 51.3319 12.579 51.483 L 20.4468 54.1375 C 20.6008 53.9095 20.8289 53.7301 21.1112 53.6411 L 18.043 43.9391 C 17.7607 44.0288 17.4708 44.0128 17.2137 43.9155 L 12.3045 50.6153 Z" fill="#84c340"/>
		<path d="M 11.0717 33.3098 C 10.7878 33.2149 10.5602 33.0284 10.4098 32.7947 L 3.2339 35.0841 L 4.6383 39.5402 C 4.6389 39.54 4.64 39.5392 4.6422 39.5388 C 5.311 39.3354 6.0183 39.7139 6.2214 40.3839 C 6.2599 40.5113 6.2774 40.6401 6.2762 40.7668 L 16.4092 40.8557 C 16.4123 40.7323 16.4332 40.6068 16.4745 40.4839 C 16.528 40.3235 16.6116 40.181 16.7153 40.0604 L 11.9249 33.2924 C 11.6605 33.393 11.3608 33.4064 11.0717 33.3098 Z" fill="#84c340"/>
		<path d="M 12.2571 22.3351 C 11.6923 22.7475 10.9 22.6237 10.4872 22.0583 C 10.4868 22.0575 10.4863 22.0562 10.4851 22.055 L 6.6839 24.7683 L 11.037 30.9183 C 11.2979 30.8221 11.5919 30.8103 11.8758 30.9057 C 12.1648 31.0023 12.3964 31.1936 12.5468 31.4334 L 20.4431 28.9133 C 20.4332 28.7542 20.4519 28.5902 20.5055 28.4302 C 20.5467 28.3068 20.6052 28.1942 20.6771 28.0938 L 12.5313 22.0621 C 12.4563 22.164 12.3648 22.2564 12.2571 22.3351 Z" fill="#84c340"/>
		<path d="M 10.21 32.1792 C 10.2012 32.0235 10.2198 31.863 10.2725 31.7056 C 10.3252 31.5481 10.4063 31.4086 10.5076 31.2892 L 6.1575 25.1434 L 1.2134 28.6721 L 3.0397 34.4678 L 10.21 32.1792 Z" fill="#84c340"/>
		<path d="M 12.7386 32.051 C 12.7452 32.2022 12.726 32.3577 12.675 32.5099 C 12.6244 32.6621 12.5463 32.7973 12.4499 32.9141 L 17.2486 39.6941 C 17.507 39.6007 17.797 39.5901 18.0775 39.6844 L 21.3051 30.0342 C 21.0241 29.9403 20.7992 29.7568 20.6487 29.5267 L 12.7386 32.051 Z" fill="#84c340"/>
		<path d="M 21.923 17.3355 C 21.7493 17.0915 21.675 16.8067 21.6909 16.5293 L 14.5432 14.1532 L 13.057 18.5825 C 13.0575 18.5827 13.0589 18.5827 13.061 18.5838 C 13.7214 18.8132 14.0704 19.5359 13.8404 20.1971 C 13.7964 20.3225 13.7349 20.437 13.6594 20.5389 L 21.7984 26.5795 C 21.8735 26.4814 21.9641 26.3923 22.0699 26.3172 C 22.2075 26.2191 22.3589 26.1532 22.5137 26.1168 L 22.623 17.8239 C 22.3501 17.7496 22.0998 17.5839 21.923 17.3355 Z" fill="#84c340"/>
		<path d="M 29.3378 9.1622 C 28.6387 9.1628 28.071 8.5959 28.0699 7.8958 C 28.07 7.895 28.0703 7.8937 28.0702 7.892 L 23.401 7.8461 L 23.3018 15.3819 C 23.5693 15.4578 23.814 15.6214 23.9873 15.8658 C 24.1642 16.1142 24.2388 16.4051 24.2193 16.6876 L 32.085 19.3014 C 32.1707 19.1671 32.2823 19.0456 32.4198 18.948 C 32.5256 18.8722 32.6392 18.8158 32.7564 18.777 L 29.72 9.103 C 29.5995 9.1411 29.4712 9.162 29.3378 9.1622 Z" fill="#84c340"/>
		<path d="M 21.8916 15.914 C 21.976 15.7829 22.0854 15.6641 22.2207 15.5679 C 22.3559 15.4717 22.5037 15.4067 22.6558 15.3698 L 22.7548 7.8394 L 16.6823 7.7796 L 14.7488 13.5406 L 21.8916 15.914 Z" fill="#84c340"/>
		<path d="M 24.011 17.2997 C 23.9273 17.4258 23.8204 17.5403 23.6897 17.6334 C 23.5592 17.7266 23.4165 17.7898 23.2699 17.8275 L 23.1602 26.1349 C 23.424 26.2115 23.6647 26.3736 23.8361 26.6153 L 32.1224 20.7153 C 31.9506 20.4741 31.8767 20.1931 31.8902 19.9184 L 24.011 17.2997 Z" fill="#84c340"/>
		<path d="M 112.2885 18.9245 C 112.7231 19.9538 113.1576 20.9831 113.6066 22.0124 L 107.6824 22.0124 C 108.2039 20.7656 108.7253 19.5333 109.2757 18.3156 C 109.8261 17.0978 110.2752 15.8365 110.6373 14.5317 L 110.9849 15.822 C 111.4194 16.8658 111.854 17.8951 112.2885 18.9245 L 112.2885 18.9245 ZM 116.6773 21.3745 L 110.6373 7.1091 L 104.6117 21.3745 C 102.6128 26.1007 100.5995 30.9138 98.5716 35.785 L 101.8017 35.785 C 102.5549 34.0018 103.3081 32.1751 104.0758 30.3194 C 104.8434 28.4638 105.6111 26.6371 106.3643 24.8394 L 114.9247 24.8394 C 115.6779 26.6371 116.4311 28.4638 117.1988 30.3194 C 117.952 32.1751 118.7197 34.0018 119.4729 35.785 L 122.7174 35.785 C 120.6896 30.9138 118.6762 26.1007 116.6773 21.3745 L 116.6773 21.3745 Z" fill="#444444"/>
		<path d="M 131.4081 18.0836 C 131.9586 16.7498 132.7262 15.59 133.7112 14.5897 C 134.6816 13.6039 135.8115 12.821 137.1006 12.2411 C 138.3752 11.6612 139.7657 11.3713 141.2432 11.3713 C 142.7206 11.3713 144.0966 11.6612 145.4002 12.2411 C 146.7039 12.821 147.8336 13.6039 148.8186 14.5897 C 149.7891 15.59 150.5568 16.7498 151.1361 18.0836 C 151.701 19.4174 151.9907 20.8091 151.9907 22.2879 C 151.9907 23.7666 151.701 25.1728 151.1361 26.4921 C 150.5568 27.8259 149.7891 28.9712 148.8186 29.9425 C 147.8336 30.9283 146.7039 31.6967 145.4002 32.2621 C 144.0966 32.842 142.7206 33.1174 141.2432 33.1174 C 139.7657 33.1174 138.3752 32.842 137.1006 32.2621 C 135.8115 31.6967 134.6816 30.9283 133.7112 29.9425 C 132.7262 28.9712 131.9586 27.8259 131.4081 26.4921 C 130.8577 25.1728 130.5825 23.7666 130.5825 22.2879 C 130.5825 20.8091 130.8577 19.4174 131.4081 18.0836 L 131.4081 18.0836 ZM 128.4388 27.391 C 129.163 29.0727 130.148 30.5514 131.4081 31.8127 C 132.6683 33.0739 134.1457 34.0743 135.8259 34.7991 C 137.5062 35.524 139.3167 35.8864 141.2432 35.8864 C 142.1702 35.8864 143.1406 35.785 144.1256 35.5675 L 156.0754 35.5675 L 156.0754 32.494 L 150.3539 32.494 C 151.8314 31.2183 153.0046 29.6815 153.8882 27.8549 C 154.7717 26.0427 155.2208 24.0855 155.2208 21.9689 C 155.2208 20.0553 154.8442 18.2431 154.1055 16.5324 C 153.3668 14.8362 152.3673 13.3574 151.1071 12.0962 C 149.847 10.8349 148.3696 9.8346 146.6749 9.0952 C 144.9657 8.3558 143.1552 7.9789 141.2432 7.9789 C 139.3167 7.9789 137.5062 8.3558 135.8259 9.0952 C 134.1457 9.8346 132.6683 10.8349 131.4081 12.0962 C 130.148 13.3574 129.163 14.8362 128.4388 16.5324 C 127.7146 18.2431 127.3524 20.0553 127.3524 21.9689 C 127.3524 23.8971 127.7146 25.7093 128.4388 27.391 L 128.4388 27.391 Z" fill="#444444"/>
		<path d="M 174.0362 35.3065 C 175.2239 34.9151 176.2668 34.3352 177.1504 33.5669 C 178.0339 32.7985 178.7292 31.8417 179.2361 30.6964 C 179.7431 29.5656 180.0038 28.2463 180.0038 26.7676 L 180.0038 8.2833 L 176.7738 8.2833 L 176.7738 26.6371 C 176.7738 27.6374 176.6 28.5218 176.2668 29.2756 C 175.9192 30.044 175.4557 30.6819 174.8763 31.2038 C 174.2969 31.7257 173.6017 32.1316 172.7905 32.3926 C 171.9794 32.668 171.1104 32.7985 170.1544 32.7985 C 169.1839 32.7985 168.3003 32.668 167.5037 32.3926 C 166.6926 32.1316 165.9973 31.7257 165.4179 31.2038 C 164.8385 30.6819 164.375 30.044 164.0563 29.2756 C 163.7232 28.5218 163.5638 27.6374 163.5638 26.6371 L 163.5638 8.2833 L 160.3338 8.2833 L 160.3338 26.7676 C 160.3338 28.2463 160.5801 29.5656 161.0725 30.6964 C 161.565 31.8417 162.2458 32.7985 163.1293 33.5669 C 164.0129 34.3352 165.0558 34.9151 166.258 35.3065 C 167.4457 35.698 168.7493 35.8864 170.1544 35.8864 C 171.5449 35.8864 172.8484 35.698 174.0362 35.3065 L 174.0362 35.3065 Z" fill="#444444"/>
		<path d="M 198.5006 18.9245 C 198.9352 19.9538 199.3697 20.9831 199.8187 22.0124 L 193.8945 22.0124 C 194.416 20.7656 194.9374 19.5333 195.4879 18.3156 C 196.0383 17.0978 196.4873 15.8365 196.8494 14.5317 L 197.197 15.822 C 197.6316 16.8658 198.0661 17.8951 198.5006 18.9245 L 198.5006 18.9245 ZM 202.8895 21.3745 L 196.8494 7.1091 L 190.8238 21.3745 C 188.825 26.1007 186.8116 30.9138 184.7838 35.785 L 188.0138 35.785 C 188.767 34.0018 189.5202 32.1751 190.2879 30.3194 C 191.0555 28.4638 191.8232 26.6371 192.5765 24.8394 L 201.1368 24.8394 C 201.89 26.6371 202.6432 28.4638 203.4109 30.3194 C 204.1641 32.1751 204.9318 34.0018 205.685 35.785 L 208.9295 35.785 C 206.9017 30.9138 204.8883 26.1007 202.8895 21.3745 L 202.8895 21.3745 Z" fill="#444444"/>
		<path d="M 108.8507 57.5739 C 108.4452 57.4434 108.0541 57.371 107.6775 57.371 C 107.1415 57.371 106.6925 57.4579 106.3304 57.6319 C 105.9683 57.8059 105.6786 58.0088 105.4614 58.2698 C 105.2296 58.5307 105.0703 58.8352 104.9834 59.1686 C 104.8965 59.5021 104.853 59.8355 104.8675 60.1545 C 104.8675 60.5894 104.9544 60.9373 105.1282 61.2273 C 105.2875 61.5172 105.4758 61.7492 105.7076 61.9376 C 105.9393 62.1261 106.1711 62.2711 106.4318 62.3726 C 106.678 62.4885 106.8953 62.5755 107.0836 62.648 C 107.3443 62.7495 107.634 62.851 107.9672 62.9525 C 108.2858 63.0539 108.59 63.1844 108.8797 63.3584 C 109.1694 63.5324 109.4012 63.7643 109.6039 64.0398 C 109.8067 64.3152 109.9081 64.6632 109.9081 65.0691 C 109.9081 65.388 109.8357 65.6635 109.7198 65.9244 C 109.5894 66.1854 109.4156 66.3883 109.2128 66.5478 C 108.9956 66.7218 108.7493 66.8523 108.4886 66.9392 C 108.2134 67.0262 107.9237 67.0697 107.634 67.0697 C 107.3443 67.0697 107.0691 67.0407 106.8229 66.9537 C 106.5622 66.8668 106.3304 66.7653 106.1132 66.6348 C 105.8959 66.5188 105.7076 66.3738 105.5338 66.2289 C 105.36 66.0839 105.2151 65.9244 105.0703 65.7795 L 104.4764 66.3738 C 104.5923 66.5478 104.7661 66.7218 104.9834 66.8958 C 105.1862 67.0842 105.4324 67.2582 105.7221 67.4032 C 105.9973 67.5626 106.3015 67.6786 106.6491 67.7946 C 106.9822 67.8816 107.3443 67.9396 107.7354 67.9396 C 108.1555 67.9396 108.5466 67.8671 108.9232 67.7511 C 109.2997 67.6061 109.6184 67.4322 109.9081 67.1712 C 110.1978 66.9103 110.4151 66.6058 110.5889 66.2579 C 110.7482 65.9099 110.8351 65.504 110.8351 65.0546 C 110.8351 64.5327 110.7192 64.0833 110.502 63.7353 C 110.2702 63.3874 109.995 63.0829 109.6619 62.8365 C 109.3287 62.59 108.9666 62.3871 108.59 62.2421 C 108.1989 62.0971 107.8513 61.9521 107.5326 61.8362 C 107.3009 61.7637 107.0691 61.6767 106.8664 61.5897 C 106.6491 61.5027 106.4608 61.4012 106.3015 61.2708 C 106.1421 61.1403 106.0117 60.9808 105.9249 60.7923 C 105.8235 60.6184 105.78 60.3864 105.78 60.1255 C 105.78 59.879 105.809 59.647 105.8959 59.4151 C 105.9828 59.1976 106.0987 59.0092 106.258 58.8352 C 106.4028 58.6612 106.6056 58.5307 106.8374 58.4293 C 107.0691 58.3278 107.3588 58.2698 107.6775 58.2698 C 107.9092 58.2698 108.1265 58.2988 108.3293 58.3568 C 108.5321 58.4148 108.7059 58.4728 108.8797 58.5452 C 109.0535 58.6322 109.1984 58.7192 109.3287 58.8062 C 109.4591 58.9077 109.575 58.9947 109.6619 59.0672 C 109.7488 58.9657 109.8212 58.8497 109.9081 58.7337 C 109.995 58.6177 110.0819 58.5018 110.1833 58.3858 C 109.6908 57.9798 109.2563 57.7189 108.8507 57.5739 L 108.8507 57.5739 Z" fill="#878787"/>
		<path d="M 119.2709 65.5765 C 119.1695 65.8229 119.0247 66.0404 118.8509 66.2144 C 118.677 66.4028 118.4598 66.5478 118.2135 66.6493 C 117.9673 66.7653 117.6921 66.8088 117.4024 66.8088 C 117.1127 66.8088 116.852 66.7653 116.6057 66.6493 C 116.345 66.5478 116.1422 66.4028 115.9684 66.2144 C 115.7946 66.0404 115.6498 65.8229 115.5484 65.5765 C 115.4325 65.3445 115.389 65.0691 115.389 64.7791 C 115.389 64.5182 115.4325 64.2572 115.5484 64.0108 C 115.6498 63.7788 115.7946 63.5613 115.9684 63.3874 C 116.1422 63.2134 116.345 63.0684 116.6057 62.9525 C 116.852 62.851 117.1127 62.793 117.4024 62.793 C 117.6921 62.793 117.9673 62.851 118.2135 62.9525 C 118.4598 63.0684 118.677 63.2134 118.8509 63.3874 C 119.0247 63.5613 119.1695 63.7788 119.2709 64.0108 C 119.3723 64.2572 119.4302 64.5182 119.4302 64.7791 C 119.4302 65.0691 119.3723 65.3445 119.2709 65.5765 L 119.2709 65.5765 ZM 120.1255 63.7643 C 119.9662 63.4164 119.7634 63.1119 119.5027 62.851 C 119.2419 62.59 118.9233 62.3871 118.5612 62.2421 C 118.199 62.0971 117.808 62.0101 117.4024 62.0101 C 117.1272 62.0101 116.8665 62.0536 116.6347 62.1261 C 116.3885 62.2131 116.1712 62.3146 115.9829 62.4305 C 115.7946 62.5465 115.6353 62.677 115.5194 62.793 C 115.389 62.9235 115.3166 63.0394 115.2877 63.1264 C 115.2732 62.9525 115.2587 62.793 115.2587 62.619 C 115.2442 62.4451 115.2442 62.2856 115.2442 62.1116 L 114.4765 62.1116 L 114.4765 71.2885 L 115.4035 71.2885 L 115.4035 67.1567 C 115.3746 67.0842 115.3601 67.0117 115.3456 66.9392 C 115.3166 66.8668 115.3022 66.7943 115.2877 66.7073 C 115.3166 66.8233 115.389 66.9248 115.5049 67.0407 C 115.6208 67.1567 115.7657 67.2727 115.9395 67.3887 C 116.1133 67.5046 116.3305 67.5771 116.5913 67.6641 C 116.8375 67.7366 117.1127 67.7801 117.4024 67.7801 C 117.808 67.7801 118.199 67.6931 118.5612 67.5481 C 118.9233 67.4032 119.2419 67.1857 119.5027 66.9248 C 119.7634 66.6638 119.9662 66.3449 120.1255 65.9969 C 120.2703 65.649 120.3572 65.272 120.3572 64.8661 C 120.3572 64.4892 120.2703 64.1123 120.1255 63.7643 L 120.1255 63.7643 Z" fill="#878787"/>
		<path d="M 124.187 64.0108 C 124.2884 63.7643 124.4332 63.5469 124.607 63.3729 C 124.7808 63.1989 124.9981 63.0539 125.2443 62.938 C 125.4906 62.8365 125.7658 62.7785 126.0555 62.7785 C 126.3452 62.7785 126.6059 62.8365 126.8521 62.938 C 127.0984 63.0539 127.3156 63.1989 127.4894 63.3729 C 127.6632 63.5469 127.8081 63.7643 127.9095 64.0108 C 128.0109 64.2572 128.0688 64.5182 128.0688 64.7791 C 128.0688 65.0691 128.0109 65.3445 127.9095 65.5765 C 127.8081 65.8229 127.6632 66.0404 127.4894 66.2144 C 127.3156 66.3883 127.0984 66.5333 126.8521 66.6348 C 126.6059 66.7508 126.3452 66.7943 126.0555 66.7943 C 125.7658 66.7943 125.4906 66.7508 125.2443 66.6348 C 124.9981 66.5333 124.7808 66.3883 124.607 66.2144 C 124.4332 66.0404 124.2884 65.8229 124.187 65.5765 C 124.0856 65.3445 124.0421 65.0691 124.0421 64.7791 C 124.0421 64.5182 124.0856 64.2572 124.187 64.0108 L 124.187 64.0108 ZM 123.3324 65.8809 C 123.4772 66.2289 123.6945 66.5188 123.9552 66.7653 C 124.2159 67.0262 124.5201 67.2147 124.8822 67.3597 C 125.2443 67.5046 125.6354 67.5771 126.0555 67.5771 C 126.3452 67.5771 126.6204 67.5481 126.8666 67.4757 C 127.1128 67.4032 127.3301 67.3162 127.5184 67.2147 C 127.6922 67.1132 127.8371 66.9972 127.9529 66.8813 C 128.0688 66.7653 128.1412 66.6493 128.1702 66.5478 L 128.1702 66.9248 L 128.1702 67.5046 L 128.9958 67.5046 L 128.9958 62.0826 L 128.2281 62.0826 L 128.1847 62.59 C 128.1702 62.764 128.1702 62.9235 128.1702 63.0829 C 128.1412 62.9959 128.0543 62.88 127.9384 62.764 C 127.8226 62.648 127.6632 62.532 127.4749 62.4161 C 127.2867 62.3001 127.0694 62.2131 126.8376 62.1261 C 126.5914 62.0536 126.3307 62.0101 126.0555 62.0101 C 125.6354 62.0101 125.2443 62.0971 124.8822 62.2421 C 124.5201 62.3871 124.2159 62.59 123.9552 62.851 C 123.6945 63.1119 123.4772 63.4019 123.3324 63.7353 C 123.173 64.0833 123.1006 64.4312 123.1006 64.8081 C 123.1006 65.1851 123.173 65.5475 123.3324 65.8809 L 123.3324 65.8809 Z" fill="#878787"/>
		<path d="M 140.4357 63.3729 C 140.8123 63.0105 141.2903 62.822 141.8842 62.793 C 142.1738 63.2859 142.478 63.7788 142.7822 64.2717 C 143.0719 64.7646 143.376 65.243 143.6802 65.736 C 143.5064 66.0549 143.2747 66.3159 142.9705 66.5188 C 142.6518 66.7218 142.2897 66.8088 141.8842 66.8088 C 141.5944 66.8088 141.3337 66.7653 141.0875 66.6493 C 140.8268 66.5478 140.624 66.4028 140.4502 66.2144 C 140.2764 66.0404 140.1315 65.8229 140.0302 65.5765 C 139.9287 65.3445 139.8853 65.0691 139.8853 64.7791 C 139.8853 64.1992 140.0591 63.7353 140.4357 63.3729 L 140.4357 63.3729 ZM 144.8824 63.4164 C 144.8969 63.2134 144.9404 63.0684 144.9983 62.9525 C 145.0563 62.8365 145.1287 62.764 145.23 62.706 C 145.3315 62.6625 145.4618 62.6335 145.6067 62.6335 L 146.3164 62.6335 L 146.3164 61.7347 L 145.6646 61.7347 L 145.1142 61.7347 C 144.9404 61.7347 144.7665 61.7637 144.6217 61.8217 C 144.4769 61.8796 144.3465 61.9811 144.2307 62.1261 C 144.1147 62.2711 144.0424 62.4885 143.9989 62.7785 L 143.9989 63.0829 C 143.9699 63.2279 143.9409 63.3874 143.912 63.5324 C 143.883 63.6918 143.8395 63.8658 143.7961 64.0398 C 143.3471 63.3149 142.8981 62.59 142.4635 61.8652 C 142.029 61.1548 141.58 60.4299 141.1454 59.705 C 140.8847 59.2701 140.7689 58.8352 140.8268 58.3858 C 140.8847 57.9364 141.1454 57.5594 141.6234 57.2695 C 141.7828 57.168 141.9565 57.11 142.1594 57.081 C 142.3477 57.0665 142.5359 57.081 142.7242 57.1245 C 142.9125 57.1825 143.1008 57.2405 143.2747 57.3275 C 143.4485 57.4144 143.6078 57.4869 143.7526 57.5594 C 143.8106 57.4434 143.8685 57.3275 143.9409 57.197 C 143.9989 57.081 144.0713 56.9505 144.1293 56.8345 C 143.9265 56.7186 143.7092 56.6171 143.4774 56.5011 C 143.2312 56.3851 142.9705 56.3126 142.6953 56.2547 C 142.42 56.1967 142.1448 56.1967 141.8552 56.2257 C 141.5655 56.2547 141.2758 56.3561 141.0006 56.5301 C 140.6674 56.7331 140.4067 56.965 140.2329 57.226 C 140.0446 57.5014 139.9287 57.7914 139.8853 58.0958 C 139.8273 58.4003 139.8418 58.7047 139.9142 59.0237 C 139.9867 59.3426 140.117 59.647 140.3053 59.937 L 140.8268 60.8068 C 141.0006 61.0968 141.1744 61.3722 141.3482 61.6622 C 141.0006 61.7202 140.6819 61.8362 140.3922 62.0101 C 140.1025 62.1841 139.8418 62.4016 139.639 62.648 C 139.4218 62.909 139.248 63.1844 139.1321 63.5034 C 139.0162 63.8223 138.9583 64.1557 138.9583 64.5037 C 138.9583 64.9096 139.0307 65.301 139.1755 65.649 C 139.3204 65.9969 139.5377 66.3014 139.8129 66.5623 C 140.0735 66.8233 140.3922 67.0407 140.7399 67.1857 C 141.0875 67.3452 141.4786 67.4177 141.8842 67.4177 C 142.3477 67.4177 142.7822 67.3307 143.1877 67.1277 C 143.5933 66.9392 143.9265 66.6638 144.2161 66.3159 C 144.332 66.5333 144.4624 66.7508 144.5928 66.9537 C 144.7086 67.1712 144.839 67.3742 144.9838 67.5771 C 145.0997 67.5046 145.23 67.4322 145.3459 67.3452 C 145.4618 67.2727 145.5777 67.2002 145.7081 67.1132 C 145.5342 66.8233 145.3604 66.5478 145.1866 66.2724 C 145.0128 65.9969 144.839 65.707 144.6652 65.417 C 144.7811 65.1271 144.8535 64.8371 144.8535 64.5327 L 144.8535 64.1847 C 144.8535 63.8658 144.8535 63.6193 144.8824 63.4164 L 144.8824 63.4164 Z" fill="#878787"/>
		<path d="M 158.6254 58.0813 C 159.2482 58.0813 159.7552 58.2263 160.1607 58.5018 C 160.5518 58.7917 160.7546 59.2556 160.7546 59.908 C 160.7546 60.5024 160.5663 60.9808 160.1897 61.3577 C 159.8131 61.7347 159.3062 61.9086 158.6688 61.9086 L 156.8872 61.9086 L 156.8872 58.0813 L 158.6254 58.0813 L 158.6254 58.0813 ZM 158.6833 62.793 C 159.002 62.793 159.3351 62.8365 159.6537 62.909 C 159.9724 62.9959 160.2621 63.1119 160.5228 63.2714 C 160.7691 63.4309 160.9719 63.6338 161.1167 63.8948 C 161.2615 64.1557 161.3484 64.4457 161.3484 64.7791 C 161.3484 65.0981 161.2761 65.388 161.1457 65.62 C 161.0153 65.8664 160.8415 66.0694 160.6242 66.2289 C 160.3925 66.3883 160.1318 66.5043 159.842 66.5913 C 159.5524 66.6783 159.2337 66.7073 158.9006 66.7073 L 157.09 66.7073 L 157.09 62.793 L 158.6833 62.793 L 158.6833 62.793 ZM 158.3936 67.5771 C 158.8137 67.5771 159.2192 67.5191 159.6248 67.4032 C 160.0159 67.2872 160.3635 67.1277 160.6822 66.8958 C 160.9863 66.6783 161.2326 66.4028 161.4064 66.0694 C 161.5802 65.7505 161.6816 65.359 161.6816 64.9096 C 161.6816 64.5617 161.6237 64.2282 161.5078 63.9383 C 161.3919 63.6483 161.2326 63.4019 161.0298 63.1844 C 160.827 62.967 160.5953 62.793 160.3345 62.648 C 160.0739 62.5175 159.7986 62.4161 159.5089 62.3581 C 160.1172 62.1841 160.5663 61.8652 160.8705 61.4012 C 161.1602 60.9373 161.3195 60.4009 161.3195 59.7775 C 161.3195 59.3281 161.2326 58.9367 161.0878 58.6032 C 160.9284 58.2843 160.7111 58.0088 160.4359 57.8059 C 160.1462 57.6029 159.8131 57.4434 159.422 57.342 C 159.0309 57.2405 158.5964 57.1825 158.1329 57.1825 L 155.5981 57.1825 L 155.5981 67.5771 L 158.3936 67.5771 L 158.3936 67.5771 Z" fill="#878787"/>
		<path d="M 169.2918 63.0249 C 169.538 63.1844 169.7408 63.3874 169.8856 63.6483 C 169.3207 63.8658 168.7559 64.0833 168.191 64.2862 L 166.4963 64.9386 L 166.4963 64.6342 C 166.4963 64.5472 166.5107 64.4457 166.5397 64.3442 C 166.6266 63.9093 166.8439 63.5324 167.206 63.2279 C 167.5536 62.938 167.9882 62.7785 168.4951 62.7785 C 168.7849 62.7785 169.0455 62.8655 169.2918 63.0249 L 169.2918 63.0249 ZM 170.6823 63.0539 C 170.5085 62.764 170.3202 62.5175 170.1029 62.3146 C 169.8712 62.1116 169.6249 61.9666 169.3497 61.8507 C 169.0745 61.7347 168.7849 61.6767 168.4951 61.6767 C 168.0895 61.6767 167.6985 61.7637 167.3508 61.9086 C 166.9888 62.0681 166.6701 62.2711 166.4094 62.532 C 166.1486 62.793 165.9314 63.1119 165.7865 63.4599 C 165.6272 63.8223 165.5547 64.1992 165.5547 64.5762 C 165.5547 64.9821 165.6272 65.3735 165.7865 65.7215 C 165.9314 66.0694 166.1486 66.3738 166.4094 66.6348 C 166.6701 66.8958 166.9888 67.1132 167.3508 67.2582 C 167.6985 67.4177 168.0895 67.4902 168.4951 67.4902 C 168.8717 67.4902 169.2194 67.4322 169.538 67.2872 C 169.8567 67.1567 170.1464 66.9682 170.4071 66.7073 C 170.2912 66.6058 170.1898 66.4898 170.1029 66.3738 C 170.016 66.2579 169.9291 66.1564 169.8422 66.0404 C 169.6684 66.2144 169.4656 66.3449 169.2338 66.4463 C 169.0021 66.5478 168.7559 66.5913 168.4951 66.5913 C 168.1041 66.5913 167.7564 66.5043 167.4523 66.3304 C 167.1481 66.1564 166.9163 65.9099 166.757 65.6055 L 171.0734 63.9528 C 170.9865 63.6338 170.8561 63.3439 170.6823 63.0539 L 170.6823 63.0539 Z" fill="#878787"/>
		<path d="M 174.8017 64.0108 C 174.9031 63.7643 175.0479 63.5469 175.2217 63.3729 C 175.3956 63.1989 175.6128 63.0539 175.8591 62.938 C 176.1053 62.8365 176.3805 62.7785 176.6702 62.7785 C 176.9599 62.7785 177.2206 62.8365 177.4669 62.938 C 177.7131 63.0539 177.9304 63.1989 178.1041 63.3729 C 178.278 63.5469 178.4228 63.7643 178.5242 64.0108 C 178.6256 64.2572 178.6835 64.5182 178.6835 64.7791 C 178.6835 65.0691 178.6256 65.3445 178.5242 65.5765 C 178.4228 65.8229 178.278 66.0404 178.1041 66.2144 C 177.9304 66.3883 177.7131 66.5333 177.4669 66.6348 C 177.2206 66.7508 176.9599 66.7943 176.6702 66.7943 C 176.3805 66.7943 176.1053 66.7508 175.8591 66.6348 C 175.6128 66.5333 175.3956 66.3883 175.2217 66.2144 C 175.0479 66.0404 174.9031 65.8229 174.8017 65.5765 C 174.7003 65.3445 174.6569 65.0691 174.6569 64.7791 C 174.6569 64.5182 174.7003 64.2572 174.8017 64.0108 L 174.8017 64.0108 ZM 173.9471 65.8809 C 174.0919 66.2289 174.3092 66.5188 174.5699 66.7653 C 174.8306 67.0262 175.1348 67.2147 175.4969 67.3597 C 175.8591 67.5046 176.2501 67.5771 176.6702 67.5771 C 176.9599 67.5771 177.235 67.5481 177.4813 67.4757 C 177.7275 67.4032 177.9448 67.3162 178.1331 67.2147 C 178.3069 67.1132 178.4518 66.9972 178.5676 66.8813 C 178.6835 66.7653 178.756 66.6493 178.7849 66.5478 L 178.7849 66.9248 L 178.7849 67.5046 L 179.6105 67.5046 L 179.6105 62.0826 L 178.8428 62.0826 L 178.7994 62.59 C 178.7849 62.764 178.7849 62.9235 178.7849 63.0829 C 178.756 62.9959 178.6691 62.88 178.5532 62.764 C 178.4373 62.648 178.278 62.532 178.0897 62.4161 C 177.9014 62.3001 177.6841 62.2131 177.4523 62.1261 C 177.2061 62.0536 176.9454 62.0101 176.6702 62.0101 C 176.2501 62.0101 175.8591 62.0971 175.4969 62.2421 C 175.1348 62.3871 174.8306 62.59 174.5699 62.851 C 174.3092 63.1119 174.0919 63.4019 173.9471 63.7353 C 173.7878 64.0833 173.7153 64.4312 173.7153 64.8081 C 173.7153 65.1851 173.7878 65.5475 173.9471 65.8809 L 173.9471 65.8809 Z" fill="#878787"/>
		<path d="M 187.496 62.0101 L 186.569 62.0101 L 186.569 64.8806 C 186.569 65.1561 186.511 65.4025 186.3951 65.6345 C 186.2792 65.8664 186.1344 66.0694 185.9461 66.2434 C 185.7433 66.4173 185.5261 66.5623 185.2653 66.6493 C 185.0046 66.7508 184.7294 66.7943 184.4687 66.7943 C 184.0631 66.7798 183.7734 66.6638 183.5851 66.4463 C 183.3823 66.2434 183.2809 65.9824 183.2665 65.678 L 183.2665 62.0101 L 182.325 62.0101 L 182.325 66.0404 C 182.3395 66.5333 182.5132 66.9392 182.8464 67.2437 C 183.1796 67.5481 183.6286 67.6931 184.1935 67.6931 C 184.7294 67.6931 185.2219 67.5626 185.6564 67.2727 C 186.0909 66.9972 186.4096 66.6203 186.6124 66.1419 L 186.569 66.8088 L 186.569 67.6641 L 187.496 67.6641 L 187.496 62.0101 L 187.496 62.0101 Z" fill="#878787"/>
		<path d="M 191.5864 61.9521 L 190.3262 61.9521 L 190.3262 62.851 L 191.5864 62.851 L 191.5864 67.5771 L 192.4989 67.5771 L 192.4989 62.851 L 194.0922 62.851 L 194.0922 61.9521 L 192.4989 61.9521 L 192.4989 58.3858 L 191.5864 58.3858 L 191.5864 61.9521 L 191.5864 61.9521 Z" fill="#878787"/>
		<path d="M 200.674 66.6493 L 202.9915 62.0101 L 202.0645 62.0101 C 201.6734 62.793 201.2678 63.5759 200.8478 64.3587 C 200.4133 65.1561 200.0511 65.9534 199.7325 66.7508 C 199.4138 65.9534 199.0372 65.1561 198.6172 64.3587 C 198.1826 63.5759 197.7771 62.793 197.386 62.0101 L 196.459 62.0101 L 197.8495 64.8081 C 198.313 65.736 198.7765 66.6638 199.2545 67.5916 C 198.9359 68.215 198.6317 68.8239 198.3275 69.4473 C 198.0233 70.0417 197.7191 70.6506 197.4005 71.2885 L 198.3564 71.2885 C 199.1241 69.7227 199.8918 68.186 200.674 66.6493 L 200.674 66.6493 Z" fill="#878787"/>
		<rect x="104.4574" y="48" width="99.9589" height="1" fill="#84c340"/>
	</g>
</svg>