<?xml version="1.0" standalone="no"?>
<!-- Generator: Adobe Fireworks 10, Export SVG Extension by Aaron Beall (http://fireworks.abeall.com) . Version: 0.6.1  -->
<!DOCTYPE svg PUBLIC "-//W3C//DTD SVG 1.1//EN" "http://www.w3.org/Graphics/SVG/1.1/DTD/svg11.dtd">
<svg id="Untitled-Page%201" viewBox="0 0 111 65" style="background-color:#ffffff00" version="1.1"
	xmlns="http://www.w3.org/2000/svg" xmlns:xlink="http://www.w3.org/1999/xlink" xml:space="preserve"
	x="0px" y="0px" width="111px" height="65px"
>
	<g id="Layer%201">
		<g>
			<path d="M 13.834 11.9243 C 14.2687 12.9537 14.7034 13.983 15.1526 15.0123 L 9.226 15.0123 C 9.7476 13.7655 10.2693 12.5332 10.8199 11.3155 C 11.3705 10.0977 11.8198 8.8364 12.182 7.5316 L 12.5298 8.8219 C 12.9645 9.8657 13.3992 10.895 13.834 11.9243 L 13.834 11.9243 ZM 18.2246 14.3744 L 12.182 0.1089 L 6.154 14.3744 C 4.1543 19.1006 2.1401 23.9137 0.1115 28.7849 L 3.3428 28.7849 C 4.0963 27.0017 4.8499 25.175 5.6178 23.3193 C 6.3858 21.4637 7.1538 19.637 7.9073 17.8393 L 16.4713 17.8393 C 17.2247 19.637 17.9783 21.4637 18.7462 23.3193 C 19.4998 25.175 20.2678 27.0017 21.0212 28.7849 L 24.2672 28.7849 C 22.2385 23.9137 20.2243 19.1006 18.2246 14.3744 L 18.2246 14.3744 Z" fill="#444444"/>
			<path d="M 32.9614 11.0835 C 33.5121 9.7497 34.2801 8.59 35.2654 7.5896 C 36.2363 6.6038 37.3666 5.8209 38.6563 5.241 C 39.9314 4.6611 41.3225 4.3712 42.8005 4.3712 C 44.2786 4.3712 45.6552 4.6611 46.9593 5.241 C 48.2634 5.8209 49.3937 6.6038 50.3791 7.5896 C 51.3499 8.59 52.1179 9.7497 52.6976 11.0835 C 53.2627 12.4173 53.5525 13.809 53.5525 15.2878 C 53.5525 16.7665 53.2627 18.1727 52.6976 19.492 C 52.1179 20.8258 51.3499 21.9711 50.3791 22.9424 C 49.3937 23.9282 48.2634 24.6966 46.9593 25.262 C 45.6552 25.8419 44.2786 26.1173 42.8005 26.1173 C 41.3225 26.1173 39.9314 25.8419 38.6563 25.262 C 37.3666 24.6966 36.2363 23.9282 35.2654 22.9424 C 34.2801 21.9711 33.5121 20.8258 32.9614 19.492 C 32.4108 18.1727 32.1355 16.7665 32.1355 15.2878 C 32.1355 13.809 32.4108 12.4173 32.9614 11.0835 L 32.9614 11.0835 ZM 29.9909 20.3909 C 30.7154 22.0725 31.7008 23.5513 32.9614 24.8126 C 34.2221 26.0738 35.7001 27.0742 37.381 27.799 C 39.062 28.5239 40.8733 28.8863 42.8005 28.8863 C 43.7279 28.8863 44.6988 28.7849 45.6841 28.5674 L 57.6389 28.5674 L 57.6389 25.4939 L 51.915 25.4939 C 53.3931 24.2182 54.5668 22.6814 55.4507 20.8548 C 56.3347 19.0426 56.7839 17.0854 56.7839 14.9688 C 56.7839 13.0551 56.4071 11.243 55.6681 9.5323 C 54.9291 7.8361 53.9293 6.3573 52.6686 5.0961 C 51.4079 3.8348 49.9299 2.8345 48.2345 2.0951 C 46.5246 1.3557 44.7133 0.9788 42.8005 0.9788 C 40.8733 0.9788 39.062 1.3557 37.381 2.0951 C 35.7001 2.8345 34.2221 3.8348 32.9614 5.0961 C 31.7008 6.3573 30.7154 7.8361 29.9909 9.5323 C 29.2664 11.243 28.9041 13.0551 28.9041 14.9688 C 28.9041 16.897 29.2664 18.7092 29.9909 20.3909 L 29.9909 20.3909 Z" fill="#444444"/>
			<path d="M 75.6071 28.3064 C 76.7953 27.915 77.8386 27.3351 78.7225 26.5667 C 79.6064 25.7984 80.302 24.8416 80.8092 23.6963 C 81.3163 22.5655 81.5772 21.2462 81.5772 19.7675 L 81.5772 1.2832 L 78.3458 1.2832 L 78.3458 19.637 C 78.3458 20.6373 78.1719 21.5217 77.8386 22.2755 C 77.4908 23.0439 77.0272 23.6818 76.4475 24.2037 C 75.8679 24.7256 75.1724 25.1315 74.3609 25.3925 C 73.5494 25.6679 72.68 25.7984 71.7236 25.7984 C 70.7527 25.7984 69.8688 25.6679 69.0718 25.3925 C 68.2604 25.1315 67.5648 24.7256 66.9852 24.2037 C 66.4056 23.6818 65.9419 23.0439 65.6231 22.2755 C 65.2899 21.5217 65.1304 20.6373 65.1304 19.637 L 65.1304 1.2832 L 61.899 1.2832 L 61.899 19.7675 C 61.899 21.2462 62.1454 22.5655 62.6381 23.6963 C 63.1307 24.8416 63.8118 25.7984 64.6957 26.5667 C 65.5797 27.3351 66.6229 27.915 67.8257 28.3064 C 69.0139 28.6979 70.3181 28.8863 71.7236 28.8863 C 73.1147 28.8863 74.4189 28.6979 75.6071 28.3064 L 75.6071 28.3064 Z" fill="#444444"/>
			<path d="M 100.0816 11.9243 C 100.5163 12.9537 100.951 13.983 101.4002 15.0123 L 95.4736 15.0123 C 95.9952 13.7655 96.5169 12.5332 97.0676 11.3155 C 97.6182 10.0977 98.0674 8.8364 98.4297 7.5316 L 98.7775 8.8219 C 99.2122 9.8657 99.6469 10.895 100.0816 11.9243 L 100.0816 11.9243 ZM 104.4722 14.3744 L 98.4297 0.1089 L 92.4016 14.3744 C 90.4019 19.1006 88.3878 23.9137 86.3591 28.7849 L 89.5905 28.7849 C 90.3439 27.0017 91.0975 25.175 91.8655 23.3193 C 92.6335 21.4637 93.4014 19.637 94.155 17.8393 L 102.7189 17.8393 C 103.4724 19.637 104.2259 21.4637 104.9939 23.3193 C 105.7474 25.175 106.5154 27.0017 107.2689 28.7849 L 110.5148 28.7849 C 108.4861 23.9137 106.4719 19.1006 104.4722 14.3744 L 104.4722 14.3744 Z" fill="#444444"/>
		</g>
		<g>
			<path d="M 10.3939 50.5741 C 9.9882 50.4436 9.5969 50.3711 9.2202 50.3711 C 8.684 50.3711 8.2348 50.4581 7.8726 50.6321 C 7.5103 50.806 7.2205 51.009 7.0031 51.27 C 6.7712 51.5309 6.6119 51.8354 6.5249 52.1688 C 6.438 52.5022 6.3945 52.8357 6.409 53.1546 C 6.409 53.5895 6.496 53.9375 6.6699 54.2274 C 6.8292 54.5174 7.0176 54.7493 7.2495 54.9378 C 7.4813 55.1263 7.7131 55.2712 7.974 55.3727 C 8.2203 55.4887 8.4377 55.5757 8.626 55.6482 C 8.8869 55.7497 9.1767 55.8511 9.5099 55.9526 C 9.8287 56.0541 10.1331 56.1846 10.4229 56.3586 C 10.7127 56.5325 10.9445 56.7645 11.1474 57.0399 C 11.3503 57.3154 11.4517 57.6633 11.4517 58.0692 C 11.4517 58.3882 11.3793 58.6636 11.2633 58.9246 C 11.1329 59.1855 10.959 59.3885 10.7562 59.548 C 10.5388 59.722 10.2925 59.8524 10.0316 59.9394 C 9.7563 60.0264 9.4665 60.0699 9.1767 60.0699 C 8.8869 60.0699 8.6116 60.0409 8.3652 59.9539 C 8.1044 59.8669 7.8726 59.7654 7.6552 59.635 C 7.4378 59.519 7.2495 59.374 7.0756 59.229 C 6.9017 59.0841 6.7568 58.9246 6.6119 58.7796 L 6.0178 59.374 C 6.1337 59.548 6.3076 59.722 6.5249 59.8959 C 6.7278 60.0844 6.9741 60.2584 7.2639 60.4033 C 7.5392 60.5628 7.8436 60.6788 8.1913 60.7948 C 8.5246 60.8817 8.8869 60.9397 9.2781 60.9397 C 9.6984 60.9397 10.0896 60.8672 10.4664 60.7513 C 10.8431 60.6063 11.1619 60.4323 11.4517 60.1714 C 11.7415 59.9104 11.9589 59.606 12.1328 59.258 C 12.2922 58.9101 12.3791 58.5042 12.3791 58.0547 C 12.3791 57.5328 12.2632 57.0834 12.0458 56.7355 C 11.814 56.3875 11.5386 56.0831 11.2054 55.8366 C 10.8721 55.5902 10.5098 55.3872 10.1331 55.2422 C 9.7418 55.0973 9.394 54.9523 9.0753 54.8363 C 8.8434 54.7638 8.6116 54.6768 8.4087 54.5899 C 8.1913 54.5029 8.003 54.4014 7.8436 54.2709 C 7.6841 54.1404 7.5538 53.981 7.4668 53.7925 C 7.3654 53.6185 7.3219 53.3866 7.3219 53.1256 C 7.3219 52.8792 7.3509 52.6472 7.4378 52.4153 C 7.5248 52.1978 7.6407 52.0093 7.8001 51.8354 C 7.945 51.6614 8.1479 51.5309 8.3797 51.4294 C 8.6116 51.3279 8.9014 51.27 9.2202 51.27 C 9.452 51.27 9.6694 51.299 9.8723 51.3569 C 10.0751 51.4149 10.249 51.4729 10.4229 51.5454 C 10.5967 51.6324 10.7416 51.7194 10.8721 51.8064 C 11.0025 51.9078 11.1184 51.9948 11.2054 52.0673 C 11.2923 51.9658 11.3647 51.8499 11.4517 51.7339 C 11.5386 51.6179 11.6256 51.5019 11.7271 51.3859 C 11.2343 50.98 10.7996 50.7191 10.3939 50.5741 L 10.3939 50.5741 Z" fill="#444444"/>
			<path d="M 20.8184 58.5767 C 20.7169 58.8231 20.572 59.0406 20.3981 59.2145 C 20.2242 59.403 20.0069 59.548 19.7606 59.6495 C 19.5142 59.7654 19.2389 59.8089 18.9491 59.8089 C 18.6593 59.8089 18.3984 59.7654 18.1521 59.6495 C 17.8913 59.548 17.6884 59.403 17.5145 59.2145 C 17.3406 59.0406 17.1957 58.8231 17.0943 58.5767 C 16.9784 58.3447 16.9349 58.0692 16.9349 57.7793 C 16.9349 57.5183 16.9784 57.2574 17.0943 57.0109 C 17.1957 56.779 17.3406 56.5615 17.5145 56.3875 C 17.6884 56.2136 17.8913 56.0686 18.1521 55.9526 C 18.3984 55.8511 18.6593 55.7932 18.9491 55.7932 C 19.2389 55.7932 19.5142 55.8511 19.7606 55.9526 C 20.0069 56.0686 20.2242 56.2136 20.3981 56.3875 C 20.572 56.5615 20.7169 56.779 20.8184 57.0109 C 20.9198 57.2574 20.9778 57.5183 20.9778 57.7793 C 20.9778 58.0692 20.9198 58.3447 20.8184 58.5767 L 20.8184 58.5767 ZM 21.6733 56.7645 C 21.5139 56.4165 21.311 56.1121 21.0502 55.8511 C 20.7894 55.5902 20.4706 55.3872 20.1083 55.2422 C 19.7461 55.0973 19.3548 55.0103 18.9491 55.0103 C 18.6738 55.0103 18.413 55.0538 18.1811 55.1263 C 17.9348 55.2133 17.7174 55.3147 17.5291 55.4307 C 17.3406 55.5467 17.1813 55.6772 17.0653 55.7932 C 16.9349 55.9236 16.8625 56.0396 16.8335 56.1266 C 16.819 55.9526 16.8045 55.7932 16.8045 55.6192 C 16.79 55.4452 16.79 55.2857 16.79 55.1118 L 16.022 55.1118 L 16.022 64.2886 L 16.9494 64.2886 L 16.9494 60.1569 C 16.9204 60.0844 16.9059 60.0119 16.8914 59.9394 C 16.8625 59.8669 16.848 59.7944 16.8335 59.7075 C 16.8625 59.8234 16.9349 59.9249 17.0508 60.0409 C 17.1667 60.1569 17.3116 60.2729 17.4855 60.3888 C 17.6594 60.5048 17.8768 60.5773 18.1376 60.6643 C 18.384 60.7368 18.6593 60.7803 18.9491 60.7803 C 19.3548 60.7803 19.7461 60.6933 20.1083 60.5483 C 20.4706 60.4033 20.7894 60.1859 21.0502 59.9249 C 21.311 59.664 21.5139 59.345 21.6733 58.9971 C 21.8182 58.6491 21.9052 58.2722 21.9052 57.8663 C 21.9052 57.4893 21.8182 57.1124 21.6733 56.7645 L 21.6733 56.7645 Z" fill="#444444"/>
			<path d="M 25.7365 57.0109 C 25.8379 56.7645 25.9828 56.547 26.1567 56.373 C 26.3306 56.1991 26.5479 56.0541 26.7943 55.9381 C 27.0406 55.8366 27.3159 55.7787 27.6057 55.7787 C 27.8955 55.7787 28.1564 55.8366 28.4027 55.9381 C 28.649 56.0541 28.8664 56.1991 29.0403 56.373 C 29.2142 56.547 29.3591 56.7645 29.4605 57.0109 C 29.562 57.2574 29.6199 57.5183 29.6199 57.7793 C 29.6199 58.0692 29.562 58.3447 29.4605 58.5767 C 29.3591 58.8231 29.2142 59.0406 29.0403 59.2145 C 28.8664 59.3885 28.649 59.5335 28.4027 59.635 C 28.1564 59.7509 27.8955 59.7944 27.6057 59.7944 C 27.3159 59.7944 27.0406 59.7509 26.7943 59.635 C 26.5479 59.5335 26.3306 59.3885 26.1567 59.2145 C 25.9828 59.0406 25.8379 58.8231 25.7365 58.5767 C 25.635 58.3447 25.5916 58.0692 25.5916 57.7793 C 25.5916 57.5183 25.635 57.2574 25.7365 57.0109 L 25.7365 57.0109 ZM 24.8815 58.8811 C 25.0264 59.229 25.2438 59.519 25.5046 59.7654 C 25.7654 60.0264 26.0697 60.2149 26.432 60.3598 C 26.7943 60.5048 27.1855 60.5773 27.6057 60.5773 C 27.8955 60.5773 28.1708 60.5483 28.4172 60.4758 C 28.6635 60.4033 28.8809 60.3163 29.0693 60.2149 C 29.2432 60.1134 29.3881 59.9974 29.504 59.8814 C 29.6199 59.7654 29.6924 59.6495 29.7213 59.548 L 29.7213 59.9249 L 29.7213 60.5048 L 30.5473 60.5048 L 30.5473 55.0828 L 29.7793 55.0828 L 29.7358 55.5902 C 29.7213 55.7642 29.7213 55.9236 29.7213 56.0831 C 29.6924 55.9961 29.6054 55.8801 29.4895 55.7642 C 29.3735 55.6482 29.2142 55.5322 29.0258 55.4162 C 28.8374 55.3002 28.6201 55.2133 28.3882 55.1263 C 28.1418 55.0538 27.881 55.0103 27.6057 55.0103 C 27.1855 55.0103 26.7943 55.0973 26.432 55.2422 C 26.0697 55.3872 25.7654 55.5902 25.5046 55.8511 C 25.2438 56.1121 25.0264 56.402 24.8815 56.7355 C 24.7221 57.0834 24.6497 57.4314 24.6497 57.8083 C 24.6497 58.1852 24.7221 58.5477 24.8815 58.8811 L 24.8815 58.8811 Z" fill="#444444"/>
			<path d="M 41.9919 56.373 C 42.3687 56.0106 42.8468 55.8221 43.4409 55.7932 C 43.7307 56.2861 44.035 56.779 44.3394 57.2719 C 44.6292 57.7648 44.9335 58.2432 45.2377 58.7361 C 45.0638 59.0551 44.832 59.316 44.5277 59.519 C 44.2089 59.722 43.8467 59.8089 43.4409 59.8089 C 43.1511 59.8089 42.8903 59.7654 42.6439 59.6495 C 42.3831 59.548 42.1802 59.403 42.0063 59.2145 C 41.8325 59.0406 41.6876 58.8231 41.5861 58.5767 C 41.4847 58.3447 41.4412 58.0692 41.4412 57.7793 C 41.4412 57.1994 41.6151 56.7355 41.9919 56.373 L 41.9919 56.373 ZM 46.4404 56.4165 C 46.455 56.2136 46.4984 56.0686 46.5564 55.9526 C 46.6143 55.8366 46.6868 55.7642 46.7882 55.7062 C 46.8896 55.6627 47.0201 55.6337 47.165 55.6337 L 47.875 55.6337 L 47.875 54.7348 L 47.223 54.7348 L 46.6723 54.7348 C 46.4984 54.7348 46.3245 54.7638 46.1796 54.8218 C 46.0347 54.8798 45.9043 54.9813 45.7884 55.1263 C 45.6725 55.2712 45.6 55.4887 45.5565 55.7787 L 45.5565 56.0831 C 45.5276 56.2281 45.4986 56.3875 45.4696 56.5325 C 45.4406 56.692 45.3972 56.866 45.3537 57.0399 C 44.9045 56.3151 44.4553 55.5902 44.0206 54.8653 C 43.5858 54.1549 43.1366 53.4301 42.7019 52.7052 C 42.4411 52.2703 42.3251 51.8354 42.3831 51.3859 C 42.4411 50.9365 42.7019 50.5596 43.1801 50.2696 C 43.3395 50.1682 43.5134 50.1102 43.7162 50.0812 C 43.9046 50.0667 44.093 50.0812 44.2814 50.1247 C 44.4697 50.1826 44.6581 50.2406 44.832 50.3276 C 45.0059 50.4146 45.1653 50.4871 45.3102 50.5596 C 45.3682 50.4436 45.4261 50.3276 45.4986 50.1971 C 45.5565 50.0812 45.629 49.9507 45.687 49.8347 C 45.4841 49.7187 45.2667 49.6172 45.0349 49.5013 C 44.7885 49.3853 44.5277 49.3128 44.2524 49.2548 C 43.9771 49.1968 43.7018 49.1968 43.4119 49.2258 C 43.1221 49.2548 42.8323 49.3563 42.557 49.5303 C 42.2237 49.7332 41.9629 49.9652 41.789 50.2261 C 41.6006 50.5016 41.4847 50.7915 41.4412 51.096 C 41.3833 51.4004 41.3978 51.7049 41.4702 52.0238 C 41.5427 52.3428 41.6731 52.6472 41.8615 52.9372 L 42.3831 53.807 C 42.557 54.097 42.7309 54.3724 42.9048 54.6624 C 42.557 54.7203 42.2382 54.8363 41.9484 55.0103 C 41.6586 55.1843 41.3978 55.4017 41.1949 55.6482 C 40.9775 55.9091 40.8036 56.1846 40.6877 56.5035 C 40.5718 56.8225 40.5139 57.1559 40.5139 57.5038 C 40.5139 57.9098 40.5863 58.3012 40.7312 58.6491 C 40.8761 58.9971 41.0934 59.3015 41.3688 59.5625 C 41.6296 59.8234 41.9484 60.0409 42.2962 60.1859 C 42.6439 60.3453 43.0352 60.4178 43.4409 60.4178 C 43.9046 60.4178 44.3394 60.3308 44.7451 60.1279 C 45.1508 59.9394 45.4841 59.664 45.7739 59.316 C 45.8898 59.5335 46.0203 59.7509 46.1506 59.9539 C 46.2666 60.1714 46.397 60.3743 46.5419 60.5773 C 46.6578 60.5048 46.7882 60.4323 46.9042 60.3453 C 47.0201 60.2729 47.136 60.2004 47.2664 60.1134 C 47.0925 59.8234 46.9186 59.548 46.7448 59.2725 C 46.5709 58.9971 46.397 58.7071 46.2231 58.4172 C 46.3391 58.1272 46.4115 57.8373 46.4115 57.5328 L 46.4115 57.1849 C 46.4115 56.866 46.4115 56.6195 46.4404 56.4165 L 46.4404 56.4165 Z" fill="#444444"/>
			<path d="M 60.1891 51.0815 C 60.8121 51.0815 61.3193 51.2265 61.725 51.5019 C 62.1163 51.7919 62.3192 52.2558 62.3192 52.9082 C 62.3192 53.5026 62.1308 53.981 61.754 54.3579 C 61.3773 54.7348 60.8701 54.9088 60.2325 54.9088 L 58.4502 54.9088 L 58.4502 51.0815 L 60.1891 51.0815 L 60.1891 51.0815 ZM 60.247 55.7932 C 60.5658 55.7932 60.8991 55.8366 61.2179 55.9091 C 61.5367 55.9961 61.8265 56.1121 62.0873 56.2716 C 62.3337 56.431 62.5365 56.634 62.6814 56.895 C 62.8264 57.1559 62.9133 57.4459 62.9133 57.7793 C 62.9133 58.0982 62.8408 58.3882 62.7104 58.6201 C 62.58 58.8666 62.4061 59.0696 62.1887 59.229 C 61.9569 59.3885 61.696 59.5045 61.4063 59.5915 C 61.1165 59.6785 60.7977 59.7075 60.4644 59.7075 L 58.6531 59.7075 L 58.6531 55.7932 L 60.247 55.7932 L 60.247 55.7932 ZM 59.9572 60.5773 C 60.3774 60.5773 60.7831 60.5193 61.1889 60.4033 C 61.5801 60.2874 61.9279 60.1279 62.2467 59.8959 C 62.551 59.6785 62.7974 59.403 62.9713 59.0696 C 63.1451 58.7506 63.2466 58.3592 63.2466 57.9098 C 63.2466 57.5618 63.1886 57.2284 63.0727 56.9384 C 62.9567 56.6485 62.7974 56.402 62.5945 56.1846 C 62.3916 55.9671 62.1598 55.7932 61.8989 55.6482 C 61.6381 55.5177 61.3628 55.4162 61.073 55.3582 C 61.6816 55.1843 62.1308 54.8653 62.4351 54.4014 C 62.7249 53.9375 62.8843 53.4011 62.8843 52.7777 C 62.8843 52.3283 62.7974 51.9368 62.6525 51.6034 C 62.493 51.2845 62.2757 51.009 62.0004 50.806 C 61.7106 50.6031 61.3773 50.4436 60.986 50.3421 C 60.5948 50.2406 60.1601 50.1826 59.6964 50.1826 L 57.1605 50.1826 L 57.1605 60.5773 L 59.9572 60.5773 L 59.9572 60.5773 Z" fill="#444444"/>
			<path d="M 70.8599 56.0251 C 71.1062 56.1846 71.3091 56.3875 71.454 56.6485 C 70.8889 56.866 70.3237 57.0834 69.7586 57.2864 L 68.0632 57.9388 L 68.0632 57.6343 C 68.0632 57.5473 68.0777 57.4459 68.1067 57.3444 C 68.1936 56.9095 68.4109 56.5325 68.7733 56.2281 C 69.121 55.9381 69.5557 55.7787 70.0629 55.7787 C 70.3527 55.7787 70.6135 55.8656 70.8599 56.0251 L 70.8599 56.0251 ZM 72.251 56.0541 C 72.0771 55.7642 71.8887 55.5177 71.6713 55.3147 C 71.4395 55.1118 71.1932 54.9668 70.9178 54.8508 C 70.6425 54.7348 70.3527 54.6768 70.0629 54.6768 C 69.6572 54.6768 69.2659 54.7638 68.9182 54.9088 C 68.5559 55.0683 68.2371 55.2712 67.9763 55.5322 C 67.7155 55.7932 67.498 56.1121 67.3531 56.46 C 67.1938 56.8225 67.1213 57.1994 67.1213 57.5763 C 67.1213 57.9823 67.1938 58.3737 67.3531 58.7216 C 67.498 59.0696 67.7155 59.374 67.9763 59.635 C 68.2371 59.8959 68.5559 60.1134 68.9182 60.2584 C 69.2659 60.4178 69.6572 60.4903 70.0629 60.4903 C 70.4396 60.4903 70.7874 60.4323 71.1062 60.2874 C 71.425 60.1569 71.7148 59.9684 71.9756 59.7075 C 71.8597 59.606 71.7583 59.49 71.6713 59.374 C 71.5844 59.258 71.4974 59.1566 71.4105 59.0406 C 71.2366 59.2145 71.0338 59.345 70.8019 59.4465 C 70.5701 59.548 70.3237 59.5915 70.0629 59.5915 C 69.6716 59.5915 69.3239 59.5045 69.0196 59.3305 C 68.7153 59.1566 68.4834 58.9101 68.324 58.6057 L 72.6422 56.9529 C 72.5552 56.634 72.4249 56.3441 72.251 56.0541 L 72.251 56.0541 Z" fill="#444444"/>
			<path d="M 76.372 57.0109 C 76.4734 56.7645 76.6183 56.547 76.7922 56.373 C 76.9661 56.1991 77.1835 56.0541 77.4298 55.9381 C 77.6761 55.8366 77.9515 55.7787 78.2413 55.7787 C 78.5311 55.7787 78.7919 55.8366 79.0383 55.9381 C 79.2846 56.0541 79.502 56.1991 79.6758 56.373 C 79.8497 56.547 79.9946 56.7645 80.0961 57.0109 C 80.1975 57.2574 80.2555 57.5183 80.2555 57.7793 C 80.2555 58.0692 80.1975 58.3447 80.0961 58.5767 C 79.9946 58.8231 79.8497 59.0406 79.6758 59.2145 C 79.502 59.3885 79.2846 59.5335 79.0383 59.635 C 78.7919 59.7509 78.5311 59.7944 78.2413 59.7944 C 77.9515 59.7944 77.6761 59.7509 77.4298 59.635 C 77.1835 59.5335 76.9661 59.3885 76.7922 59.2145 C 76.6183 59.0406 76.4734 58.8231 76.372 58.5767 C 76.2706 58.3447 76.2271 58.0692 76.2271 57.7793 C 76.2271 57.5183 76.2706 57.2574 76.372 57.0109 L 76.372 57.0109 ZM 75.5171 58.8811 C 75.662 59.229 75.8793 59.519 76.1402 59.7654 C 76.401 60.0264 76.7053 60.2149 77.0676 60.3598 C 77.4298 60.5048 77.8211 60.5773 78.2413 60.5773 C 78.5311 60.5773 78.8065 60.5483 79.0528 60.4758 C 79.2991 60.4033 79.5165 60.3163 79.7048 60.2149 C 79.8787 60.1134 80.0236 59.9974 80.1396 59.8814 C 80.2555 59.7654 80.3279 59.6495 80.3569 59.548 L 80.3569 59.9249 L 80.3569 60.5048 L 81.1829 60.5048 L 81.1829 55.0828 L 80.4149 55.0828 L 80.3714 55.5902 C 80.3569 55.7642 80.3569 55.9236 80.3569 56.0831 C 80.3279 55.9961 80.241 55.8801 80.1251 55.7642 C 80.0092 55.6482 79.8497 55.5322 79.6614 55.4162 C 79.473 55.3002 79.2556 55.2133 79.0238 55.1263 C 78.7775 55.0538 78.5166 55.0103 78.2413 55.0103 C 77.8211 55.0103 77.4298 55.0973 77.0676 55.2422 C 76.7053 55.3872 76.401 55.5902 76.1402 55.8511 C 75.8793 56.1121 75.662 56.402 75.5171 56.7355 C 75.3577 57.0834 75.2852 57.4314 75.2852 57.8083 C 75.2852 58.1852 75.3577 58.5477 75.5171 58.8811 L 75.5171 58.8811 Z" fill="#444444"/>
			<path d="M 89.0715 55.0103 L 88.1442 55.0103 L 88.1442 57.8808 C 88.1442 58.1562 88.0862 58.4027 87.9703 58.6346 C 87.8543 58.8666 87.7094 59.0696 87.5211 59.2435 C 87.3182 59.4175 87.1008 59.5625 86.84 59.6495 C 86.5792 59.7509 86.3038 59.7944 86.043 59.7944 C 85.6373 59.7799 85.3475 59.664 85.1591 59.4465 C 84.9562 59.2435 84.8548 58.9826 84.8403 58.6781 L 84.8403 55.0103 L 83.8984 55.0103 L 83.8984 59.0406 C 83.9129 59.5335 84.0868 59.9394 84.4201 60.2439 C 84.7534 60.5483 85.2026 60.6933 85.7677 60.6933 C 86.3038 60.6933 86.7965 60.5628 87.2313 60.2729 C 87.666 59.9974 87.9847 59.6205 88.1876 59.1421 L 88.1442 59.8089 L 88.1442 60.6643 L 89.0715 60.6643 L 89.0715 55.0103 L 89.0715 55.0103 Z" fill="#444444"/>
			<path d="M 93.1636 54.9523 L 91.903 54.9523 L 91.903 55.8511 L 93.1636 55.8511 L 93.1636 60.5773 L 94.0765 60.5773 L 94.0765 55.8511 L 95.6705 55.8511 L 95.6705 54.9523 L 94.0765 54.9523 L 94.0765 51.3859 L 93.1636 51.3859 L 93.1636 54.9523 L 93.1636 54.9523 Z" fill="#444444"/>
			<path d="M 102.255 59.6495 L 104.5735 55.0103 L 103.6461 55.0103 C 103.2549 55.7932 102.8491 56.576 102.4289 57.3589 C 101.9942 58.1562 101.6319 58.9536 101.3131 59.7509 C 100.9943 58.9536 100.6176 58.1562 100.1974 57.3589 C 99.7626 56.576 99.3569 55.7932 98.9656 55.0103 L 98.0383 55.0103 L 99.4294 57.8083 C 99.8931 58.7361 100.3568 59.664 100.835 60.5918 C 100.5162 61.2152 100.2119 61.8241 99.9075 62.4475 C 99.6033 63.0419 99.299 63.6508 98.9802 64.2886 L 99.9365 64.2886 C 100.7045 62.7229 101.4725 61.1862 102.255 59.6495 L 102.255 59.6495 Z" fill="#444444"/>
		</g>
		<rect x="5" y="40" width="100" height="1" fill="#84c340"/>
	</g>
</svg>