<?xml version="1.0" standalone="no"?>
<!-- Generator: Adobe Fireworks 10, Export SVG Extension by Aaron Beall (http://fireworks.abeall.com) . Version: 0.6.1  -->
<!DOCTYPE svg PUBLIC "-//W3C//DTD SVG 1.1//EN" "http://www.w3.org/Graphics/SVG/1.1/DTD/svg11.dtd">
<svg id="Untitled-Page%201" viewBox="0 0 80 120" style="background-color:#ffffff00" version="1.1"
	xmlns="http://www.w3.org/2000/svg" xmlns:xlink="http://www.w3.org/1999/xlink" xml:space="preserve"
	x="0px" y="0px" width="80px" height="120px"
>
	<g>
		<g>
			<g>
				<path d="M 38.8801 7.8598 C 38.8801 7.6422 38.9559 7.4426 39.0819 7.2851 L 35.8578 2.8691 L 33.1194 4.8629 C 33.12 4.8637 33.1206 4.8644 33.1213 4.8652 C 33.4149 5.2795 33.3177 5.854 32.9042 6.1482 C 32.8254 6.2042 32.741 6.2458 32.6537 6.2739 L 34.9238 13.2753 C 35.0093 13.2489 35.1 13.2346 35.1941 13.2346 C 35.3168 13.2346 35.4336 13.2591 35.5408 13.3029 L 39.0886 8.4436 C 38.9584 8.2847 38.8801 8.0814 38.8801 7.8598 Z" fill="#444444"/>
				<path d="M 46.6927 6.1482 C 46.2793 5.854 46.182 5.2795 46.4756 4.8652 C 46.4762 4.8644 46.4769 4.8637 46.4774 4.8629 L 43.7391 2.8691 L 40.5149 7.2851 C 40.641 7.4426 40.7168 7.6422 40.7168 7.8598 C 40.7168 8.0814 40.6384 8.2847 40.5083 8.4436 L 44.0562 13.3029 C 44.1632 13.2591 44.2802 13.2346 44.4028 13.2346 C 44.4969 13.2346 44.5876 13.2489 44.6731 13.2753 L 46.9432 6.2739 C 46.856 6.2458 46.7715 6.2042 46.6927 6.1482 Z" fill="#444444"/>
				<path d="M 39.4584 7.0055 C 39.5635 6.9634 39.6782 6.9396 39.7985 6.9396 C 39.9187 6.9396 40.0332 6.9634 40.1385 7.0055 L 43.3601 2.5932 L 39.7985 0 L 36.2368 2.5932 L 39.4584 7.0055 Z" fill="#444444"/>
				<path d="M 40.1282 8.7179 C 40.0256 8.7575 39.9148 8.7801 39.7985 8.7801 C 39.682 8.7801 39.5712 8.7575 39.4688 8.7179 L 35.9148 13.5856 C 36.0382 13.7424 36.1123 13.9397 36.1123 14.1548 L 43.4845 14.1548 C 43.4845 13.9397 43.5587 13.7424 43.6821 13.5856 L 40.1282 8.7179 Z" fill="#444444"/>
			</g>
			<g>
				<path d="M 52.3511 11.6551 C 52.4789 11.4792 52.6575 11.3624 52.8518 11.3095 L 52.8396 5.8378 L 49.4548 5.8341 C 49.4547 5.8351 49.455 5.836 49.4548 5.8372 C 49.4487 6.3452 49.0328 6.7522 48.5258 6.7461 C 48.4292 6.745 48.3365 6.7288 48.2494 6.7001 L 45.9717 13.6988 C 46.0562 13.7279 46.1381 13.77 46.2141 13.8253 C 46.3134 13.8978 46.3934 13.9867 46.4541 14.0851 L 52.1766 12.2499 C 52.1648 12.0446 52.2209 11.8342 52.3511 11.6551 Z" fill="#444444"/>
				<path d="M 59.672 14.8801 C 59.5106 14.3984 59.7694 13.8767 60.2501 13.715 C 60.2511 13.7147 60.2522 13.7145 60.2529 13.7141 L 59.2106 10.487 L 54.0101 12.1547 C 54.0195 12.3565 53.9636 12.5627 53.8357 12.7385 C 53.7056 12.9176 53.5228 13.0359 53.3243 13.0873 L 53.3379 19.1085 C 53.4502 19.1363 53.5591 19.1854 53.6581 19.2578 C 53.7343 19.3133 53.7991 19.3784 53.8527 19.4501 L 59.8007 15.1296 C 59.7467 15.0553 59.7029 14.9718 59.672 14.8801 Z" fill="#444444"/>
				<path d="M 53.3203 11.3056 C 53.4302 11.3337 53.5367 11.382 53.6339 11.4529 C 53.7311 11.5238 53.8098 11.6106 53.8701 11.7069 L 59.0664 10.0405 L 57.7106 5.843 L 53.3081 5.8384 L 53.3203 11.3056 Z" fill="#444444"/>
				<path d="M 52.8558 13.0851 C 52.7498 13.0566 52.6469 13.0093 52.5527 12.9407 C 52.4587 12.872 52.3824 12.7884 52.3228 12.696 L 46.5905 14.5344 C 46.5983 14.7339 46.5421 14.9371 46.4159 15.1109 L 52.3751 19.46 C 52.5016 19.2861 52.6775 19.1702 52.8693 19.1164 L 52.8558 13.0851 Z" fill="#444444"/>
			</g>
			<g>
				<path d="M 61.0112 22.6696 C 61.2179 22.603 61.4308 22.614 61.619 22.6858 L 64.8234 18.2554 L 62.0892 16.2557 C 62.0886 16.2565 62.0884 16.2572 62.0876 16.2583 C 61.7842 16.6653 61.2089 16.7489 60.8025 16.4448 C 60.7252 16.387 60.6598 16.3191 60.6063 16.2446 L 54.6537 20.5585 C 54.7051 20.6318 54.7465 20.7142 54.7755 20.8039 C 54.8131 20.921 54.8256 21.04 54.8168 21.1554 L 60.5208 23.0477 C 60.6318 22.8747 60.8007 22.7378 61.0112 22.6696 Z" fill="#444444"/>
				<path d="M 65.0347 29.5955 C 65.1873 29.1108 65.7029 28.8419 66.1865 28.9947 C 66.1875 28.995 66.1884 28.9955 66.1895 28.9956 L 67.2423 25.7719 L 62.059 24.0524 C 61.9479 24.2211 61.7815 24.3546 61.575 24.4213 C 61.3646 24.4894 61.1473 24.4772 60.9567 24.4017 L 57.4305 29.2768 C 57.505 29.3658 57.5642 29.4697 57.6017 29.5866 C 57.6306 29.6763 57.6448 29.7674 57.6461 29.8569 L 64.9922 29.873 C 64.9922 29.7811 65.0057 29.6878 65.0347 29.5955 Z" fill="#444444"/>
				<path d="M 62 22.959 C 62.0723 23.0465 62.13 23.1484 62.167 23.2632 C 62.2039 23.3778 62.2166 23.4942 62.2087 23.6076 L 67.3882 25.326 L 68.7577 21.1331 L 65.2017 18.5323 L 62 22.959 Z" fill="#444444"/>
				<path d="M 60.5792 24.1234 C 60.5103 24.038 60.4548 23.939 60.4191 23.828 C 60.3833 23.7171 60.3707 23.6043 60.3768 23.4946 L 54.6631 21.5991 C 54.552 21.7649 54.3875 21.896 54.1832 21.962 L 56.4458 28.9932 C 56.6501 28.9271 56.8605 28.9374 57.0471 29.0071 L 60.5792 24.1234 Z" fill="#444444"/>
			</g>
			<g>
				<path d="M 61.5415 36.6824 C 61.7477 36.7502 61.9133 36.8849 62.0233 37.0539 L 67.2162 35.3629 L 66.1808 32.1334 C 66.1798 32.1337 66.1791 32.1342 66.1779 32.1346 C 65.6935 32.2847 65.1794 32.0128 65.0295 31.5273 C 65.001 31.435 64.988 31.3415 64.9884 31.2496 L 57.6425 31.2253 C 57.6409 31.3149 57.626 31.406 57.5966 31.4955 C 57.5583 31.6123 57.4984 31.7159 57.4236 31.8041 L 60.923 36.6986 C 61.1143 36.6243 61.3314 36.6133 61.5415 36.6824 Z" fill="#444444"/>
				<path d="M 60.7256 44.6546 C 61.1337 44.3528 61.7084 44.4394 62.0096 44.8484 C 62.0103 44.8493 62.0106 44.8501 62.0114 44.8509 L 64.7562 42.866 L 61.5763 38.4182 C 61.3875 38.4891 61.1744 38.4989 60.9683 38.4309 C 60.7582 38.3619 60.5897 38.2239 60.4799 38.0503 L 54.7657 39.9111 C 54.7736 40.0268 54.7604 40.146 54.7222 40.2625 C 54.6929 40.352 54.6509 40.4342 54.5992 40.5073 L 60.5282 44.8538 C 60.5822 44.7796 60.6479 44.7121 60.7256 44.6546 Z" fill="#444444"/>
				<path d="M 62.1709 37.4997 C 62.1779 37.6129 62.1648 37.7294 62.1272 37.8438 C 62.0896 37.9585 62.0315 38.06 61.9585 38.147 L 65.1361 42.5915 L 68.7062 40.01 L 67.3593 35.8098 L 62.1709 37.4997 Z" fill="#444444"/>
				<path d="M 60.3383 37.6027 C 60.3329 37.493 60.3461 37.3802 60.3824 37.2695 C 60.4187 37.1587 60.4747 37.0602 60.5442 36.9749 L 57.0387 32.0721 C 56.8517 32.1408 56.6415 32.1496 56.4377 32.0824 L 54.1364 39.101 C 54.3402 39.1681 54.5043 39.3004 54.6143 39.4669 L 60.3383 37.6027 Z" fill="#444444"/>
			</g>
			<g>
				<path d="M 53.7386 48.3227 C 53.8655 48.4991 53.9204 48.7057 53.91 48.9073 L 59.1011 50.6038 L 60.1611 47.3822 C 60.1602 47.3819 60.1594 47.3819 60.1581 47.3813 C 59.6783 47.2172 59.4225 46.6939 59.5865 46.2131 C 59.6177 46.1217 59.6621 46.0385 59.7164 45.9643 L 53.7924 41.6113 C 53.7385 41.6827 53.673 41.7476 53.5967 41.8026 C 53.4971 41.8744 53.3879 41.9229 53.2756 41.9499 L 53.2292 47.9709 C 53.4274 48.0238 53.6095 48.143 53.7386 48.3227 Z" fill="#444444"/>
				<path d="M 48.396 54.2859 C 48.9032 54.2827 49.3169 54.6918 49.3202 55.2001 C 49.3202 55.201 49.3199 55.202 49.3202 55.2032 L 52.705 55.2177 L 52.7471 49.7464 C 52.5527 49.6923 52.3749 49.5747 52.2483 49.398 C 52.1189 49.2183 52.0638 49.0074 52.0769 48.8023 L 46.3646 46.9357 C 46.3031 47.0338 46.2225 47.1223 46.1233 47.194 C 46.0468 47.249 45.9646 47.2907 45.88 47.3193 L 48.1195 54.3304 C 48.2065 54.3024 48.2996 54.2865 48.396 54.2859 Z" fill="#444444"/>
				<path d="M 53.7673 49.3546 C 53.7065 49.4503 53.6274 49.5368 53.5299 49.6071 C 53.4323 49.6777 53.3256 49.7253 53.2155 49.7527 L 53.1733 55.22 L 57.5757 55.2393 L 58.9543 51.0494 L 53.7673 49.3546 Z" fill="#444444"/>
				<path d="M 52.2255 48.357 C 52.2855 48.265 52.3624 48.1817 52.4567 48.1137 C 52.5513 48.0455 52.6544 47.9987 52.7606 47.9709 L 52.807 41.9396 C 52.6154 41.8848 52.4403 41.7679 52.3151 41.5934 L 46.3318 45.9095 C 46.4573 46.084 46.5122 46.2877 46.5032 46.4872 L 52.2255 48.357 Z" fill="#444444"/>
			</g>
			<g>
				<path d="M 40.5933 53.1295 C 40.5922 53.347 40.5151 53.5463 40.3884 53.7031 L 43.5881 58.1368 L 46.3374 56.1577 C 46.3368 56.1571 46.3362 56.1566 46.3356 56.1553 C 46.0442 55.7396 46.1448 55.1658 46.5598 54.8739 C 46.6385 54.8184 46.7235 54.7771 46.8109 54.7493 L 44.5792 47.7359 C 44.4938 47.7617 44.4026 47.7756 44.3085 47.775 C 44.1858 47.7744 44.069 47.749 43.9625 47.7047 L 40.3882 52.5445 C 40.5172 52.7042 40.5944 52.9079 40.5933 53.1295 Z" fill="#444444"/>
				<path d="M 32.7714 54.7982 C 33.1832 55.0948 33.2773 55.6696 32.9814 56.0825 C 32.981 56.0832 32.9802 56.0838 32.9796 56.0848 L 35.7073 58.0934 L 38.9553 53.6954 C 38.83 53.5371 38.7554 53.3369 38.7568 53.1194 C 38.7578 52.898 38.837 52.6949 38.9681 52.5367 L 35.447 47.6582 C 35.3397 47.701 35.2225 47.7252 35.1002 47.7246 C 35.0061 47.724 34.9152 47.7091 34.8298 47.6822 L 32.5216 54.6711 C 32.6086 54.6998 32.6931 54.7418 32.7714 54.7982 Z" fill="#444444"/>
				<path d="M 40.0103 53.9804 C 39.9049 54.0218 39.7903 54.0452 39.67 54.0445 C 39.5497 54.0439 39.4354 54.0196 39.3302 53.9768 L 36.0845 58.3715 L 39.632 60.9842 L 43.2076 58.4104 L 40.0103 53.9804 Z" fill="#444444"/>
				<path d="M 39.35 52.2644 C 39.4524 52.2255 39.5636 52.2035 39.6799 52.2042 C 39.7961 52.2048 39.9071 52.228 40.0092 52.268 L 43.5897 47.4198 C 43.467 47.2626 43.3942 47.0648 43.3955 46.8498 L 36.0233 46.8092 C 36.0221 47.0243 35.9469 47.2213 35.8226 47.3773 L 39.35 52.2644 Z" fill="#444444"/>
			</g>
			<g>
				<path d="M 27.1432 49.2605 C 27.0145 49.4356 26.8352 49.5513 26.6406 49.6032 L 26.6227 55.0748 L 30.0077 55.0968 C 30.0076 55.0962 30.0074 55.0955 30.0076 55.0938 C 30.0162 54.5859 30.4347 54.1814 30.9418 54.1903 C 31.038 54.1919 31.1307 54.2086 31.2179 54.2376 L 33.5337 47.2517 C 33.4495 47.2221 33.3677 47.1796 33.2919 47.1237 C 33.1932 47.0509 33.1135 46.9613 33.0535 46.8628 L 27.321 48.6666 C 27.3317 48.8718 27.2742 49.0819 27.1432 49.2605 Z" fill="#444444"/>
				<path d="M 19.84 45.9952 C 19.9987 46.4778 19.7371 46.998 19.2552 47.1573 C 19.2546 47.1574 19.2537 47.1576 19.2526 47.158 L 20.2775 50.3907 L 25.4866 48.7515 C 25.4784 48.5498 25.5356 48.3438 25.6646 48.169 C 25.7955 47.9905 25.9789 47.8731 26.1777 47.8225 L 26.1971 41.8017 C 26.0852 41.773 25.9762 41.7234 25.8777 41.6507 C 25.802 41.5948 25.7372 41.5292 25.6841 41.4571 L 19.7128 45.7449 C 19.7662 45.8195 19.8097 45.9034 19.84 45.9952 Z" fill="#444444"/>
				<path d="M 26.1721 49.6043 C 26.0625 49.5757 25.9562 49.527 25.8593 49.4554 C 25.7625 49.3839 25.6843 49.2968 25.6245 49.2002 L 20.4191 50.8382 L 21.752 55.0429 L 26.1544 55.0716 L 26.1721 49.6043 Z" fill="#444444"/>
				<path d="M 26.6464 47.8276 C 26.752 47.8566 26.855 47.9046 26.9485 47.9737 C 27.0421 48.0427 27.1182 48.1268 27.1771 48.2194 L 32.9196 46.4126 C 32.9126 46.213 32.97 46.0102 33.0973 45.8372 L 27.1617 41.4554 C 27.0344 41.6287 26.8578 41.7433 26.6658 41.7962 L 26.6464 47.8276 Z" fill="#444444"/>
			</g>
			<g>
				<path d="M 18.5435 38.1984 C 18.3364 38.2641 18.1235 38.2519 17.9358 38.1791 L 14.707 42.5915 L 17.4305 44.6062 C 17.4308 44.6057 17.4312 44.6048 17.4321 44.6036 C 17.7374 44.1983 18.3132 44.1179 18.7179 44.4243 C 18.7948 44.4825 18.8601 44.5507 18.9135 44.6256 L 24.8893 40.3444 C 24.8384 40.2707 24.7972 40.1882 24.769 40.0983 C 24.7319 39.9813 24.7202 39.8619 24.7295 39.7468 L 19.0359 37.8234 C 18.924 37.9955 18.754 38.1315 18.5435 38.1984 Z" fill="#444444"/>
				<path d="M 14.5576 31.2507 C 14.4025 31.7342 13.8854 32.0005 13.4023 31.8452 C 13.4017 31.8447 13.4009 31.8443 13.3998 31.8441 L 12.3293 35.062 L 17.5032 36.8099 C 17.6149 36.6417 17.7822 36.5091 17.9891 36.4437 C 18.1998 36.3768 18.417 36.39 18.6074 36.4665 L 22.1599 31.6107 C 22.0864 31.5215 22.0273 31.4173 21.9905 31.3004 C 21.9622 31.2105 21.9484 31.1193 21.9478 31.0297 L 14.6019 30.9732 C 14.6014 31.065 14.5872 31.1584 14.5576 31.2507 Z" fill="#444444"/>
				<path d="M 17.5563 37.9035 C 17.4845 37.8158 17.4271 37.7136 17.3909 37.5987 C 17.3546 37.4838 17.3427 37.3672 17.3511 37.2538 L 12.1809 35.5072 L 10.7885 39.6924 L 14.3303 42.3127 L 17.5563 37.9035 Z" fill="#444444"/>
				<path d="M 18.9833 36.7469 C 19.0518 36.8328 19.1067 36.9322 19.1417 37.0434 C 19.1769 37.1543 19.189 37.2671 19.1823 37.3768 L 24.8857 39.3039 C 24.9974 39.1384 25.1627 39.0082 25.3673 38.9436 L 23.1432 31.8999 C 22.9385 31.965 22.7284 31.9534 22.5421 31.8828 L 18.9833 36.7469 Z" fill="#444444"/>
			</g>
			<g>
				<path d="M 18.0896 24.183 C 17.8838 24.1141 17.7188 23.9787 17.6097 23.8091 L 12.4078 25.4712 L 13.426 28.7063 C 13.4264 28.7062 13.4271 28.7056 13.4287 28.7053 C 13.9136 28.5576 14.4264 28.8324 14.5735 29.3188 C 14.6014 29.4113 14.6141 29.5048 14.6133 29.5968 L 21.9589 29.6613 C 21.9611 29.5718 21.9762 29.4807 22.0061 29.3914 C 22.0449 29.275 22.1056 29.1715 22.1808 29.084 L 18.7081 24.1703 C 18.5164 24.2434 18.2992 24.2532 18.0896 24.183 Z" fill="#444444"/>
				<path d="M 18.9489 16.2154 C 18.5396 16.5147 17.9651 16.4249 17.6659 16.0144 C 17.6656 16.0138 17.6653 16.0129 17.6644 16.012 L 14.9088 17.9819 L 18.0645 22.4468 C 18.2535 22.3769 18.4668 22.3684 18.6725 22.4376 C 18.8821 22.5078 19.0499 22.6467 19.1589 22.8207 L 24.8831 20.9911 C 24.8759 20.8756 24.8895 20.7565 24.9283 20.6404 C 24.9581 20.5508 25.0006 20.4691 25.0527 20.3962 L 19.1477 16.0171 C 19.0934 16.0911 19.027 16.1582 18.9489 16.2154 Z" fill="#444444"/>
				<path d="M 17.465 23.3622 C 17.4585 23.2491 17.472 23.1327 17.5103 23.0184 C 17.5485 22.904 17.6072 22.8027 17.6807 22.7161 L 14.5272 18.2542 L 10.9432 20.816 L 12.2671 25.0237 L 17.465 23.3622 Z" fill="#444444"/>
				<path d="M 19.298 23.2691 C 19.3027 23.3789 19.2888 23.4918 19.252 23.6023 C 19.2151 23.7128 19.1586 23.8109 19.0886 23.8957 L 22.5673 28.818 C 22.7546 28.7502 22.9648 28.7425 23.1682 28.811 L 25.5079 21.8049 C 25.3042 21.7368 25.1412 21.6035 25.0321 21.4365 L 19.298 23.2691 Z" fill="#444444"/>
			</g>
			<g>
				<path d="M 25.9559 12.5856 C 25.83 12.4085 25.7761 12.2017 25.7876 12.0003 L 20.6062 10.2752 L 19.5288 13.491 C 19.5292 13.4911 19.5302 13.4911 19.5316 13.4919 C 20.0104 13.6585 20.2633 14.1831 20.0967 14.6631 C 20.0648 14.7542 20.0201 14.8373 19.9655 14.9113 L 25.8655 19.2968 C 25.9199 19.2256 25.9857 19.1609 26.0624 19.1064 C 26.1621 19.0351 26.2719 18.9873 26.384 18.9609 L 26.4634 12.9402 C 26.2655 12.8862 26.0841 12.766 25.9559 12.5856 Z" fill="#444444"/>
				<path d="M 31.3309 6.6518 C 30.8242 6.6522 30.4126 6.2407 30.4119 5.7324 C 30.412 5.7318 30.4122 5.7308 30.412 5.7296 L 27.0272 5.6963 L 26.9554 11.1673 C 27.1493 11.2224 27.3267 11.3412 27.4524 11.5186 C 27.5806 11.699 27.6345 11.9102 27.6204 12.1152 L 33.3224 14.0129 C 33.3846 13.9154 33.4655 13.8272 33.5652 13.7563 C 33.6418 13.7013 33.7241 13.6603 33.8092 13.6322 L 31.6082 6.6088 C 31.5208 6.6365 31.4276 6.6516 31.3309 6.6518 Z" fill="#444444"/>
				<path d="M 25.9331 11.5536 C 25.9943 11.4584 26.0736 11.3722 26.1718 11.3024 C 26.2697 11.2325 26.3767 11.1853 26.4872 11.1585 L 26.5588 5.6914 L 22.1567 5.648 L 20.7552 9.8305 L 25.9331 11.5536 Z" fill="#444444"/>
				<path d="M 27.4695 12.5597 C 27.4088 12.6512 27.3313 12.7343 27.2366 12.8019 C 27.142 12.8696 27.0386 12.9154 26.9323 12.9428 L 26.8528 18.974 C 27.0439 19.0296 27.2185 19.1473 27.3427 19.3228 L 33.3496 15.0394 C 33.225 14.8642 33.1714 14.6602 33.1813 14.4608 L 27.4695 12.5597 Z" fill="#444444"/>
			</g>
		</g>
		<g>
			<path d="M 9.9436 81.9834 C 10.2585 82.7307 10.5735 83.478 10.899 84.2253 L 6.6045 84.2253 C 6.9824 83.3201 7.3605 82.4255 7.7595 81.5413 C 8.1586 80.6572 8.4841 79.7415 8.7465 78.7943 L 8.9985 79.731 C 9.3136 80.4888 9.6285 81.2361 9.9436 81.9834 L 9.9436 81.9834 ZM 13.1251 83.7621 L 8.7465 73.4054 L 4.3785 83.7621 C 2.9296 87.1933 1.47 90.6877 0 94.2242 L 2.3414 94.2242 C 2.8875 92.9296 3.4335 91.6034 3.99 90.2562 C 4.5465 88.909 5.103 87.5828 5.649 86.2777 L 11.8545 86.2777 C 12.4005 87.5828 12.9465 88.909 13.5031 90.2562 C 14.0491 91.6034 14.6056 92.9296 15.1516 94.2242 L 17.5035 94.2242 C 16.0336 90.6877 14.5741 87.1933 13.1251 83.7621 L 13.1251 83.7621 Z" fill="#444444"/>
			<path d="M 23.8036 81.3729 C 24.2026 80.4046 24.7592 79.5626 25.4731 78.8364 C 26.1766 78.1207 26.9956 77.5523 27.9302 77.1313 C 28.8541 76.7103 29.8622 76.4998 30.9332 76.4998 C 32.0042 76.4998 33.0017 76.7103 33.9467 77.1313 C 34.8917 77.5523 35.7108 78.1207 36.4248 78.8364 C 37.1282 79.5626 37.6847 80.4046 38.1047 81.3729 C 38.5143 82.3412 38.7242 83.3517 38.7242 84.4252 C 38.7242 85.4988 38.5143 86.5197 38.1047 87.4775 C 37.6847 88.4458 37.1282 89.2773 36.4248 89.9825 C 35.7108 90.6982 34.8917 91.2561 33.9467 91.6665 C 33.0017 92.0876 32.0042 92.2875 30.9332 92.2875 C 29.8622 92.2875 28.8541 92.0876 27.9302 91.6665 C 26.9956 91.2561 26.1766 90.6982 25.4731 89.9825 C 24.7592 89.2773 24.2026 88.4458 23.8036 87.4775 C 23.4047 86.5197 23.2051 85.4988 23.2051 84.4252 C 23.2051 83.3517 23.4047 82.3412 23.8036 81.3729 L 23.8036 81.3729 ZM 21.6511 88.1301 C 22.176 89.351 22.8901 90.4246 23.8036 91.3403 C 24.7172 92.256 25.7882 92.9822 27.0062 93.5085 C 28.2242 94.0347 29.5366 94.2978 30.9332 94.2978 C 31.6052 94.2978 32.3086 94.2242 33.0227 94.0663 L 41.6853 94.0663 L 41.6853 91.835 L 37.5377 91.835 C 38.6088 90.9087 39.4592 89.7931 40.0997 88.4669 C 40.7402 87.1512 41.0658 85.7303 41.0658 84.1937 C 41.0658 82.8044 40.7927 81.4887 40.2572 80.2467 C 39.7217 79.0153 38.9972 77.9417 38.0837 77.026 C 37.1703 76.1104 36.0992 75.3841 34.8707 74.8473 C 33.6317 74.3105 32.3192 74.0369 30.9332 74.0369 C 29.5366 74.0369 28.2242 74.3105 27.0062 74.8473 C 25.7882 75.3841 24.7172 76.1104 23.8036 77.026 C 22.8901 77.9417 22.176 79.0153 21.6511 80.2467 C 21.1261 81.4887 20.8635 82.8044 20.8635 84.1937 C 20.8635 85.5935 21.1261 86.9092 21.6511 88.1301 L 21.6511 88.1301 Z" fill="#444444"/>
			<path d="M 54.7053 93.8768 C 55.5663 93.5927 56.3224 93.1716 56.9629 92.6138 C 57.6034 92.056 58.1073 91.3613 58.4749 90.5298 C 58.8424 89.7089 59.0314 88.7511 59.0314 87.6775 L 59.0314 74.2579 L 56.6898 74.2579 L 56.6898 87.5828 C 56.6898 88.309 56.5638 88.951 56.3224 89.4984 C 56.0703 90.0562 55.7343 90.5193 55.3143 90.8982 C 54.8943 91.2771 54.3904 91.5718 53.8022 91.7613 C 53.2144 91.9612 52.5842 92.056 51.8914 92.056 C 51.1877 92.056 50.5474 91.9612 49.9697 91.7613 C 49.3818 91.5718 48.8778 91.2771 48.4578 90.8982 C 48.0377 90.5193 47.7018 90.0562 47.4707 89.4984 C 47.2292 88.951 47.1138 88.309 47.1138 87.5828 L 47.1138 74.2579 L 44.7722 74.2579 L 44.7722 87.6775 C 44.7722 88.7511 44.9508 89.7089 45.3077 90.5298 C 45.6648 91.3613 46.1582 92.056 46.7988 92.6138 C 47.4392 93.1716 48.1953 93.5927 49.0668 93.8768 C 49.9279 94.161 50.8729 94.2978 51.8914 94.2978 C 52.8993 94.2978 53.8444 94.161 54.7053 93.8768 L 54.7053 93.8768 Z" fill="#444444"/>
			<path d="M 72.4399 81.9834 C 72.755 82.7307 73.0699 83.478 73.3954 84.2253 L 69.101 84.2253 C 69.4789 83.3201 69.8569 82.4255 70.256 81.5413 C 70.6549 80.6572 70.9805 79.7415 71.2429 78.7943 L 71.495 79.731 C 71.8099 80.4888 72.1249 81.2361 72.4399 81.9834 L 72.4399 81.9834 ZM 75.6215 83.7621 L 71.2429 73.4054 L 66.8749 83.7621 C 65.4259 87.1933 63.9663 90.6877 62.4965 94.2242 L 64.8379 94.2242 C 65.3839 92.9296 65.9299 91.6034 66.4865 90.2562 C 67.043 88.909 67.5994 87.5828 68.1455 86.2777 L 74.351 86.2777 C 74.897 87.5828 75.443 88.909 75.9995 90.2562 C 76.5454 91.6034 77.1019 92.9296 77.6479 94.2242 L 80 94.2242 C 78.53 90.6877 77.0704 87.1933 75.6215 83.7621 L 75.6215 83.7621 Z" fill="#444444"/>
		</g>
		<g>
			<path d="M 7.4508 110.0432 C 7.1569 109.9485 6.8733 109.8958 6.6003 109.8958 C 6.2119 109.8958 5.8864 109.959 5.6238 110.0853 C 5.3613 110.2116 5.1512 110.3589 4.9939 110.5484 C 4.8258 110.7379 4.7103 110.9589 4.6473 111.201 C 4.5844 111.4431 4.5529 111.6851 4.5632 111.9167 C 4.5632 112.2324 4.6263 112.485 4.7523 112.6955 C 4.8678 112.906 5.0043 113.0745 5.1724 113.2113 C 5.3403 113.3481 5.5083 113.4534 5.6974 113.527 C 5.8759 113.6112 6.0333 113.6744 6.1698 113.727 C 6.3589 113.8007 6.5688 113.8744 6.8103 113.948 C 7.0413 114.0217 7.2618 114.1164 7.4718 114.2427 C 7.6818 114.369 7.8499 114.5374 7.9968 114.7374 C 8.1439 114.9374 8.2173 115.19 8.2173 115.4847 C 8.2173 115.7163 8.1648 115.9162 8.0808 116.1057 C 7.9863 116.2952 7.8604 116.4425 7.7133 116.5583 C 7.5558 116.6846 7.3773 116.7793 7.1884 116.8425 C 6.9889 116.9056 6.7788 116.9372 6.5688 116.9372 C 6.3589 116.9372 6.1593 116.9161 5.9808 116.853 C 5.7917 116.7898 5.6238 116.7162 5.4664 116.6214 C 5.3087 116.5372 5.1724 116.432 5.0463 116.3267 C 4.9203 116.2215 4.8153 116.1057 4.7103 116.0004 L 4.2799 116.432 C 4.3638 116.5583 4.4899 116.6846 4.6473 116.8109 C 4.7943 116.9477 4.9728 117.074 5.1827 117.1793 C 5.3823 117.295 5.6028 117.3792 5.8549 117.4635 C 6.0963 117.5266 6.3589 117.5687 6.6423 117.5687 C 6.9468 117.5687 7.2303 117.5161 7.5033 117.4319 C 7.7762 117.3266 8.0073 117.2003 8.2173 117.0109 C 8.4272 116.8214 8.5848 116.6004 8.7108 116.3478 C 8.8264 116.0952 8.8894 115.8005 8.8894 115.4742 C 8.8894 115.0953 8.8053 114.769 8.6479 114.5164 C 8.4799 114.2638 8.2803 114.0428 8.0388 113.8638 C 7.7974 113.6849 7.5348 113.5376 7.2618 113.4323 C 6.9783 113.3271 6.7263 113.2218 6.4952 113.1376 C 6.3273 113.085 6.1593 113.0218 6.0123 112.9587 C 5.8549 112.8955 5.7183 112.8218 5.6028 112.7271 C 5.4873 112.6324 5.3928 112.5166 5.3298 112.3798 C 5.2563 112.2535 5.2249 112.0851 5.2249 111.8956 C 5.2249 111.7167 5.2457 111.5483 5.3087 111.3799 C 5.3718 111.222 5.4558 111.0852 5.5713 110.9589 C 5.6764 110.8326 5.8234 110.7379 5.9912 110.6642 C 6.1593 110.5905 6.3693 110.5484 6.6003 110.5484 C 6.7683 110.5484 6.9259 110.5695 7.0729 110.6116 C 7.2198 110.6537 7.3458 110.6958 7.4718 110.7484 C 7.5978 110.8115 7.7029 110.8747 7.7974 110.9378 C 7.8918 111.0115 7.9758 111.0747 8.0388 111.1273 C 8.1018 111.0536 8.1543 110.9694 8.2173 110.8852 C 8.2803 110.801 8.3434 110.7168 8.4169 110.6326 C 8.0598 110.3379 7.7448 110.1485 7.4508 110.0432 L 7.4508 110.0432 Z" fill="#444444"/>
			<path d="M 15.0045 115.8531 C 14.931 116.032 14.826 116.1899 14.7001 116.3162 C 14.5741 116.453 14.4165 116.5583 14.238 116.6319 C 14.0596 116.7162 13.8601 116.7477 13.65 116.7477 C 13.4401 116.7477 13.2511 116.7162 13.0725 116.6319 C 12.8835 116.5583 12.7366 116.453 12.6106 116.3162 C 12.4845 116.1899 12.3796 116.032 12.306 115.8531 C 12.222 115.6847 12.1906 115.4847 12.1906 115.2742 C 12.1906 115.0847 12.222 114.8953 12.306 114.7164 C 12.3796 114.548 12.4845 114.3901 12.6106 114.2638 C 12.7366 114.1375 12.8835 114.0322 13.0725 113.948 C 13.2511 113.8744 13.4401 113.8323 13.65 113.8323 C 13.8601 113.8323 14.0596 113.8744 14.238 113.948 C 14.4165 114.0322 14.5741 114.1375 14.7001 114.2638 C 14.826 114.3901 14.931 114.548 15.0045 114.7164 C 15.078 114.8953 15.1201 115.0847 15.1201 115.2742 C 15.1201 115.4847 15.078 115.6847 15.0045 115.8531 L 15.0045 115.8531 ZM 15.6241 114.5374 C 15.5085 114.2848 15.3616 114.0638 15.1726 113.8744 C 14.9835 113.6849 14.7526 113.5376 14.4901 113.4323 C 14.2275 113.3271 13.944 113.2639 13.65 113.2639 C 13.4506 113.2639 13.2616 113.2955 13.0936 113.3481 C 12.915 113.4113 12.7576 113.4849 12.6211 113.5691 C 12.4845 113.6533 12.369 113.748 12.285 113.8323 C 12.1906 113.927 12.1381 114.0112 12.1171 114.0743 C 12.1066 113.948 12.0959 113.8323 12.0959 113.706 C 12.0856 113.5797 12.0856 113.4639 12.0856 113.3376 L 11.5291 113.3376 L 11.5291 120 L 12.201 120 L 12.201 117.0003 C 12.1801 116.9477 12.1696 116.8951 12.1589 116.8425 C 12.1381 116.7898 12.1274 116.7372 12.1171 116.6741 C 12.1381 116.7583 12.1906 116.8319 12.2745 116.9161 C 12.3585 117.0003 12.4635 117.0845 12.5896 117.1687 C 12.7156 117.2529 12.873 117.3056 13.0621 117.3687 C 13.2406 117.4213 13.4401 117.4529 13.65 117.4529 C 13.944 117.4529 14.2275 117.3898 14.4901 117.2845 C 14.7526 117.1793 14.9835 117.0214 15.1726 116.8319 C 15.3616 116.6425 15.5085 116.4109 15.6241 116.1583 C 15.7291 115.9057 15.7921 115.6321 15.7921 115.3374 C 15.7921 115.0637 15.7291 114.79 15.6241 114.5374 L 15.6241 114.5374 Z" fill="#444444"/>
			<path d="M 18.5682 114.7164 C 18.6418 114.5374 18.7468 114.3796 18.8728 114.2533 C 18.9988 114.127 19.1563 114.0217 19.3347 113.9375 C 19.5132 113.8638 19.7128 113.8217 19.9227 113.8217 C 20.1328 113.8217 20.3218 113.8638 20.5002 113.9375 C 20.6788 114.0217 20.8363 114.127 20.9623 114.2533 C 21.0883 114.3796 21.1934 114.5374 21.2667 114.7164 C 21.3403 114.8953 21.3823 115.0847 21.3823 115.2742 C 21.3823 115.4847 21.3403 115.6847 21.2667 115.8531 C 21.1934 116.032 21.0883 116.1899 20.9623 116.3162 C 20.8363 116.4425 20.6788 116.5478 20.5002 116.6214 C 20.3218 116.7056 20.1328 116.7372 19.9227 116.7372 C 19.7128 116.7372 19.5132 116.7056 19.3347 116.6214 C 19.1563 116.5478 18.9988 116.4425 18.8728 116.3162 C 18.7468 116.1899 18.6418 116.032 18.5682 115.8531 C 18.4948 115.6847 18.4633 115.4847 18.4633 115.2742 C 18.4633 115.0847 18.4948 114.8953 18.5682 114.7164 L 18.5682 114.7164 ZM 17.9489 116.0741 C 18.0537 116.3267 18.2113 116.5372 18.4003 116.7162 C 18.5892 116.9056 18.8098 117.0424 19.0723 117.1477 C 19.3347 117.2529 19.6183 117.3056 19.9227 117.3056 C 20.1328 117.3056 20.3323 117.2845 20.5109 117.2319 C 20.6893 117.1793 20.8468 117.1161 20.9834 117.0424 C 21.1093 116.9688 21.2144 116.8846 21.2982 116.8004 C 21.3823 116.7162 21.4348 116.6319 21.4558 116.5583 L 21.4558 116.8319 L 21.4558 117.2529 L 22.0543 117.2529 L 22.0543 113.3165 L 21.4978 113.3165 L 21.4663 113.6849 C 21.4558 113.8112 21.4558 113.927 21.4558 114.0428 C 21.4348 113.9796 21.3718 113.8954 21.2878 113.8112 C 21.2037 113.727 21.0883 113.6428 20.9519 113.5586 C 20.8153 113.4744 20.6578 113.4113 20.4897 113.3481 C 20.3113 113.2955 20.1223 113.2639 19.9227 113.2639 C 19.6183 113.2639 19.3347 113.3271 19.0723 113.4323 C 18.8098 113.5376 18.5892 113.6849 18.4003 113.8744 C 18.2113 114.0638 18.0537 114.2743 17.9489 114.5164 C 17.8334 114.769 17.7808 115.0216 17.7808 115.2953 C 17.7808 115.5689 17.8334 115.832 17.9489 116.0741 L 17.9489 116.0741 Z" fill="#444444"/>
			<path d="M 30.3473 114.2533 C 30.6202 113.9901 30.9667 113.8533 31.3972 113.8323 C 31.6072 114.1901 31.8278 114.548 32.0482 114.9058 C 32.2582 115.2637 32.4788 115.611 32.6992 115.9689 C 32.5732 116.2004 32.4053 116.3899 32.1847 116.5372 C 31.9537 116.6846 31.6913 116.7477 31.3972 116.7477 C 31.1873 116.7477 30.9982 116.7162 30.8197 116.6319 C 30.6307 116.5583 30.4836 116.453 30.3577 116.3162 C 30.2317 116.1899 30.1267 116.032 30.0532 115.8531 C 29.9796 115.6847 29.9481 115.4847 29.9481 115.2742 C 29.9481 114.8532 30.0742 114.5164 30.3473 114.2533 L 30.3473 114.2533 ZM 33.5707 114.2848 C 33.5813 114.1375 33.6127 114.0322 33.6548 113.948 C 33.6967 113.8638 33.7493 113.8112 33.8228 113.7691 C 33.8962 113.7375 33.9907 113.7165 34.0958 113.7165 L 34.6102 113.7165 L 34.6102 113.0639 L 34.1377 113.0639 L 33.7388 113.0639 C 33.6127 113.0639 33.4867 113.085 33.3818 113.1271 C 33.2767 113.1692 33.1823 113.2429 33.0981 113.3481 C 33.0143 113.4534 32.9618 113.6112 32.9302 113.8217 L 32.9302 114.0428 C 32.9093 114.148 32.8882 114.2638 32.8672 114.369 C 32.8463 114.4848 32.8148 114.6111 32.7833 114.7374 C 32.4578 114.2112 32.1323 113.6849 31.8173 113.1586 C 31.5022 112.6429 31.1768 112.1167 30.8617 111.5904 C 30.6727 111.2746 30.5887 110.9589 30.6307 110.6326 C 30.6727 110.3063 30.8617 110.0327 31.2083 109.8222 C 31.3237 109.7485 31.4497 109.7064 31.5968 109.6853 C 31.7332 109.6748 31.8698 109.6853 32.0062 109.7169 C 32.1427 109.759 32.2793 109.8011 32.4053 109.8643 C 32.5313 109.9274 32.6467 109.98 32.7517 110.0327 C 32.7937 109.9485 32.8357 109.8643 32.8882 109.7695 C 32.9302 109.6853 32.9827 109.5906 33.0248 109.5064 C 32.8778 109.4222 32.7202 109.3485 32.5522 109.2643 C 32.3738 109.1801 32.1847 109.1275 31.9852 109.0854 C 31.7858 109.0433 31.5863 109.0433 31.3762 109.0644 C 31.1661 109.0854 30.9562 109.1591 30.7567 109.2854 C 30.5151 109.4327 30.3262 109.6012 30.2003 109.7906 C 30.0637 109.9906 29.9796 110.2011 29.9481 110.4221 C 29.9063 110.6431 29.9166 110.8642 29.9692 111.0957 C 30.0217 111.3273 30.1162 111.5483 30.2527 111.7588 L 30.6307 112.3903 C 30.7567 112.6008 30.8828 112.8008 31.0088 113.0113 C 30.7567 113.0534 30.5258 113.1376 30.3158 113.2639 C 30.1057 113.3902 29.9166 113.5481 29.7697 113.727 C 29.6122 113.9165 29.4862 114.1164 29.4022 114.348 C 29.3182 114.5795 29.2762 114.8216 29.2762 115.0742 C 29.2762 115.3689 29.3287 115.6531 29.4337 115.9057 C 29.5387 116.1583 29.6963 116.3793 29.8958 116.5688 C 30.0847 116.7583 30.3158 116.9161 30.5677 117.0214 C 30.8197 117.1372 31.1031 117.1898 31.3972 117.1898 C 31.7332 117.1898 32.0482 117.1266 32.3423 116.9793 C 32.6362 116.8425 32.8778 116.6425 33.0878 116.3899 C 33.1718 116.5478 33.2662 116.7056 33.3607 116.853 C 33.4447 117.0109 33.5392 117.1582 33.6442 117.3056 C 33.7283 117.2529 33.8228 117.2003 33.9067 117.1372 C 33.9907 117.0845 34.0747 117.0319 34.1692 116.9688 C 34.0432 116.7583 33.9172 116.5583 33.7913 116.3583 C 33.6652 116.1583 33.5392 115.9478 33.4132 115.7373 C 33.4973 115.5268 33.5498 115.3163 33.5498 115.0953 L 33.5498 114.8427 C 33.5498 114.6111 33.5498 114.4322 33.5707 114.2848 L 33.5707 114.2848 Z" fill="#444444"/>
			<path d="M 43.5332 110.4116 C 43.9846 110.4116 44.3522 110.5168 44.6462 110.7168 C 44.9297 110.9273 45.0767 111.2641 45.0767 111.7377 C 45.0767 112.1693 44.9403 112.5166 44.6672 112.7903 C 44.3942 113.0639 44.0267 113.1902 43.5647 113.1902 L 42.2732 113.1902 L 42.2732 110.4116 L 43.5332 110.4116 L 43.5332 110.4116 ZM 43.5752 113.8323 C 43.8062 113.8323 44.0477 113.8638 44.2787 113.9165 C 44.5096 113.9796 44.7196 114.0638 44.9088 114.1796 C 45.0873 114.2954 45.2341 114.4427 45.3392 114.6322 C 45.4442 114.8216 45.5072 115.0321 45.5072 115.2742 C 45.5072 115.5058 45.4547 115.7163 45.3602 115.8847 C 45.2657 116.0636 45.1398 116.2109 44.9822 116.3267 C 44.8142 116.4425 44.6251 116.5267 44.4152 116.5899 C 44.2052 116.653 43.9741 116.6741 43.7327 116.6741 L 42.4202 116.6741 L 42.4202 113.8323 L 43.5752 113.8323 L 43.5752 113.8323 ZM 43.3652 117.3056 C 43.6697 117.3056 43.9637 117.2635 44.2577 117.1793 C 44.5411 117.0951 44.7932 116.9793 45.0242 116.8109 C 45.2448 116.653 45.4232 116.453 45.5492 116.2109 C 45.6752 115.9794 45.7488 115.6952 45.7488 115.3689 C 45.7488 115.1163 45.7067 114.8743 45.6228 114.6638 C 45.5387 114.4532 45.4232 114.2743 45.2762 114.1164 C 45.1292 113.9586 44.9612 113.8323 44.7722 113.727 C 44.5833 113.6323 44.3837 113.5586 44.1737 113.5165 C 44.6147 113.3902 44.9403 113.1586 45.1606 112.8218 C 45.3706 112.485 45.4862 112.0956 45.4862 111.643 C 45.4862 111.3167 45.4232 111.0326 45.3182 110.7905 C 45.2026 110.5589 45.0452 110.3589 44.8457 110.2116 C 44.6357 110.0642 44.3942 109.9485 44.1107 109.8748 C 43.8271 109.8011 43.5122 109.759 43.1761 109.759 L 41.3386 109.759 L 41.3386 117.3056 L 43.3652 117.3056 L 43.3652 117.3056 Z" fill="#444444"/>
			<path d="M 51.2654 114.0007 C 51.444 114.1164 51.5909 114.2638 51.6959 114.4532 C 51.2865 114.6111 50.877 114.769 50.4674 114.9164 L 49.2389 115.39 L 49.2389 115.169 C 49.2389 115.1058 49.2494 115.0321 49.2704 114.9585 C 49.3334 114.6427 49.4908 114.369 49.7534 114.148 C 50.0055 113.9375 50.3204 113.8217 50.6879 113.8217 C 50.8979 113.8217 51.0869 113.8849 51.2654 114.0007 L 51.2654 114.0007 ZM 52.2734 114.0217 C 52.1475 113.8112 52.0109 113.6323 51.8535 113.4849 C 51.6854 113.3376 51.507 113.2323 51.3075 113.1481 C 51.108 113.0639 50.8979 113.0218 50.6879 113.0218 C 50.3939 113.0218 50.1104 113.085 49.8585 113.1902 C 49.5959 113.306 49.3649 113.4534 49.1759 113.6428 C 48.9869 113.8323 48.8293 114.0638 48.7244 114.3164 C 48.609 114.5795 48.5564 114.8532 48.5564 115.1269 C 48.5564 115.4216 48.609 115.7057 48.7244 115.9583 C 48.8293 116.2109 48.9869 116.432 49.1759 116.6214 C 49.3649 116.8109 49.5959 116.9688 49.8585 117.074 C 50.1104 117.1898 50.3939 117.2424 50.6879 117.2424 C 50.9609 117.2424 51.2129 117.2003 51.444 117.0951 C 51.6749 117.0003 51.885 116.8635 52.0739 116.6741 C 51.99 116.6004 51.9165 116.5162 51.8535 116.432 C 51.7905 116.3478 51.7274 116.2741 51.6644 116.1899 C 51.5385 116.3162 51.3914 116.4109 51.2234 116.4846 C 51.0554 116.5583 50.877 116.5899 50.6879 116.5899 C 50.4044 116.5899 50.1525 116.5267 49.9319 116.4004 C 49.7114 116.2741 49.5435 116.0952 49.4279 115.8741 L 52.5569 114.6743 C 52.4939 114.4427 52.3994 114.2322 52.2734 114.0217 L 52.2734 114.0217 Z" fill="#444444"/>
			<path d="M 55.2596 114.7164 C 55.3331 114.5374 55.4381 114.3796 55.5641 114.2533 C 55.6901 114.127 55.8477 114.0217 56.0261 113.9375 C 56.2046 113.8638 56.4041 113.8217 56.6141 113.8217 C 56.8241 113.8217 57.0132 113.8638 57.1917 113.9375 C 57.3701 114.0217 57.5276 114.127 57.6536 114.2533 C 57.7797 114.3796 57.8846 114.5374 57.9581 114.7164 C 58.0316 114.8953 58.0736 115.0847 58.0736 115.2742 C 58.0736 115.4847 58.0316 115.6847 57.9581 115.8531 C 57.8846 116.032 57.7797 116.1899 57.6536 116.3162 C 57.5276 116.4425 57.3701 116.5478 57.1917 116.6214 C 57.0132 116.7056 56.8241 116.7372 56.6141 116.7372 C 56.4041 116.7372 56.2046 116.7056 56.0261 116.6214 C 55.8477 116.5478 55.6901 116.4425 55.5641 116.3162 C 55.4381 116.1899 55.3331 116.032 55.2596 115.8531 C 55.186 115.6847 55.1545 115.4847 55.1545 115.2742 C 55.1545 115.0847 55.186 114.8953 55.2596 114.7164 L 55.2596 114.7164 ZM 54.6401 116.0741 C 54.7451 116.3267 54.9027 116.5372 55.0916 116.7162 C 55.2806 116.9056 55.5011 117.0424 55.7637 117.1477 C 56.0261 117.2529 56.3096 117.3056 56.6141 117.3056 C 56.8241 117.3056 57.0236 117.2845 57.2021 117.2319 C 57.3806 117.1793 57.5381 117.1161 57.6747 117.0424 C 57.8005 116.9688 57.9056 116.8846 57.9897 116.8004 C 58.0736 116.7162 58.1261 116.6319 58.1471 116.5583 L 58.1471 116.8319 L 58.1471 117.2529 L 58.7456 117.2529 L 58.7456 113.3165 L 58.1891 113.3165 L 58.1576 113.6849 C 58.1471 113.8112 58.1471 113.927 58.1471 114.0428 C 58.1261 113.9796 58.0631 113.8954 57.9791 113.8112 C 57.8951 113.727 57.7797 113.6428 57.6432 113.5586 C 57.5067 113.4744 57.3491 113.4113 57.1812 113.3481 C 57.0027 113.2955 56.8136 113.2639 56.6141 113.2639 C 56.3096 113.2639 56.0261 113.3271 55.7637 113.4323 C 55.5011 113.5376 55.2806 113.6849 55.0916 113.8744 C 54.9027 114.0638 54.7451 114.2743 54.6401 114.5164 C 54.5247 114.769 54.472 115.0216 54.472 115.2953 C 54.472 115.5689 54.5247 115.832 54.6401 116.0741 L 54.6401 116.0741 Z" fill="#444444"/>
			<path d="M 64.4619 113.2639 L 63.7899 113.2639 L 63.7899 115.3479 C 63.7899 115.5479 63.7479 115.7268 63.6638 115.8952 C 63.5798 116.0636 63.475 116.2109 63.3384 116.3372 C 63.1913 116.4636 63.0339 116.5688 62.845 116.6319 C 62.6559 116.7056 62.4564 116.7372 62.2673 116.7372 C 61.9733 116.7267 61.7633 116.6425 61.627 116.4846 C 61.48 116.3372 61.4064 116.1478 61.3959 115.9268 L 61.3959 113.2639 L 60.7134 113.2639 L 60.7134 116.1899 C 60.7239 116.5478 60.8499 116.8425 61.0914 117.0635 C 61.3329 117.2845 61.6584 117.3898 62.0679 117.3898 C 62.4564 117.3898 62.8134 117.295 63.1283 117.0845 C 63.4435 116.8846 63.6744 116.6109 63.8214 116.2636 L 63.7899 116.7477 L 63.7899 117.3687 L 64.4619 117.3687 L 64.4619 113.2639 L 64.4619 113.2639 Z" fill="#444444"/>
			<path d="M 67.427 113.2218 L 66.5135 113.2218 L 66.5135 113.8744 L 67.427 113.8744 L 67.427 117.3056 L 68.0886 117.3056 L 68.0886 113.8744 L 69.2435 113.8744 L 69.2435 113.2218 L 68.0886 113.2218 L 68.0886 110.6326 L 67.427 110.6326 L 67.427 113.2218 L 67.427 113.2218 Z" fill="#444444"/>
			<path d="M 74.0149 116.6319 L 75.6948 113.2639 L 75.0228 113.2639 C 74.7394 113.8323 74.4453 114.4006 74.1409 114.969 C 73.8258 115.5479 73.5632 116.1267 73.3323 116.7056 C 73.1013 116.1267 72.8284 115.5479 72.5238 114.969 C 72.2089 114.4006 71.9148 113.8323 71.6312 113.2639 L 70.9594 113.2639 L 71.9674 115.2953 C 72.3033 115.9689 72.6393 116.6425 72.9858 117.3161 C 72.7548 117.7687 72.5344 118.2107 72.3137 118.6633 C 72.0934 119.0948 71.8728 119.5369 71.6418 120 L 72.3348 120 C 72.8914 118.8633 73.4479 117.7476 74.0149 116.6319 L 74.0149 116.6319 Z" fill="#444444"/>
		</g>
		<rect x="3.5424" y="102.3664" width="72.4615" height="0.726" fill="#444444"/>
	</g>
</svg>